<svg xmlns="http://www.w3.org/2000/svg" xmlns:xlink="http://www.w3.org/1999/xlink" viewBox="0 0 259.9 250"><defs><style>.cls-1{fill:none;}.cls-2{isolation:isolate;}.cls-3{clip-path:url(#clip-path);}.cls-4{fill:#f3cece;}.cls-5{opacity:0.8;mix-blend-mode:multiply;}</style><clipPath id="clip-path"><path class="cls-1" d="M259.82,250H0V42.75l0-5.22h0s0,0-.06,0H0v0a3.36,3.36,0,0,1,1.35-.35,1.32,1.32,0,0,1,.94.34,2.73,2.73,0,0,0,2.14.77c.57,0,.91.59,1.7.88s1.58.39,2.14.68a.56.56,0,0,0,.29,0A12.09,12.09,0,0,0,14.92,37a50,50,0,0,1,7-5l3-.48a16.07,16.07,0,0,0,1.86-.21,2.15,2.15,0,0,1,.85.21c1.13.49,3.16.2,4.29.59a.57.57,0,0,0,.18,0c1,0,1.82-3.13,1.82-3.13l1-3s2-3,3-3a10,10,0,0,0,3-1l1-1,1.54.06a1.17,1.17,0,0,0,.6.22c.38,0,.62-.32.82-.64s.37-.64.61-.64a.4.4,0,0,1,.23.09c.79.58,1.13,1.06,1.81,1.06h1.8c.81,0,1.34.39,2,.39a2,2,0,0,0,.56-.09c1-.3,1-.19,2.26-.58.93-.29.52-.75.89-.75a2.64,2.64,0,0,1,.69.17c1.46.48,2.37,0,3,.77s1.13,0,1.7,1,.56.58,1.35,1.35a3.12,3.12,0,0,0,1.36,1,6.12,6.12,0,0,0,2.14,1.07c1.24.29,1.47.19,2.37.38a2.45,2.45,0,0,0,.55,0l.67,0c.23,0,.47,0,.71,0a3.14,3.14,0,0,1,1.46.3,30.48,30.48,0,0,0,2.82,1.45c1.05.45,1.42.91,2.06.91a2,2,0,0,0,.65-.13c.75-.26,1.15-.6,1.64-.6a1.48,1.48,0,0,1,.84.31,4.26,4.26,0,0,0,2.14.78,3.74,3.74,0,0,0,.74.08c.41,0,.73-.08,1.41-.08,1,0,1.13.08,2.6.08.82,0,1.25.16,1.65.16a1.65,1.65,0,0,0,1-.44c.87-.66.75-1.11,1.25-1.11a1.47,1.47,0,0,1,.33,0c.91.2,2.37,0,3.17.49s.79.68,1.46,1a5.21,5.21,0,0,0,2.26.63h4.74c.6,0,.9-.17,1.27-.17a1.42,1.42,0,0,1,.65.17.92.92,0,0,0,.42.1,2.31,2.31,0,0,0,.67-.15,2.3,2.3,0,0,1,.65-.14.78.78,0,0,1,.52.19c.67.58.9.49,1.12.78s.46.48,1.7,1a5.81,5.81,0,0,0,2.59.49c.46,0,.76,0,1,0,.48,0,.73,0,1.49,0a5.19,5.19,0,0,1,2.37.38,1.8,1.8,0,0,0,.65.12,3.51,3.51,0,0,0,.79-.12,4.27,4.27,0,0,1,.84-.11,2.85,2.85,0,0,1,.77.11,4.15,4.15,0,0,0,1.29.21c.49,0,.91-.09,1.64-.09,1.24,0,1.35.09,2.71.09h1a4.08,4.08,0,0,0,1.72-.31,6.08,6.08,0,0,1,2.26-.59c1.46-.19,1.58-.19,2.59-.39s1.47-.38,2.26-.48a15.5,15.5,0,0,0,1.8-.29c.91-.2,1.25-.68,2.15-.68a12.58,12.58,0,0,0,2-.2c.79-.09.79-.48,2.26-.77a16.06,16.06,0,0,0,2.82-.68,6.22,6.22,0,0,1,3-.59c1.69,0,2.14-.19,3.61-.29s1.81-.68,3-1a14.34,14.34,0,0,1,2.93-.49c1.36-.09,1.81-.29,3.05-.29a8.9,8.9,0,0,0,3.16-.48c1.24-.39,1.58-.68,2.48-.88a27.71,27.71,0,0,1,4.41-1.07c1.57-.09,2.14-.48,3.38-.48h.85a6.82,6.82,0,0,0,2.2-.4c1.69-.49,2-.06,3.39-.78s1.91-2.14,3.16-2.91a25.26,25.26,0,0,1,3.49-1.95,19.51,19.51,0,0,1,3.16-1.16c.57,0,1.59-.29,2.49-.29.6,0,.95-.05,1.52-.05.28,0,.62,0,1.07.05s.77.06,1.06.06a2.39,2.39,0,0,0,1.76-.74c1-.88.57-.88,1.59-1.66a1.69,1.69,0,0,1,1.07-.32h.36l.36,0a1.26,1.26,0,0,0,1.14-.53c.79-1.07,1.47-2.63,2.48-2.63s.74-.52,1.9-.52a4.48,4.48,0,0,1,.59,0c1.8.19,3.74,2.84,5.21,3.46a7.76,7.76,0,0,0,3.39.71c1.58.1,1.77,3.41,3.23,3.51H221l.84,0,.78,0a3.26,3.26,0,0,1,1.58.33,15.31,15.31,0,0,0,3,.87c.9.29,3.69,2.8,4.93,3.29a29.47,29.47,0,0,1,3.62,1.56c1.46.77,1.67,2.47,3.36,3.05s1.76,1.86,3,2.44,1.47,1.17,3.05,1.55a22.4,22.4,0,0,1,3.61,1.17c1.47.58,1.69.78,3,1.36s2,2.36,3,2.36,1.58.8,2.15.9,1.69,1.26,2,1.36a2.66,2.66,0,0,1,.83.68h-.08V250"/></clipPath></defs><g class="cls-2"><g id="Layer_1" data-name="Layer 1"><g class="cls-3"><path class="cls-4" d="M259.82,250H0V42.75l0-5.22h0s0,0-.06,0H0v0a3.36,3.36,0,0,1,1.35-.35,1.32,1.32,0,0,1,.94.34,2.73,2.73,0,0,0,2.14.77c.57,0,.91.59,1.7.88s1.58.39,2.14.68a.56.56,0,0,0,.29,0A12.09,12.09,0,0,0,14.92,37a50,50,0,0,1,7-5l3-.48a16.07,16.07,0,0,0,1.86-.21,2.15,2.15,0,0,1,.85.21c1.13.49,3.16.2,4.29.59a.57.57,0,0,0,.18,0c1,0,1.82-3.13,1.82-3.13l1-3s2-3,3-3a10,10,0,0,0,3-1l1-1,1.54.06a1.17,1.17,0,0,0,.6.22c.38,0,.62-.32.82-.64s.37-.64.61-.64a.4.4,0,0,1,.23.09c.79.58,1.13,1.06,1.81,1.06h1.8c.81,0,1.34.39,2,.39a2,2,0,0,0,.56-.09c1-.3,1-.19,2.26-.58.93-.29.52-.75.89-.75a2.64,2.64,0,0,1,.69.17c1.46.48,2.37,0,3,.77s1.13,0,1.7,1,.56.58,1.35,1.35a3.12,3.12,0,0,0,1.36,1,6.12,6.12,0,0,0,2.14,1.07c1.24.29,1.47.19,2.37.38a2.45,2.45,0,0,0,.55,0l.67,0c.23,0,.47,0,.71,0a3.14,3.14,0,0,1,1.46.3,30.48,30.48,0,0,0,2.82,1.45c1.05.45,1.42.91,2.06.91a2,2,0,0,0,.65-.13c.75-.26,1.15-.6,1.64-.6a1.48,1.48,0,0,1,.84.31,4.26,4.26,0,0,0,2.14.78,3.74,3.74,0,0,0,.74.08c.41,0,.73-.08,1.41-.08,1,0,1.13.08,2.6.08.82,0,1.25.16,1.65.16a1.65,1.65,0,0,0,1-.44c.87-.66.75-1.11,1.25-1.11a1.47,1.47,0,0,1,.33,0c.91.2,2.37,0,3.17.49s.79.68,1.46,1a5.21,5.21,0,0,0,2.26.63h4.74c.6,0,.9-.17,1.27-.17a1.42,1.42,0,0,1,.65.17.92.92,0,0,0,.42.1,2.31,2.31,0,0,0,.67-.15,2.3,2.3,0,0,1,.65-.14.78.78,0,0,1,.52.19c.67.58.9.49,1.12.78s.46.48,1.7,1a5.81,5.81,0,0,0,2.59.49c.46,0,.76,0,1,0,.48,0,.73,0,1.49,0a5.19,5.19,0,0,1,2.37.38,1.8,1.8,0,0,0,.65.12,3.51,3.51,0,0,0,.79-.12,4.27,4.27,0,0,1,.84-.11,2.85,2.85,0,0,1,.77.11,4.15,4.15,0,0,0,1.29.21c.49,0,.91-.09,1.64-.09,1.24,0,1.35.09,2.71.09h1a4.08,4.08,0,0,0,1.72-.31,6.08,6.08,0,0,1,2.26-.59c1.46-.19,1.58-.19,2.59-.39s1.47-.38,2.26-.48a15.5,15.5,0,0,0,1.8-.29c.91-.2,1.25-.68,2.15-.68a12.58,12.58,0,0,0,2-.2c.79-.09.79-.48,2.26-.77a16.06,16.06,0,0,0,2.82-.68,6.22,6.22,0,0,1,3-.59c1.69,0,2.14-.19,3.61-.29s1.81-.68,3-1a14.34,14.34,0,0,1,2.93-.49c1.36-.09,1.81-.29,3.05-.29a8.9,8.9,0,0,0,3.16-.48c1.24-.39,1.58-.68,2.48-.88a27.71,27.71,0,0,1,4.41-1.07c1.57-.09,2.14-.48,3.38-.48h.85a6.82,6.82,0,0,0,2.2-.4c1.69-.49,2-.06,3.39-.78s1.91-2.14,3.16-2.91a25.26,25.26,0,0,1,3.49-1.95,19.51,19.51,0,0,1,3.16-1.16c.57,0,1.59-.29,2.49-.29.6,0,.95-.05,1.52-.05.28,0,.62,0,1.07.05s.77.06,1.06.06a2.39,2.39,0,0,0,1.76-.74c1-.88.57-.88,1.59-1.66a1.69,1.69,0,0,1,1.07-.32h.36l.36,0a1.26,1.26,0,0,0,1.14-.53c.79-1.07,1.47-2.63,2.48-2.63s.74-.52,1.9-.52a4.48,4.48,0,0,1,.59,0c1.8.19,3.74,2.84,5.21,3.46a7.76,7.76,0,0,0,3.39.71c1.58.1,1.77,3.41,3.23,3.51H221l.84,0,.78,0a3.26,3.26,0,0,1,1.58.33,15.31,15.31,0,0,0,3,.87c.9.29,3.69,2.8,4.93,3.29a29.47,29.47,0,0,1,3.62,1.56c1.46.77,1.67,2.47,3.36,3.05s1.76,1.86,3,2.44,1.47,1.17,3.05,1.55a22.4,22.4,0,0,1,3.61,1.17c1.47.58,1.69.78,3,1.36s2,2.36,3,2.36,1.58.8,2.15.9,1.69,1.26,2,1.36a2.66,2.66,0,0,1,.83.68h-.08V250"/><image class="cls-5" width="300" height="302" transform="translate(0 -1.88) scale(0.87)" xlink:href="PROPOSTA%20P-%20VALIDAC%CC%A7A%CC%83O/links/Screen%20Shot%202021-02-03%20at%2021.02.47%20copy.jpeg"/></g></g></g></svg>