<svg width="708" height="122" viewBox="0 0 708 122" fill="none" xmlns="http://www.w3.org/2000/svg">
<g clip-path="url(#clip0)">
<path d="M189 25.55H188.5V26.05V79.15V79.65H189H339.91H340.41V79.15V27.62V27.5122L340.366 27.414C340.102 26.8317 339.64 26.3628 339.062 26.0916C338.908 26.0111 338.85 25.9554 338.819 25.916C338.784 25.8714 338.75 25.8075 338.695 25.6484C338.678 25.5976 338.66 25.5415 338.639 25.4796C338.53 25.1449 338.366 24.6408 337.972 23.8959C337.745 23.4681 337.499 23.1257 337.179 22.9711C336.997 22.883 336.806 22.8626 336.621 22.9037C336.451 22.9416 336.315 23.0256 336.217 23.0987C336.118 23.1718 336.028 23.2576 335.957 23.3249L335.934 23.3467C335.867 23.4106 335.813 23.4623 335.756 23.5093C335.63 23.6144 335.567 23.63 335.53 23.63H333.62C333.282 23.63 333.035 23.8405 332.906 23.9603C332.834 24.0265 332.765 24.0992 332.707 24.1601L332.7 24.1681C332.636 24.235 332.583 24.2901 332.531 24.3385C332.479 24.3866 332.44 24.4171 332.409 24.4358C332.392 24.446 332.381 24.4507 332.375 24.4527C332.359 24.4472 332.32 24.4284 332.257 24.3704C332.001 24.1372 331.71 23.9917 331.381 24.0368C331.145 24.0692 330.941 24.2098 330.865 24.262C330.856 24.2685 330.849 24.2736 330.843 24.277C330.834 24.2828 330.826 24.2877 330.82 24.2917C330.782 24.2672 330.706 24.2083 330.588 24.0722C330.448 23.911 330.28 23.7632 330.076 23.6878C329.844 23.6019 329.61 23.6265 329.41 23.7409C329.237 23.8404 329.119 23.9908 329.041 24.1114C328.959 24.2375 328.89 24.379 328.833 24.5078C328.787 24.6087 328.748 24.7007 328.713 24.7857C328.645 24.9446 328.589 25.0793 328.519 25.2035C328.485 25.263 328.459 25.3002 328.44 25.3222C328.116 25.3435 327.866 25.5107 327.692 25.6688C327.527 25.8174 327.383 26.0027 327.273 26.1424C327.262 26.1575 327.25 26.1721 327.239 26.1861C327.144 26.3073 327.08 26.382 327.034 26.4268C326.885 26.3571 326.717 26.3317 326.544 26.3685C326.353 26.4091 326.208 26.5145 326.107 26.6107C325.914 26.7944 325.761 27.0619 325.645 27.2815C325.584 27.3976 325.533 27.4996 325.485 27.5963C325.423 27.719 325.366 27.8333 325.298 27.9572C325.178 28.1736 325.098 28.2713 325.059 28.3009C324.838 28.4675 324.66 28.7341 324.513 28.9972C324.359 29.2745 324.204 29.6133 324.05 29.9818C323.875 30.3994 323.687 30.8879 323.492 31.3941C323.35 31.7649 323.203 32.1453 323.056 32.5143L323.052 32.5233L323.049 32.5325C322.657 33.6345 322.104 34.6724 321.408 35.6124L321.391 35.635L321.377 35.6594C320.92 36.4484 320.318 37.1433 319.601 37.707L319.6 37.7079C319.141 38.0707 318.89 38.3558 318.665 38.611C318.648 38.6304 318.631 38.6497 318.614 38.6688C318.39 38.9227 318.167 39.1635 317.708 39.4942L317.7 39.5002L317.691 39.5066C317.09 39.978 316.395 40.3147 315.653 40.4939L315.63 40.4994L315.608 40.507C315.162 40.66 314.908 40.66 314.636 40.66H314.63C314.31 40.66 313.957 40.6605 313.423 40.8765C313.073 41.0178 312.822 41.2853 312.634 41.5532C312.445 41.8214 312.288 42.1371 312.148 42.4283C312.124 42.4795 312.099 42.5299 312.076 42.5797C311.958 42.8261 311.848 43.0556 311.727 43.2678C311.581 43.5219 311.439 43.7114 311.289 43.8366C311.004 44.0756 310.799 44.3868 310.641 44.6815C310.512 44.9227 310.4 45.1823 310.302 45.4091C310.281 45.4576 310.26 45.5046 310.241 45.5496C310.12 45.8251 310.025 46.0199 309.93 46.1464C309.885 46.2055 309.855 46.2295 309.842 46.2379C309.84 46.2388 309.839 46.2395 309.838 46.24C309.47 46.2406 309.207 46.4147 309.033 46.5746C308.991 46.6129 308.953 46.6519 308.919 46.689C308.896 46.644 308.872 46.5927 308.846 46.5343C308.387 45.5174 307.72 43.5868 307.183 42.0323C306.972 41.4204 306.781 40.8669 306.63 40.4501C306.491 40.0639 306.36 39.8029 306.23 39.6007C306.131 39.4479 306.029 39.3267 305.957 39.2409C305.937 39.2181 305.92 39.1978 305.906 39.18C305.791 39.0385 305.65 38.8525 305.469 37.9967C305.419 37.7608 305.368 37.5636 305.312 37.4035C305.259 37.251 305.189 37.0951 305.086 36.9708C304.972 36.8335 304.784 36.7002 304.53 36.7149C304.316 36.7272 304.161 36.842 304.082 36.9094C303.994 36.9841 303.916 37.0743 303.855 37.1473C303.826 37.182 303.797 37.2184 303.769 37.2526L303.761 37.2633C303.73 37.3016 303.7 37.338 303.67 37.3738C303.542 37.527 303.447 37.616 303.369 37.6567C303.243 37.7224 303.114 37.7995 303.017 37.8577C302.976 37.8824 302.941 37.9037 302.914 37.9192C302.801 37.9836 302.745 38.0044 302.7 38.012C302.626 38.0245 302.437 38.025 301.86 37.6731C301.544 37.4801 301.198 37.3382 300.856 37.4236C300.486 37.516 300.322 37.8212 300.249 37.9714C300.224 38.0223 300.195 38.0897 300.172 38.1412C300.163 38.1635 300.154 38.1829 300.148 38.1967C300.119 38.2605 300.099 38.2969 300.083 38.32L300.043 38.32L299.996 38.3289C299.781 38.3699 299.559 38.3449 299.359 38.257C299.159 38.1691 298.99 38.0226 298.875 37.8367L298.858 37.8086L298.837 37.7831C298.662 37.5701 298.461 37.3923 298.21 37.3171C297.939 37.2362 297.708 37.3027 297.55 37.3691C297.478 37.3992 297.409 37.4349 297.357 37.462L297.349 37.4658C297.291 37.4961 297.244 37.5197 297.197 37.5403C297.109 37.5785 297.031 37.6 296.94 37.6C296.748 37.6 296.548 37.5061 296.221 37.2824C296.169 37.2469 296.114 37.208 296.056 37.1669C295.781 36.9732 295.435 36.729 295.035 36.5596C294.579 36.3664 294.19 36.2855 293.813 36.491C293.686 36.5603 293.574 36.6583 293.501 36.7226C293.493 36.7302 293.485 36.7373 293.477 36.7438C293.398 36.8126 293.321 36.8766 293.22 36.9403C293.219 36.9382 293.217 36.9361 293.215 36.9339C293.168 36.8744 293.126 36.8134 293.071 36.7331C293.033 36.6776 292.989 36.6129 292.932 36.5332C292.808 36.358 292.651 36.1536 292.444 35.9464L292.444 35.9463L292.434 35.9367C291.7 35.2429 291.014 34.501 290.379 33.7157L290.374 33.7102C289.401 32.5403 287.102 30.3558 286.576 29.8656C286.047 28.9299 285.681 27.9111 285.492 26.8524L285.488 26.829L285.482 26.8061C285.429 26.6151 285.376 26.4556 285.319 26.3254C285.265 26.1994 285.194 26.0701 285.091 25.9654C284.974 25.8462 284.828 25.772 284.664 25.7534C284.531 25.7382 284.413 25.7652 284.362 25.7767L284.359 25.7775C284.248 25.8027 284.245 25.8014 284.239 25.7994C284.239 25.7991 284.238 25.7989 284.237 25.7987C284.226 25.7957 284.126 25.7654 283.931 25.5357C283.792 25.3725 283.615 25.2134 283.391 25.1467C283.125 25.0672 282.881 25.1432 282.705 25.2857C282.555 25.4072 282.459 25.5701 282.398 25.695C282.332 25.8279 282.278 25.9733 282.234 26.1015C282.211 26.1684 282.192 26.2242 282.175 26.2763C282.169 26.2923 282.164 26.3079 282.159 26.3234C282.026 26.2435 281.881 26.1956 281.724 26.1828C281.487 26.1638 281.265 26.2341 281.141 26.2737C281.131 26.2769 281.121 26.2799 281.112 26.2826C280.961 26.3299 280.895 26.3438 280.838 26.3399C280.805 26.3376 280.733 26.3272 280.609 26.2126C280.37 25.9919 280.115 25.8397 279.832 25.7896C279.543 25.7381 279.29 25.8056 279.085 25.9042C278.894 25.9958 278.72 26.1267 278.585 26.228L278.581 26.2311L278.575 26.2355C278.429 26.3456 278.312 26.4337 278.188 26.5026C277.905 26.6592 277.681 26.7375 277.413 26.8244C277.389 26.8323 277.364 26.8403 277.339 26.8485C277.081 26.9313 276.78 27.0286 276.393 27.205C275.937 27.4128 275.654 27.6284 275.34 27.9285C275.225 28.0376 275.103 28.1616 274.969 28.2978C274.929 28.3382 274.889 28.3797 274.847 28.4222C274.66 28.611 274.439 28.8313 274.158 29.0955C273.881 29.3555 273.715 29.4673 273.619 29.5113C273.592 29.5234 273.576 29.5279 273.568 29.5296C273.529 29.5148 273.485 29.4822 273.317 29.3597C273.168 29.2515 272.966 29.1104 272.689 28.9972C272.239 28.8132 271.838 28.9829 271.56 29.2035C271.294 29.4152 271.071 29.7219 270.894 30.0029C270.746 30.2365 270.608 30.4876 270.491 30.7007C270.465 30.7485 270.44 30.7944 270.416 30.8378C270.348 30.9607 270.29 31.0618 270.24 31.1408C270.191 31.2176 270.166 31.2471 270.161 31.2519C270.161 31.2526 270.161 31.2528 270.161 31.2526C270.057 31.3488 269.976 31.472 269.916 31.5743C269.852 31.6841 269.789 31.8095 269.73 31.9363C269.67 32.0641 269.598 32.2266 269.528 32.3874C269.471 32.5164 269.415 32.6442 269.365 32.752C269.239 33.0282 269.121 33.2595 269.011 33.4169C268.971 33.4729 268.94 33.5086 268.919 33.53H267.55C267.148 33.53 266.897 33.803 266.758 34.012C266.615 34.2266 266.502 34.5033 266.404 34.7622C266.367 34.8587 266.331 34.9559 266.295 35.0533C266.123 35.52 265.949 35.989 265.69 36.388C265.335 36.9357 265.051 37.5642 264.801 38.1174C264.787 38.1481 264.773 38.1785 264.76 38.2086C264.487 38.8112 264.263 39.286 264.021 39.5863C263.967 39.6524 263.927 39.6699 263.852 39.6822C263.801 39.6906 263.741 39.6942 263.649 39.6978L263.625 39.6987C263.544 39.7017 263.439 39.7057 263.332 39.7185C263.076 39.7491 262.782 39.8318 262.493 40.0732C262.216 40.3046 261.981 40.6516 261.77 41.1433C261.584 41.5779 261.457 41.7694 261.379 41.8549C261.329 41.9093 261.311 41.9137 261.261 41.9256L261.259 41.9262C261.249 41.9285 261.237 41.9311 261.222 41.9342C261.125 41.9542 260.925 41.9959 260.722 42.1224C260.492 42.2659 260.279 42.4959 260.051 42.8515C260 42.6941 259.946 42.5042 259.882 42.2778C259.855 42.1834 259.827 42.0826 259.796 41.9752C259.667 41.5277 259.506 40.9988 259.285 40.4369C259.076 39.906 258.945 39.5315 258.851 39.2509C258.83 39.1879 258.81 39.1277 258.79 39.0701C258.728 38.8815 258.674 38.7213 258.619 38.5858C258.451 38.1753 258.241 37.9339 257.747 37.4003C257.38 37.0041 256.898 36.8604 256.431 36.8464C255.972 36.8327 255.495 36.9417 255.067 37.0861C254.208 37.3755 253.417 37.8517 253.12 38.0331C252.657 38.3157 252.497 38.7475 252.379 39.1178C252.359 39.179 252.34 39.2404 252.321 39.3024C252.22 39.6286 252.115 39.9708 251.891 40.3803C251.606 40.9023 251.487 40.9596 251.448 40.9781C251.414 40.9944 251.387 41.0021 251.322 41.0208C251.294 41.0287 251.259 41.0386 251.215 41.0519C251.079 41.0921 250.912 41.1495 250.708 41.2626C250.625 41.3086 250.411 41.3331 250.037 41.0972C249.687 40.8759 249.311 40.4876 249.018 40.0021C248.832 39.6921 248.604 39.44 248.299 39.3327C247.973 39.2179 247.686 39.3115 247.494 39.4078C247.399 39.4554 247.311 39.5113 247.241 39.5578C247.214 39.575 247.191 39.5904 247.17 39.6048C247.127 39.6337 247.09 39.658 247.05 39.683C246.928 39.7586 246.89 39.76 246.89 39.76H238.232C238.23 39.7589 238.196 39.7526 238.121 39.7211C238.03 39.6828 237.912 39.6227 237.771 39.5413C237.489 39.379 237.151 39.154 236.801 38.9101C236.503 38.7016 236.204 38.4849 235.934 38.2886C235.889 38.2562 235.845 38.2242 235.802 38.193C235.508 37.9798 235.239 37.786 235.07 37.6831C234.94 37.6034 234.744 37.509 234.541 37.4108C234.475 37.3788 234.408 37.3464 234.342 37.3139C234.052 37.1717 233.726 37.0025 233.402 36.7934C232.747 36.3714 232.146 35.8166 231.87 35.0587C231.529 34.1254 231.275 33.7513 230.946 33.4864C230.886 33.4386 230.825 33.3952 230.777 33.3608C230.768 33.3549 230.76 33.3493 230.753 33.3439C230.698 33.3045 230.651 33.2702 230.603 33.229C230.512 33.1508 230.394 33.0297 230.236 32.7926C229.957 32.3747 229.54 32.1881 229.135 32.1164C228.741 32.0465 228.32 32.0774 227.957 32.1241C227.773 32.1478 227.593 32.1773 227.431 32.2039L227.43 32.204C227.264 32.2312 227.122 32.2546 226.996 32.2699C226.876 32.2846 226.795 32.2888 226.743 32.2864C226.544 32.1335 226.322 32.089 226.114 32.1117C225.935 32.1312 225.768 32.2027 225.675 32.2424C225.669 32.2451 225.663 32.2476 225.658 32.25C225.602 32.2736 225.565 32.2892 225.532 32.3008C225.529 32.3017 225.526 32.3026 225.524 32.3034C225.353 32.1637 225.172 32.0975 225.015 32.0603C224.921 32.0379 224.788 32.0187 224.695 32.0053C224.659 32 224.628 31.9956 224.609 31.9922C224.504 31.9742 224.429 31.9524 224.361 31.9158C224.297 31.8808 224.215 31.8196 224.123 31.6936C224.018 31.5513 223.824 31.3606 223.527 31.3606C223.247 31.3606 223.06 31.5348 222.969 31.638C222.786 31.847 222.645 32.1773 222.541 32.4304C222.504 32.5202 222.47 32.6065 222.437 32.6889C222.362 32.8773 222.295 33.0453 222.226 33.1886C222.201 33.239 222.18 33.2775 222.163 33.3061C221.999 33.3355 221.854 33.4003 221.741 33.4593C221.605 33.5302 221.466 33.6209 221.347 33.6979C221.33 33.7089 221.314 33.7196 221.298 33.7299C221.158 33.8203 221.04 33.8927 220.93 33.9439C220.82 33.9949 220.748 34.01 220.7 34.01C220.273 34.01 219.878 34.1532 219.541 34.5427C219.236 34.8947 218.997 35.4283 218.772 36.1639C218.737 36.2792 218.704 36.368 218.674 36.4355C218.641 36.4037 218.602 36.3644 218.556 36.3162C218.548 36.308 218.539 36.2995 218.531 36.2906C218.419 36.1752 218.262 36.0127 218.091 35.8964L218.091 35.8963L218.083 35.8913C217.547 35.5414 217.08 35.096 216.705 34.5771L216.683 34.5459L216.656 34.5184C216.046 33.9016 215.637 33.1147 215.482 32.2611C215.406 31.8372 215.255 31.5147 214.976 31.3074C214.845 31.2101 214.711 31.1582 214.604 31.1252C214.549 31.1084 214.457 31.0854 214.398 31.0706C214.374 31.0647 214.355 31.06 214.347 31.0576C214.234 31.027 214.181 31.0002 214.122 30.9261C214.045 30.8287 213.931 30.6077 213.842 30.1033L213.785 29.7748L213.459 29.702C213.233 29.6516 213.015 29.6856 212.825 29.7906C212.648 29.8884 212.521 30.033 212.431 30.1672C212.254 30.4281 212.136 30.7689 212.048 31.0486C212.015 31.1527 211.986 31.2489 211.96 31.3383C211.905 31.5188 211.86 31.671 211.808 31.8019C211.801 31.8195 211.794 31.8355 211.788 31.85H210.384C210.379 31.8463 210.373 31.8418 210.366 31.8362C210.309 31.7911 210.228 31.7071 210.123 31.5691C209.914 31.2948 209.664 30.8755 209.383 30.3232C208.824 29.2236 208.176 27.6695 207.519 25.8778C207.35 25.4146 207.19 25.0518 207.039 24.7758C206.892 24.5085 206.732 24.2839 206.545 24.1375C206.338 23.9756 206.053 23.8822 205.756 24.0074C205.515 24.1095 205.374 24.3175 205.296 24.4609C205.132 24.7624 205.04 25.1698 204.989 25.4551C204.983 25.4875 204.977 25.5192 204.972 25.55H189ZM332.386 24.4544C332.386 24.4549 332.383 24.455 332.378 24.4534C332.383 24.4532 332.386 24.454 332.386 24.4544ZM308.7 46.9346C308.699 46.935 308.7 46.9338 308.703 46.9315C308.701 46.9334 308.7 46.9344 308.7 46.9346ZM282.016 26.6808C282.016 26.6803 282.018 26.6761 282.024 26.6694C282.018 26.6779 282.016 26.6812 282.016 26.6808ZM282.503 26.6303C282.507 26.6341 282.509 26.6364 282.509 26.6366C282.509 26.6369 282.507 26.635 282.503 26.6303ZM259.819 43.1571C259.819 43.1569 259.821 43.1555 259.824 43.1532C259.821 43.1561 259.819 43.1572 259.819 43.1571ZM226.704 32.2822C226.704 32.2821 226.707 32.2825 226.711 32.2836C226.706 32.2829 226.704 32.2823 226.704 32.2822ZM222.117 33.3729C222.117 33.3727 222.119 33.3701 222.123 33.366C222.119 33.3712 222.117 33.3732 222.117 33.3729ZM210.405 31.8634C210.405 31.8634 210.404 31.8631 210.403 31.8621C210.404 31.8629 210.405 31.8633 210.405 31.8634Z" fill="#087B27" stroke="black"/>
<path d="M237.488 104.217C239.135 104.217 240.453 103.379 241.109 101.832L239.732 101.27C239.287 102.383 238.555 102.805 237.488 102.805C235.713 102.805 234.957 101.545 234.957 99.8988C234.957 98.3636 235.713 97.1039 237.465 97.1039C238.543 97.1039 239.398 97.5258 239.709 98.6156L241.098 98.0648C240.43 96.5179 239.117 95.6859 237.477 95.6859C234.752 95.6859 233.48 97.6898 233.48 99.9574C233.48 102.231 234.764 104.217 237.488 104.217ZM245.785 104.217C248.521 104.217 249.781 102.213 249.781 99.9574C249.781 97.7015 248.521 95.6976 245.785 95.6976C243.049 95.6976 241.789 97.7015 241.789 99.9574C241.789 102.213 243.049 104.217 245.785 104.217ZM245.785 102.899C244.01 102.899 243.359 101.522 243.359 99.9574C243.359 98.3988 244.01 97.0219 245.785 97.0219C247.561 97.0219 248.211 98.3988 248.211 99.9574C248.211 101.522 247.561 102.899 245.785 102.899ZM256.285 95.8207V101.61L252.805 95.8207H251.328V104.1H252.758V98.2816L256.227 104.1H257.715V95.8207H256.285ZM261.494 104.1H262.982V97.1508H265.572V95.8207H258.898V97.1508H261.494V104.1ZM266.762 104.1H272.27V102.694H268.25V100.643H271.994V99.2777H268.25V97.1859H272.27V95.8207H266.762V104.1ZM273.178 104.1H274.953L276.957 100.953L278.984 104.1H280.76L277.988 99.9574L280.748 95.8207H278.973L276.969 99.014L274.965 95.8207H273.189L275.949 99.9574L273.178 104.1ZM283.654 104.1H285.143V97.1508H287.732V95.8207H281.059V97.1508H283.654V104.1ZM292.098 104.217C294.834 104.217 296.094 102.213 296.094 99.9574C296.094 97.7015 294.834 95.6976 292.098 95.6976C289.361 95.6976 288.102 97.7015 288.102 99.9574C288.102 102.213 289.361 104.217 292.098 104.217ZM292.098 102.899C290.322 102.899 289.672 101.522 289.672 99.9574C289.672 98.3988 290.322 97.0219 292.098 97.0219C293.873 97.0219 294.523 98.3988 294.523 99.9574C294.523 101.522 293.873 102.899 292.098 102.899Z" fill="black"/>
<path d="M241.023 110.821V116.61L237.543 110.821H236.066V119.1H237.496V113.282L240.965 119.1H242.453V110.821H241.023ZM243.59 119.1H245.213L245.881 117.301H249.051L249.713 119.1H251.318L248.02 110.821H246.906L243.59 119.1ZM246.35 116.03L247.469 113.006L248.582 116.03H246.35ZM253.322 119.1H254.811V112.151H257.4V110.821H250.727V112.151H253.322V119.1ZM261.602 119.217C263.822 119.217 264.771 117.899 264.771 115.813V110.821H263.283V115.702C263.283 117.037 262.938 117.782 261.602 117.782C260.271 117.782 259.92 117.037 259.92 115.702V110.821H258.438V115.871C258.438 117.899 259.381 119.217 261.602 119.217ZM266.711 119.1H268.199V115.561H268.715H269.195L271.234 119.1H272.939L270.637 115.414C271.574 115.092 272.254 114.301 272.254 113.258C272.254 111.705 270.936 110.821 269.389 110.821H266.711V119.1ZM268.211 114.348V112.151H269.4C270.25 112.151 270.783 112.596 270.783 113.282C270.783 113.903 270.314 114.313 269.523 114.348H268.211ZM274.141 119.1H279.648V117.694H275.629V115.643H279.373V114.278H275.629V112.186H279.648V110.821H274.141V119.1ZM287.547 110.821H281.137V112.186H285.49L280.873 118.069V119.1H287.547V117.758H282.947L287.547 111.899V110.821ZM288.051 119.1H289.674L290.342 117.301H293.512L294.174 119.1H295.779L292.48 110.821H291.367L288.051 119.1ZM290.811 116.03L291.93 113.006L293.043 116.03H290.811Z" fill="black"/>
<path d="M540.7 25.98H557.11C557.11 25.98 557.44 22.38 558.75 25.98C560.06 29.58 561.38 32.2601 562 32.2601H563.65C564.14 32.2601 564.7 27.9401 565.02 30.1001C565.34 32.2601 566.4 30.8201 566.67 32.2601C566.84 33.2239 567.305 34.1114 568 34.8001C568.407 35.3812 568.923 35.8771 569.52 36.2601C570.04 36.6201 570.52 37.7001 570.96 36.2601C571.4 34.8201 571.81 34.4601 572.41 34.4601C573.01 34.4601 573.59 33.7401 574.04 33.7401C574.49 33.7401 574.9 31.2201 575.42 31.9401C575.94 32.6601 576.54 32.3001 576.93 32.6601C577.32 33.0201 577.79 32.3001 578.18 32.6601C578.57 33.0201 580.81 31.9401 581.53 33.0201C582.25 34.1001 582.45 33.3701 583.1 35.1801C583.75 36.9901 585.92 37.7001 586.52 38.0601C587.12 38.42 589.34 40.22 589.93 40.22H598.59C599.18 40.22 599.59 39.14 600.3 40.22C601.01 41.3 602.01 42.0201 602.66 41.6601C603.31 41.3001 603.45 41.66 604.04 40.58C604.63 39.5 604.5 38.7801 605.09 38.4201C605.68 38.0601 608.09 36.62 609.09 37.7C610.09 38.78 609.68 38.42 610.54 40.58C611.4 42.74 611.32 44.4501 612.18 43.1C613.04 41.75 613.18 43.1 613.95 41.3001C614.72 39.5001 615.55 40.58 616.13 39.86C616.71 39.14 617.13 37.7001 617.82 36.6201C618.51 35.5401 618.67 33.9901 619.27 33.9901H620.71C621.3 33.9901 621.83 31.9401 622.22 31.5801C622.61 31.2201 623.34 29.0601 624.22 29.4201C625.1 29.7801 625.07 30.5001 626.22 29.4201C627.37 28.3401 627.54 27.9801 628.32 27.6201C629.1 27.2601 629.51 27.26 630.16 26.9C630.81 26.5401 631.21 25.8201 632 26.5401C632.79 27.2601 633.24 26.18 633.84 26.9C634.44 27.62 634.36 24.74 635.28 25.8201C636.2 26.9001 636.33 25.46 636.72 26.9C636.933 28.0375 637.331 29.1321 637.9 30.14C638.3 30.5 640.73 32.8001 641.71 33.9901C642.364 34.7878 643.065 35.5458 643.81 36.2601C644.53 36.9801 644.6 37.7001 645.19 37.3401C645.78 36.9801 645.72 36.6201 646.57 36.9801C647.42 37.3401 647.95 38.0601 648.67 38.0601C649.39 38.0601 649.59 37.34 650.18 38.0601C650.348 38.3319 650.595 38.5463 650.888 38.6749C651.181 38.8034 651.506 38.8401 651.82 38.7801C652.61 38.7801 652.15 37.34 653.33 38.0601C654.51 38.7801 654.64 38.42 655.33 38.0601C656.02 37.7001 656.33 36.26 656.71 38.0601C657.09 39.8601 657.36 39.14 657.89 40.58C658.42 42.0201 659.46 45.26 660.12 46.7C660.78 48.14 660.77 46.7 661.56 46.7C662.35 46.7 662.48 44.9 663.33 44.18C664.18 43.46 664.45 41.6601 665.33 41.3001C666.21 40.9401 666.45 41.3001 667.5 40.9401C668.312 40.744 669.073 40.3757 669.73 39.86C670.73 39.14 670.73 38.7801 671.64 38.0601C672.404 37.4544 673.048 36.7117 673.54 35.8701C674.262 34.8896 674.835 33.8079 675.24 32.6601C675.97 30.8601 676.56 29.0601 677.08 28.66C677.6 28.26 678 26.5001 678.59 26.8601C679.18 27.2201 679.51 25.7801 680.23 25.7801C680.95 25.7801 681.02 23.3001 681.94 24.3601C682.86 25.4201 682.86 23.9801 683.65 24.7001C684.44 25.4201 684.83 24.0901 685.35 24.0901H687.26C688.11 24.0901 688.37 22.4101 689.26 24.0901C690.15 25.7701 689.79 26.0901 690.58 26.5001C691.052 26.7236 691.431 27.1058 691.65 27.58V79.0801H540.7V25.98Z" fill="#DAEBDF"/>
<path d="M540 60.4401V79.49H691.66V60.4401H540Z" fill="#087B27"/>
<path d="M540.7 25.48H540.2V25.98V79.0801V79.5801H540.7H691.65H692.15V79.0801V27.58V27.4701L692.104 27.3703C691.837 26.7928 691.377 26.3268 690.803 26.0525C690.648 25.9713 690.589 25.9149 690.556 25.8742C690.519 25.8286 690.485 25.7638 690.429 25.6054C690.411 25.553 690.391 25.4947 690.37 25.4301C690.259 25.0964 690.093 24.5945 689.702 23.856C689.475 23.4282 689.229 23.0858 688.909 22.9312C688.727 22.8431 688.536 22.8227 688.351 22.8637C688.181 22.9016 688.045 22.9857 687.947 23.0588C687.848 23.1319 687.758 23.2177 687.687 23.2849L687.664 23.3068C687.597 23.3707 687.543 23.4224 687.486 23.4694C687.36 23.5745 687.297 23.5901 687.26 23.5901H685.35C685.012 23.5901 684.764 23.8006 684.636 23.9204C684.564 23.9866 684.495 24.0593 684.437 24.1201L684.43 24.1282C684.366 24.1951 684.313 24.2502 684.261 24.2986C684.209 24.3467 684.17 24.3772 684.139 24.3959C684.122 24.4061 684.111 24.4108 684.105 24.4128C684.089 24.4073 684.05 24.3885 683.987 24.3305C683.731 24.0972 683.44 23.9518 683.111 23.9969C682.875 24.0292 682.671 24.1699 682.595 24.2221C682.586 24.2286 682.579 24.2337 682.573 24.237C682.564 24.2429 682.556 24.2478 682.55 24.2518C682.512 24.2273 682.436 24.1684 682.318 24.0323C682.177 23.8705 682.009 23.7228 681.805 23.6475C681.573 23.5621 681.339 23.5869 681.139 23.6998C680.966 23.7983 680.847 23.9476 680.767 24.0683C680.684 24.1945 680.614 24.3359 680.555 24.4649C680.508 24.5691 680.467 24.6634 680.43 24.7505C680.363 24.9066 680.306 25.0393 680.236 25.1629C680.203 25.2225 680.176 25.2602 680.158 25.2825C679.835 25.3049 679.587 25.4734 679.415 25.6305C679.254 25.7782 679.111 25.9624 679.003 26.1015C678.991 26.1173 678.979 26.1326 678.967 26.1471C678.873 26.2676 678.81 26.3421 678.764 26.3868C678.614 26.3169 678.446 26.292 678.274 26.3284C678.084 26.3686 677.938 26.4728 677.836 26.5685C677.641 26.7515 677.486 27.0183 677.368 27.2387C677.301 27.3633 677.248 27.4681 677.198 27.5672C677.139 27.6837 677.084 27.7924 677.015 27.9165C676.894 28.1343 676.814 28.2336 676.775 28.2637C676.558 28.4306 676.383 28.6968 676.238 28.9589C676.085 29.2356 675.932 29.5738 675.778 29.9418C675.613 30.3339 675.434 30.7957 675.248 31.2754C675.094 31.6719 674.935 32.0806 674.777 32.4721L674.772 32.4827L674.769 32.4935C674.379 33.595 673.83 34.6329 673.137 35.5737L673.122 35.5949L673.108 35.6178C672.648 36.4058 672.045 37.1012 671.329 37.6683C670.871 38.0309 670.62 38.3159 670.395 38.5711C670.378 38.5905 670.361 38.6098 670.344 38.6288C670.12 38.8828 669.897 39.1236 669.438 39.4543L669.429 39.4603L669.421 39.4666C668.82 39.938 668.125 40.2748 667.383 40.454L667.36 40.4595L667.338 40.4671C666.892 40.6201 666.633 40.6201 666.356 40.6201H666.351C666.029 40.6201 665.671 40.6202 665.141 40.8373C664.794 40.979 664.545 41.2463 664.357 41.5129C664.169 41.7805 664.01 42.0955 663.869 42.3868C663.843 42.4395 663.818 42.4914 663.794 42.5426C663.676 42.7875 663.566 43.016 663.444 43.2276C663.297 43.4825 663.155 43.6728 663.007 43.7985C662.725 44.0375 662.522 44.3483 662.365 44.6422C662.238 44.88 662.127 45.1362 662.029 45.3609C662.007 45.412 661.986 45.4615 661.965 45.5087C661.844 45.7838 661.748 45.9788 661.652 46.1053C661.607 46.1646 661.576 46.1889 661.563 46.1976C661.561 46.1987 661.559 46.1995 661.558 46.2001C661.19 46.2006 660.926 46.3754 660.753 46.5371C660.715 46.5729 660.68 46.6094 660.648 46.6442C660.625 46.5997 660.601 46.5491 660.575 46.4917C660.132 45.5258 659.519 43.7444 659 42.2363C658.757 41.5291 658.534 40.8821 658.359 40.4073C658.217 40.0214 658.086 39.7613 657.955 39.5599C657.857 39.4095 657.756 39.289 657.685 39.2038C657.665 39.1802 657.648 39.1594 657.633 39.1414C657.52 39.0003 657.38 38.8144 657.199 37.9568C657.149 37.7209 657.098 37.5237 657.042 37.3635C656.989 37.2111 656.919 37.0552 656.816 36.9309C656.702 36.7936 656.514 36.6603 656.26 36.6749C656.046 36.6873 655.891 36.8021 655.812 36.8695C655.724 36.9442 655.646 37.0344 655.585 37.1073C655.556 37.1421 655.527 37.1785 655.499 37.2127L655.491 37.2233C655.46 37.2617 655.43 37.2981 655.4 37.3338C655.272 37.4871 655.177 37.5761 655.099 37.6168C654.973 37.6825 654.844 37.7596 654.747 37.8178C654.706 37.8425 654.671 37.8638 654.644 37.8793C654.531 37.9437 654.475 37.9645 654.43 37.972C654.356 37.9845 654.167 37.9851 653.59 37.6332C653.274 37.4402 652.928 37.2983 652.586 37.3837C652.216 37.4761 652.052 37.7813 651.979 37.9315C651.954 37.9824 651.925 38.0497 651.902 38.1012C651.893 38.1236 651.884 38.143 651.878 38.1567C651.849 38.2206 651.829 38.257 651.813 38.2801L651.773 38.2801L651.726 38.2889C651.511 38.33 651.289 38.3049 651.089 38.2171C650.889 38.1292 650.72 37.9826 650.605 37.7968L650.588 37.7687L650.567 37.7431C650.392 37.5302 650.191 37.3524 649.94 37.2772C649.669 37.1963 649.438 37.2628 649.28 37.3292C649.208 37.3593 649.139 37.395 649.087 37.4221L649.079 37.4258C649.021 37.4562 648.974 37.4797 648.927 37.5004C648.839 37.5386 648.761 37.5601 648.67 37.5601C648.478 37.5601 648.278 37.4662 647.951 37.2424C647.899 37.207 647.844 37.1681 647.786 37.127C647.511 36.9332 647.165 36.6891 646.765 36.5196C646.309 36.3265 645.92 36.2456 645.543 36.4511C645.416 36.5204 645.304 36.6184 645.231 36.6827C645.223 36.6902 645.215 36.6973 645.207 36.7039C645.127 36.7734 645.05 36.8381 644.947 36.9024C644.944 36.8989 644.941 36.8952 644.938 36.8914C644.89 36.8313 644.846 36.7684 644.789 36.6855C644.751 36.6311 644.708 36.5682 644.653 36.4917C644.527 36.3172 644.37 36.1132 644.164 35.9065L644.164 35.9064L644.156 35.8992C643.426 35.1988 642.738 34.4554 642.097 33.673L642.096 33.6722C641.133 32.503 638.842 30.3254 638.297 29.8251C637.776 28.8842 637.409 27.8656 637.211 26.8081L637.208 26.7885L637.203 26.7693C637.151 26.5785 637.099 26.4192 637.044 26.2892C636.991 26.1635 636.921 26.0339 636.82 25.9285C636.704 25.8083 636.558 25.7325 636.393 25.7136C636.259 25.6982 636.141 25.7254 636.091 25.7368L636.087 25.7377C635.977 25.7628 635.974 25.7615 635.969 25.7595C635.969 25.7593 635.968 25.759 635.967 25.7588C635.956 25.7558 635.856 25.7255 635.661 25.4958C635.522 25.3329 635.345 25.1737 635.122 25.1069C634.855 25.0271 634.612 25.1034 634.436 25.2467C634.286 25.3686 634.191 25.5318 634.13 25.6565C634.064 25.7893 634.011 25.9347 633.967 26.0626C633.945 26.127 633.927 26.1819 633.91 26.2333C633.904 26.2515 633.898 26.2692 633.892 26.2868C633.757 26.205 633.61 26.1558 633.451 26.1429C633.214 26.1238 632.993 26.1945 632.869 26.2342C632.859 26.2374 632.85 26.2404 632.841 26.2431C632.691 26.2903 632.627 26.3039 632.571 26.3C632.538 26.2977 632.465 26.287 632.337 26.1705C632.096 25.9508 631.84 25.7995 631.558 25.7496C631.268 25.6983 631.016 25.7655 630.81 25.8647C630.62 25.9562 630.448 26.087 630.314 26.1879L630.309 26.1919L630.306 26.1942C630.159 26.3052 630.042 26.3936 629.918 26.4627C629.636 26.6184 629.409 26.6966 629.136 26.7838C629.114 26.791 629.092 26.7981 629.069 26.8054C628.806 26.889 628.499 26.9868 628.11 27.1661C627.66 27.3738 627.378 27.5887 627.064 27.8878C626.947 27.9989 626.822 28.1251 626.685 28.2642C626.647 28.3024 626.608 28.3415 626.569 28.3816C626.381 28.5706 626.159 28.7911 625.878 29.0556C625.601 29.3156 625.435 29.4273 625.339 29.4714C625.312 29.4835 625.296 29.488 625.288 29.4897C625.249 29.4749 625.205 29.4423 625.037 29.3197C624.888 29.2115 624.686 29.0705 624.409 28.9573C623.959 28.7733 623.558 28.9429 623.28 29.1635C623.013 29.3753 622.791 29.682 622.614 29.9629C622.466 30.1966 622.328 30.4477 622.211 30.6608C622.185 30.7086 622.16 30.7545 622.136 30.7979C622.068 30.9208 622.01 31.0218 621.96 31.1009C621.911 31.1777 621.885 31.2072 621.881 31.212C621.881 31.2126 621.881 31.2128 621.881 31.2126C621.777 31.3089 621.696 31.4321 621.636 31.5344C621.572 31.6442 621.509 31.7696 621.45 31.8964C621.39 32.0242 621.318 32.1868 621.248 32.3475C621.191 32.4765 621.135 32.6043 621.085 32.7121C620.959 32.9883 620.841 33.2196 620.731 33.377C620.691 33.433 620.66 33.4687 620.639 33.4901H619.27C618.87 33.4901 618.617 33.7573 618.474 33.9682C618.328 34.1833 618.212 34.4605 618.112 34.7203C618.071 34.8266 618.031 34.9337 617.991 35.0408C617.821 35.4995 617.65 35.9581 617.399 36.3509C617.053 36.8922 616.773 37.513 616.527 38.0615C616.51 38.0978 616.494 38.1339 616.478 38.1695C616.207 38.7714 615.982 39.2463 615.741 39.5464C615.687 39.6125 615.647 39.63 615.572 39.6423C615.521 39.6507 615.461 39.6543 615.369 39.6578L615.345 39.6588C615.264 39.6618 615.159 39.6657 615.052 39.6786C614.796 39.7092 614.502 39.7919 614.213 40.0333C613.936 40.2647 613.701 40.6117 613.49 41.1034C613.304 41.5384 613.178 41.7291 613.1 41.8137C613.052 41.866 613.036 41.87 612.988 41.8812L612.984 41.8821C612.975 41.8844 612.962 41.8869 612.948 41.8899C612.851 41.9097 612.65 41.9507 612.446 42.0785C612.216 42.2225 612.001 42.4538 611.771 42.8119C611.723 42.6618 611.673 42.4828 611.613 42.271C611.584 42.1677 611.553 42.0566 611.519 41.9372C611.39 41.4882 611.229 40.9579 611.005 40.3951C610.793 39.8642 610.66 39.4896 610.564 39.2089C610.543 39.1453 610.522 39.0845 610.502 39.0264C610.439 38.8386 610.385 38.6792 610.33 38.5443C610.161 38.135 609.951 37.8943 609.457 37.3603C609.09 36.9642 608.608 36.8205 608.141 36.8065C607.682 36.7928 607.205 36.9018 606.777 37.0462C605.918 37.3355 605.127 37.8118 604.83 37.9932C604.367 38.2758 604.207 38.7076 604.089 39.0779C604.069 39.1391 604.05 39.2005 604.031 39.2625C603.93 39.5887 603.825 39.9309 603.601 40.3403C603.316 40.8624 603.197 40.9197 603.158 40.9382C603.124 40.9545 603.097 40.9622 603.032 40.9809C603.004 40.9888 602.969 40.9987 602.925 41.012C602.789 41.0522 602.622 41.1096 602.418 41.2227C602.336 41.2679 602.138 41.2942 601.773 41.0595C601.427 40.8372 601.046 40.4447 600.718 39.9454C600.516 39.6379 600.28 39.3948 599.979 39.2915C599.653 39.1797 599.369 39.2698 599.173 39.3695C599.078 39.418 598.991 39.4747 598.922 39.5215C598.896 39.5394 598.873 39.5552 598.852 39.5698C598.811 39.5982 598.776 39.6218 598.738 39.6464C598.624 39.719 598.589 39.72 598.59 39.72H589.942C589.94 39.7189 589.907 39.7124 589.833 39.6813C589.742 39.6428 589.625 39.5825 589.484 39.5007C589.202 39.3375 588.865 39.1114 588.516 38.8661C588.235 38.6685 587.955 38.4639 587.697 38.2759C587.635 38.2312 587.575 38.1875 587.517 38.145C587.223 37.9309 586.951 37.7353 586.777 37.6313C586.647 37.5533 586.454 37.4608 586.252 37.3641C586.183 37.3309 586.112 37.2972 586.043 37.2634C585.752 37.1212 585.424 36.952 585.099 36.7431C584.442 36.3211 583.842 35.767 583.571 35.0111C583.236 34.0784 582.984 33.7032 582.655 33.4374C582.596 33.389 582.534 33.3454 582.486 33.3107C582.478 33.305 582.47 33.2996 582.463 33.2944C582.408 33.2549 582.361 33.2205 582.313 33.1792C582.222 33.1009 582.104 32.9797 581.946 32.7427C581.667 32.3248 581.25 32.1382 580.845 32.0665C580.451 31.9966 580.03 32.0275 579.667 32.0741C579.483 32.0979 579.303 32.1274 579.141 32.154L579.14 32.1541C578.974 32.1813 578.832 32.2046 578.706 32.22C578.586 32.2347 578.505 32.2389 578.453 32.2365C578.252 32.0825 578.029 32.0395 577.822 32.0616C577.642 32.0809 577.474 32.1516 577.379 32.1916C577.373 32.1941 577.367 32.1966 577.362 32.1988C577.293 32.2276 577.251 32.2439 577.224 32.2531C577.055 32.113 576.874 32.0472 576.717 32.0103C576.622 31.9878 576.489 31.9688 576.396 31.9553C576.359 31.95 576.328 31.9456 576.308 31.9422C576.201 31.924 576.125 31.9021 576.058 31.8657C575.994 31.8311 575.915 31.7711 575.825 31.6473C575.722 31.5045 575.528 31.3107 575.23 31.3107C574.949 31.3107 574.762 31.4856 574.673 31.5876C574.49 31.7959 574.347 32.1252 574.242 32.3787C574.204 32.4705 574.168 32.5586 574.135 32.6427C574.06 32.8291 573.993 32.9956 573.923 33.1382C573.898 33.1891 573.877 33.2281 573.86 33.2571C573.698 33.2874 573.555 33.3526 573.445 33.411C573.314 33.4806 573.179 33.5695 573.063 33.6453C573.044 33.6576 573.026 33.6696 573.008 33.6811C572.709 33.8764 572.537 33.9601 572.41 33.9601C571.98 33.9601 571.583 34.1022 571.246 34.4938C570.943 34.8461 570.706 35.38 570.482 36.1139C570.446 36.2311 570.413 36.3208 570.383 36.3885C570.349 36.3563 570.31 36.3163 570.262 36.267C570.253 36.2576 570.244 36.2478 570.234 36.2377C570.124 36.1234 569.97 35.9635 569.805 35.849L569.797 35.8439L569.79 35.8392C569.248 35.4915 568.779 35.0411 568.41 34.5134L568.384 34.4765L568.352 34.4448C567.73 33.8289 567.314 33.0353 567.162 32.1733L567.162 32.1733L567.161 32.1679C567.081 31.7374 566.92 31.4155 566.633 31.2114C566.5 31.1165 566.364 31.066 566.255 31.0338C566.202 31.018 566.108 30.9952 566.047 30.9803C566.021 30.9741 566.001 30.9692 565.992 30.9668C565.874 30.9354 565.823 30.9085 565.77 30.8395C565.698 30.7468 565.589 30.5307 565.515 30.0268C565.475 29.7584 565.423 29.5113 565.331 29.3388C565.291 29.2631 565.181 29.0789 564.949 29.0152C564.676 28.94 564.474 29.0882 564.393 29.1661C564.309 29.2468 564.253 29.3426 564.217 29.411C564.177 29.4867 564.141 29.5705 564.109 29.6541C564.044 29.8211 563.981 30.0225 563.92 30.2273C563.877 30.3697 563.836 30.5138 563.795 30.6559C563.714 30.9406 563.634 31.2176 563.552 31.4576C563.509 31.5853 563.47 31.686 563.437 31.7601H562.064C562.061 31.7574 562.057 31.7545 562.053 31.7512C561.998 31.7063 561.918 31.6222 561.814 31.4844C561.608 31.2107 561.36 30.7927 561.079 30.2429C560.521 29.1481 559.871 27.5991 559.22 25.8091C559.051 25.3458 558.893 24.9829 558.742 24.7068C558.596 24.4395 558.437 24.2146 558.25 24.0679C558.043 23.9055 557.757 23.8124 557.461 23.9374C557.22 24.0393 557.079 24.2467 557 24.39C556.835 24.6913 556.742 25.0986 556.69 25.3839C556.684 25.4168 556.679 25.4489 556.673 25.48H540.7ZM684.116 24.4145C684.116 24.4149 684.113 24.415 684.108 24.4135C684.113 24.4132 684.116 24.414 684.116 24.4145ZM660.425 46.898C660.425 46.8979 660.427 46.8966 660.429 46.8946C660.427 46.8972 660.425 46.8982 660.425 46.898ZM633.751 26.6392C633.751 26.6388 633.753 26.6348 633.759 26.6284C633.754 26.6365 633.751 26.6397 633.751 26.6392ZM634.231 26.5875C634.235 26.5911 634.237 26.5933 634.237 26.5936C634.237 26.5938 634.235 26.592 634.231 26.5875ZM611.535 43.1215C611.535 43.1214 611.537 43.1198 611.54 43.1175C611.537 43.1206 611.535 43.1217 611.535 43.1215ZM578.414 32.2323C578.414 32.2322 578.417 32.2326 578.421 32.2337C578.416 32.233 578.414 32.2324 578.414 32.2323ZM573.812 33.3253C573.812 33.325 573.815 33.3221 573.819 33.3176C573.815 33.3233 573.812 33.3256 573.812 33.3253ZM562.09 31.7776C562.09 31.7777 562.089 31.7771 562.086 31.7757C562.089 31.7768 562.09 31.7775 562.09 31.7776ZM565.114 29.856C565.113 29.8561 565.113 29.8565 565.113 29.8572L565.114 29.856Z" stroke="black"/>
<path d="M571.066 104.1H573.457C576.24 104.1 577.775 102.6 577.775 100.022C577.775 97.3324 576.287 95.8207 573.469 95.8207H571.066V104.1ZM572.555 102.735V97.1859H573.445C575.484 97.1859 576.287 97.9945 576.287 99.9574C576.287 102.026 575.139 102.735 573.311 102.735H572.555ZM579.328 104.1H584.836V102.694H580.816V100.643H584.561V99.2777H580.816V97.1859H584.836V95.8207H579.328V104.1ZM588.996 104.194C590.578 104.194 591.873 103.25 591.873 101.686C591.873 98.9379 587.865 99.4652 587.865 97.9066C587.865 97.3793 588.322 97.0219 588.908 97.0219C589.465 97.0219 589.957 97.3441 590.244 97.9066L591.48 97.1508C590.912 96.1429 589.98 95.6976 588.961 95.6976C587.566 95.6976 586.377 96.5179 586.377 97.9828C586.377 100.678 590.385 100.104 590.385 101.821C590.385 102.407 589.904 102.875 589.02 102.875C588.141 102.875 587.408 102.418 587.303 101.387L585.826 101.762C586.09 103.391 587.531 104.194 588.996 104.194ZM592.125 104.1H593.748L594.416 102.301H597.586L598.248 104.1H599.854L596.555 95.8207H595.441L592.125 104.1ZM594.885 101.03L596.004 98.0062L597.117 101.03H594.885ZM600.996 104.1H602.484V100.643H606.352V99.2777H602.484V97.1859H606.867V95.8207H600.996V104.1ZM608.238 104.1H609.727V95.8207H608.238V104.1ZM615.27 104.217C618.006 104.217 619.266 102.213 619.266 99.9574C619.266 97.7015 618.006 95.6976 615.27 95.6976C612.533 95.6976 611.273 97.7015 611.273 99.9574C611.273 102.213 612.533 104.217 615.27 104.217ZM615.27 102.899C613.494 102.899 612.844 101.522 612.844 99.9574C612.844 98.3988 613.494 97.0219 615.27 97.0219C617.045 97.0219 617.695 98.3988 617.695 99.9574C617.695 101.522 617.045 102.899 615.27 102.899ZM623.707 104.1H625.195V100.643H629.062V99.2777H625.195V97.1859H629.578V95.8207H623.707V104.1ZM630.996 95.1H632.039L633.838 93.4066H632.314L630.996 95.1ZM630.949 104.1H632.438V95.8207H630.949V104.1ZM636.938 104.194C638.52 104.194 639.814 103.25 639.814 101.686C639.814 98.9379 635.807 99.4652 635.807 97.9066C635.807 97.3793 636.264 97.0219 636.85 97.0219C637.406 97.0219 637.898 97.3441 638.186 97.9066L639.422 97.1508C638.854 96.1429 637.922 95.6976 636.902 95.6976C635.508 95.6976 634.318 96.5179 634.318 97.9828C634.318 100.678 638.326 100.104 638.326 101.821C638.326 102.407 637.846 102.875 636.961 102.875C636.082 102.875 635.35 102.418 635.244 101.387L633.768 101.762C634.031 103.391 635.473 104.194 636.938 104.194ZM641.238 104.1H642.727V95.8207H641.238V104.1ZM648.281 104.217C649.928 104.217 651.246 103.379 651.902 101.832L650.525 101.27C650.08 102.383 649.348 102.805 648.281 102.805C646.506 102.805 645.75 101.545 645.75 99.8988C645.75 98.3636 646.506 97.1039 648.258 97.1039C649.336 97.1039 650.191 97.5258 650.502 98.6156L651.891 98.0648C651.223 96.5179 649.91 95.6859 648.27 95.6859C645.545 95.6859 644.273 97.6898 644.273 99.9574C644.273 102.231 645.557 104.217 648.281 104.217ZM656.578 104.217C659.314 104.217 660.574 102.213 660.574 99.9574C660.574 97.7015 659.314 95.6976 656.578 95.6976C653.842 95.6976 652.582 97.7015 652.582 99.9574C652.582 102.213 653.842 104.217 656.578 104.217ZM656.578 102.899C654.803 102.899 654.152 101.522 654.152 99.9574C654.152 98.3988 654.803 97.0219 656.578 97.0219C658.354 97.0219 659.004 98.3988 659.004 99.9574C659.004 101.522 658.354 102.899 656.578 102.899Z" fill="black"/>
<path d="M365.29 25.98H381.69C381.69 25.98 382.02 22.38 383.33 25.98C384.64 29.58 386 32.26 386.62 32.26H388.26C388.75 32.26 389.31 27.94 389.64 30.1C389.97 32.26 391.01 30.82 391.28 32.26C391.448 33.2144 391.905 34.0941 392.59 34.78C392.992 35.3674 393.505 35.8702 394.1 36.26C394.62 36.62 395.1 37.7 395.54 36.26C395.98 34.82 396.4 34.46 396.99 34.46C397.58 34.46 398.17 33.74 398.63 33.74C399.09 33.74 399.48 31.22 400.01 31.94C400.54 32.66 401.12 32.3 401.51 32.66C401.9 33.02 402.37 32.3 402.76 32.66C403.15 33.02 405.39 31.94 406.11 33.02C406.83 34.1 407.03 33.37 407.68 35.18C408.33 36.99 410.51 37.7 411.1 38.06C411.69 38.42 413.92 40.22 414.51 40.22H423.17C423.76 40.22 424.22 39.14 424.88 40.22C425.54 41.3 426.59 42.02 427.24 41.66C427.89 41.3 428.03 41.66 428.62 40.58C429.21 39.5 429.08 38.78 429.67 38.42C430.26 38.06 432.67 36.62 433.67 37.7C434.67 38.78 434.27 38.42 435.12 40.58C435.97 42.74 435.91 44.45 436.76 43.1C437.61 41.75 437.76 43.1 438.53 41.3C439.3 39.5 440.13 40.58 440.71 39.86C441.29 39.14 441.71 37.7 442.4 36.62C443.09 35.54 443.26 33.99 443.85 33.99H445.29C445.88 33.99 446.41 31.94 446.8 31.58C447.19 31.22 447.92 29.06 448.8 29.42C449.68 29.78 449.65 30.5 450.8 29.42C451.95 28.34 452.12 27.98 452.91 27.62C453.7 27.26 454.09 27.26 454.74 26.9C455.39 26.54 455.79 25.82 456.58 26.54C457.37 27.26 457.83 26.18 458.42 26.9C459.01 27.62 458.94 24.74 459.86 25.82C460.78 26.9 460.91 25.46 461.31 26.9C461.513 28.0402 461.912 29.1365 462.49 30.14C462.88 30.5 465.31 32.8 466.29 33.99C466.944 34.7878 467.645 35.5458 468.39 36.26C469.12 36.98 469.18 37.7 469.77 37.34C470.36 36.98 470.3 36.62 471.15 36.98C472 37.34 472.53 38.06 473.25 38.06C473.97 38.06 474.17 37.34 474.76 38.06C474.928 38.3319 475.175 38.5463 475.468 38.6749C475.761 38.8034 476.086 38.8401 476.4 38.78C477.19 38.78 476.73 37.34 477.91 38.06C479.09 38.78 479.22 38.42 479.91 38.06C480.6 37.7 480.91 36.26 481.29 38.06C481.67 39.86 481.94 39.14 482.47 40.58C483 42.02 484 45.26 484.67 46.68C485.34 48.1 485.33 46.68 486.11 46.68C486.89 46.68 487.03 44.88 487.89 44.16C488.75 43.44 489 41.64 489.89 41.28C490.78 40.92 491 41.28 492.05 40.92C492.862 40.724 493.623 40.3557 494.28 39.84C495.28 39.12 495.28 38.76 496.19 38.04C496.954 37.4343 497.598 36.6917 498.09 35.85C498.812 34.868 499.388 33.7868 499.8 32.64C500.52 30.84 501.11 29.04 501.63 28.64C502.15 28.24 502.55 26.48 503.14 26.84C503.73 27.2 504.06 25.76 504.78 25.76C505.5 25.76 505.57 23.28 506.49 24.34C507.41 25.4 507.41 23.96 508.2 24.68C508.99 25.4 509.38 24.07 509.9 24.07H511.81C512.66 24.07 512.92 22.39 513.81 24.07C514.7 25.75 514.33 26.07 515.12 26.48C515.595 26.7 515.974 27.0833 516.19 27.56V79.08H365.29V25.98Z" fill="#DAEBDF"/>
<path d="M365 51.22V79.49H516.66V51.22H365Z" fill="#087B27"/>
<path d="M365.29 25.48H364.79V25.98V79.08V79.58H365.29H516.19H516.69V79.08V27.56V27.4523L516.646 27.3541C516.382 26.7718 515.92 26.3029 515.342 26.0317C515.188 25.9511 515.13 25.8955 515.099 25.8561C515.064 25.8115 515.03 25.7476 514.975 25.5885C514.958 25.5377 514.94 25.4816 514.919 25.4196C514.81 25.0849 514.646 24.5809 514.252 23.836C514.025 23.4082 513.779 23.0657 513.459 22.9112C513.277 22.8231 513.086 22.8026 512.901 22.8437C512.731 22.8816 512.595 22.9656 512.497 23.0388C512.398 23.1119 512.308 23.1977 512.237 23.2649L512.214 23.2868C512.147 23.3507 512.093 23.4023 512.036 23.4494C511.91 23.5545 511.847 23.57 511.81 23.57H509.9C509.562 23.57 509.315 23.7806 509.186 23.9004C509.114 23.9667 509.045 24.0396 508.987 24.1005L508.98 24.1082C508.916 24.1751 508.863 24.2302 508.811 24.2786C508.759 24.3267 508.72 24.3572 508.689 24.3758C508.672 24.3861 508.661 24.3908 508.655 24.3928C508.639 24.3873 508.6 24.3685 508.537 24.3105C508.281 24.0772 507.99 23.9317 507.661 23.9768C507.425 24.0092 507.221 24.1499 507.145 24.2021C507.136 24.2085 507.129 24.2136 507.123 24.217C507.114 24.2229 507.106 24.2278 507.1 24.2318C507.062 24.2073 506.986 24.1483 506.868 24.0123C506.727 23.8505 506.559 23.7027 506.355 23.6275C506.123 23.5421 505.889 23.5669 505.689 23.6798C505.516 23.7783 505.397 23.9275 505.317 24.0483C505.234 24.1744 505.164 24.3159 505.105 24.4449C505.058 24.5491 505.017 24.6435 504.98 24.7305C504.913 24.8867 504.856 25.0194 504.786 25.1429C504.753 25.2025 504.726 25.2401 504.708 25.2625C504.385 25.2849 504.137 25.4534 503.965 25.6105C503.804 25.7581 503.661 25.9423 503.553 26.0814C503.541 26.0972 503.529 26.1125 503.517 26.1271C503.423 26.2476 503.36 26.3221 503.314 26.3668C503.164 26.2969 502.996 26.272 502.824 26.3084C502.634 26.3486 502.488 26.4528 502.386 26.5485C502.191 26.7315 502.036 26.9983 501.918 27.2186C501.851 27.3433 501.798 27.448 501.748 27.5472C501.689 27.6637 501.634 27.7724 501.565 27.8965C501.444 28.1143 501.364 28.2135 501.325 28.2437C501.108 28.4106 500.933 28.6768 500.788 28.9391C500.635 29.2159 500.482 29.5543 500.329 29.9225C500.157 30.3339 499.972 30.8153 499.78 31.3146C499.635 31.6918 499.486 32.0792 499.336 32.4543L499.332 32.4625L499.329 32.4708C498.933 33.5723 498.38 34.6107 497.687 35.554L497.672 35.5751L497.658 35.5977C497.198 36.3858 496.594 37.0811 495.879 37.6483C495.421 38.0109 495.17 38.2959 494.945 38.5511C494.928 38.5705 494.911 38.5897 494.894 38.6088C494.67 38.8628 494.447 39.1036 493.988 39.4343L493.98 39.4403L493.971 39.4466C493.37 39.918 492.675 40.2547 491.933 40.434L491.91 40.4395L491.888 40.4471C491.442 40.6 491.188 40.6 490.916 40.6H490.91C490.59 40.6 490.237 40.6005 489.703 40.8165C489.353 40.9579 489.102 41.2254 488.914 41.4932C488.725 41.7615 488.568 42.0772 488.428 42.3684C488.404 42.4195 488.379 42.47 488.356 42.5197C488.238 42.7661 488.128 42.9957 488.007 43.2079C487.861 43.4619 487.719 43.6514 487.569 43.7767C487.284 44.015 487.078 44.3252 486.919 44.6194C486.788 44.8608 486.674 45.1207 486.574 45.3479C486.553 45.3959 486.533 45.4424 486.513 45.487C486.391 45.7625 486.294 45.9583 486.198 46.0858C486.152 46.1455 486.122 46.17 486.108 46.1785C486.107 46.1791 486.106 46.1796 486.106 46.18C485.741 46.1814 485.481 46.3544 485.31 46.5137C485.27 46.5507 485.233 46.5885 485.2 46.6244C485.176 46.5788 485.15 46.5265 485.122 46.4667C484.801 45.7861 484.392 44.648 483.991 43.4755C483.853 43.0752 483.717 42.6711 483.587 42.2837C483.34 41.5533 483.114 40.8821 482.939 40.4073C482.797 40.0214 482.666 39.7612 482.535 39.5599C482.437 39.4095 482.336 39.2889 482.265 39.2037C482.245 39.1802 482.228 39.1594 482.213 39.1414C482.099 39.0003 481.96 38.8144 481.779 37.9568C481.729 37.7209 481.678 37.5237 481.622 37.3635C481.569 37.211 481.499 37.0551 481.396 36.9309C481.282 36.7935 481.094 36.6603 480.84 36.6749C480.626 36.6872 480.471 36.8021 480.392 36.8694C480.304 36.9441 480.226 37.0344 480.165 37.1073C480.136 37.1421 480.107 37.1785 480.079 37.2127L480.071 37.2233C480.04 37.2617 480.01 37.2981 479.98 37.3338C479.852 37.4871 479.757 37.5761 479.679 37.6167C479.553 37.6825 479.424 37.7596 479.327 37.8178C479.286 37.8425 479.251 37.8637 479.224 37.8793C479.111 37.9437 479.055 37.9645 479.01 37.972C478.936 37.9845 478.747 37.985 478.17 37.6332C477.854 37.4401 477.508 37.2983 477.166 37.3837C476.796 37.4761 476.632 37.7813 476.559 37.9314C476.534 37.9823 476.505 38.0497 476.482 38.1012C476.473 38.1236 476.464 38.143 476.458 38.1567C476.429 38.2206 476.409 38.257 476.393 38.28L476.353 38.28L476.306 38.2889C476.091 38.33 475.869 38.3049 475.669 38.217C475.469 38.1292 475.3 37.9826 475.185 37.7968L475.168 37.7687L475.147 37.7431C474.972 37.5302 474.771 37.3524 474.52 37.2772C474.249 37.1963 474.018 37.2627 473.86 37.3292C473.785 37.3607 473.713 37.3984 473.659 37.4258C473.601 37.4562 473.554 37.4797 473.507 37.5003C473.419 37.5386 473.341 37.56 473.25 37.56C473.058 37.56 472.858 37.4662 472.531 37.2424C472.479 37.207 472.424 37.1681 472.366 37.1269C472.091 36.9332 471.745 36.6891 471.345 36.5196C470.889 36.3264 470.5 36.2456 470.123 36.4511C469.996 36.5203 469.884 36.6184 469.811 36.6826C469.803 36.6902 469.795 36.6973 469.787 36.7039C469.708 36.7728 469.631 36.837 469.53 36.9008C469.527 36.8982 469.525 36.8955 469.523 36.8927C469.475 36.8334 469.434 36.7732 469.379 36.6945C469.341 36.6382 469.295 36.5725 469.236 36.4909C469.11 36.3155 468.951 36.1111 468.741 35.904L468.736 35.8992C468.006 35.1988 467.318 34.4553 466.677 33.673L466.676 33.6722C465.711 32.501 463.412 30.3157 462.886 29.8257C462.357 28.89 461.991 27.8712 461.802 26.8125L461.798 26.7891L461.792 26.7662C461.739 26.5752 461.686 26.4157 461.629 26.2854C461.575 26.1594 461.504 26.0302 461.401 25.9254C461.284 25.8063 461.138 25.7321 460.974 25.7135C460.841 25.6983 460.723 25.7252 460.672 25.7367L460.669 25.7375C460.558 25.7628 460.555 25.7615 460.549 25.7594C460.549 25.7592 460.548 25.759 460.547 25.7588C460.536 25.7557 460.436 25.7255 460.241 25.4958C460.102 25.3326 459.925 25.1735 459.701 25.1067C459.434 25.0273 459.191 25.1033 459.015 25.2458C458.865 25.3672 458.769 25.5302 458.708 25.6551C458.642 25.7879 458.588 25.9334 458.544 26.0616C458.521 26.1286 458.502 26.1844 458.485 26.2365C458.479 26.2524 458.474 26.2679 458.469 26.2833C458.337 26.2036 458.192 26.1557 458.035 26.1429C457.799 26.1238 457.578 26.1943 457.454 26.2339C457.444 26.2371 457.434 26.2401 457.426 26.2429C457.275 26.29 457.21 26.3039 457.152 26.3C457.118 26.2976 457.044 26.2865 456.917 26.1705C456.676 25.9508 456.42 25.7995 456.138 25.7496C455.848 25.6982 455.596 25.7655 455.39 25.8646C455.2 25.9562 455.028 26.0869 454.894 26.1879L454.889 26.1919L454.886 26.1942C454.739 26.3052 454.622 26.3936 454.498 26.4626C454.215 26.6192 453.991 26.6976 453.723 26.7844C453.699 26.7924 453.674 26.8004 453.649 26.8085C453.391 26.8914 453.09 26.9887 452.703 27.165C452.248 27.3724 451.963 27.5871 451.646 27.8871C451.526 28.0006 451.398 28.1297 451.257 28.2721C451.222 28.3077 451.186 28.3442 451.149 28.3814C450.961 28.5706 450.739 28.7911 450.458 29.0556C450.181 29.3156 450.015 29.4273 449.919 29.4714C449.892 29.4835 449.876 29.488 449.868 29.4896C449.829 29.4749 449.785 29.4423 449.617 29.3197C449.468 29.2115 449.266 29.0705 448.989 28.9573C448.539 28.7732 448.138 28.9429 447.86 29.1635C447.593 29.3753 447.371 29.682 447.194 29.9629C447.046 30.1966 446.908 30.4476 446.791 30.6608C446.765 30.7086 446.74 30.7545 446.716 30.7978C446.648 30.9208 446.59 31.0218 446.54 31.1008C446.485 31.1878 446.459 31.2142 446.461 31.2126C446.357 31.3089 446.276 31.432 446.216 31.5344C446.152 31.6442 446.089 31.7695 446.03 31.8964C445.97 32.0242 445.898 32.1868 445.828 32.3476C445.771 32.4765 445.715 32.6043 445.665 32.7121C445.539 32.9883 445.421 33.2196 445.311 33.377C445.271 33.433 445.24 33.4687 445.219 33.49H443.85C443.45 33.49 443.198 33.761 443.057 33.969C442.912 34.1833 442.797 34.4596 442.696 34.7193C442.656 34.8244 442.616 34.9303 442.576 35.0363C442.403 35.4959 442.231 35.9566 441.979 36.3508C441.633 36.8922 441.353 37.5129 441.107 38.0615C441.09 38.0978 441.074 38.1339 441.058 38.1695C440.787 38.7714 440.562 39.2463 440.321 39.5464C440.267 39.6125 440.227 39.6299 440.152 39.6423C440.101 39.6507 440.041 39.6543 439.949 39.6578L439.925 39.6587C439.844 39.6618 439.739 39.6657 439.632 39.6786C439.376 39.7092 439.082 39.7918 438.793 40.0333C438.516 40.2647 438.281 40.6117 438.07 41.1034C437.884 41.5379 437.757 41.7283 437.68 41.8126C437.631 41.8655 437.614 41.8696 437.564 41.8813L437.561 41.882C437.551 41.8842 437.539 41.8867 437.524 41.8897C437.427 41.9095 437.225 41.9506 437.021 42.0789C436.791 42.2233 436.578 42.455 436.35 42.8126C436.3 42.6556 436.246 42.4666 436.183 42.2417C436.156 42.1466 436.127 42.0451 436.096 41.9369C435.967 41.4886 435.806 40.959 435.585 40.3969C435.376 39.8658 435.245 39.4908 435.149 39.2095C435.13 39.153 435.111 39.0988 435.094 39.0467C435.027 38.8495 434.971 38.6835 434.913 38.5427C434.742 38.1337 434.53 37.8926 434.037 37.3603C433.67 36.9642 433.188 36.8205 432.721 36.8065C432.262 36.7928 431.785 36.9018 431.357 37.0462C430.498 37.3355 429.707 37.8118 429.41 37.9932C428.947 38.2758 428.787 38.7076 428.669 39.0779C428.649 39.1391 428.63 39.2005 428.611 39.2625C428.51 39.5886 428.405 39.9309 428.181 40.3403C427.896 40.8623 427.777 40.9197 427.738 40.9382C427.704 40.9544 427.677 40.9622 427.612 40.9809C427.584 40.9888 427.549 40.9986 427.505 41.0119C427.369 41.0521 427.202 41.1095 426.998 41.2226C426.915 41.2685 426.703 41.2933 426.331 41.0576C425.982 40.8362 425.605 40.4472 425.307 39.9593C425.117 39.6489 424.887 39.3986 424.582 39.2923C424.256 39.1787 423.97 39.2709 423.776 39.3674C423.68 39.4151 423.592 39.4709 423.522 39.5175C423.495 39.5351 423.471 39.5508 423.45 39.5653C423.407 39.594 423.37 39.6181 423.33 39.6429C423.208 39.7187 423.17 39.72 423.17 39.72H414.522C414.52 39.7189 414.487 39.7124 414.412 39.6811C414.321 39.6426 414.203 39.5822 414.062 39.5004C413.78 39.3372 413.442 39.111 413.092 38.8658C412.797 38.6585 412.502 38.4433 412.234 38.2479C412.186 38.213 412.139 38.1787 412.093 38.1452C411.799 37.9312 411.53 37.7364 411.36 37.6332C411.228 37.5527 411.03 37.4575 410.825 37.3587C410.759 37.3272 410.693 37.2954 410.628 37.2635C410.337 37.1212 410.008 36.9519 409.682 36.7429C409.024 36.3205 408.422 35.7664 408.151 35.011C407.816 34.0784 407.564 33.7032 407.235 33.4374C407.176 33.389 407.114 33.3453 407.066 33.3106C407.058 33.305 407.05 33.2996 407.043 33.2944C406.988 33.2549 406.941 33.2205 406.893 33.1792C406.802 33.1009 406.684 32.9797 406.526 32.7427C406.247 32.3247 405.829 32.1382 405.425 32.0665C405.031 31.9966 404.61 32.0274 404.247 32.0741C404.063 32.0979 403.883 32.1274 403.721 32.154L403.72 32.1541C403.554 32.1812 403.412 32.2046 403.286 32.22C403.166 32.2347 403.085 32.2388 403.033 32.2364C402.832 32.0825 402.609 32.0395 402.402 32.0616C402.222 32.0809 402.054 32.1516 401.959 32.1916C401.953 32.1941 401.947 32.1965 401.942 32.1988C401.873 32.2276 401.831 32.2439 401.804 32.2531C401.636 32.114 401.458 32.0479 401.302 32.0106C401.208 31.988 401.075 31.9687 400.983 31.9553C400.947 31.95 400.917 31.9457 400.898 31.9424C400.794 31.9243 400.719 31.9026 400.651 31.866C400.587 31.831 400.505 31.7697 400.413 31.6436C400.308 31.5014 400.114 31.3107 399.817 31.3107C399.537 31.3107 399.35 31.4848 399.259 31.588C399.076 31.7971 398.935 32.1274 398.831 32.3805C398.794 32.4703 398.76 32.5565 398.727 32.6389C398.652 32.8274 398.585 32.9954 398.516 33.1387C398.491 33.189 398.47 33.2275 398.453 33.2561C398.289 33.2855 398.144 33.3503 398.031 33.4094C397.895 33.4803 397.756 33.5709 397.637 33.6479C397.62 33.6589 397.604 33.6696 397.588 33.68C397.448 33.7703 397.33 33.8427 397.22 33.894C397.11 33.945 397.037 33.96 396.99 33.96C396.563 33.96 396.168 34.1033 395.831 34.4928C395.526 34.8448 395.287 35.3783 395.062 36.1139C395.026 36.2311 394.993 36.3208 394.963 36.3885C394.929 36.3563 394.89 36.3163 394.842 36.267C394.833 36.2576 394.824 36.2478 394.814 36.2376C394.704 36.1234 394.55 35.9635 394.385 35.8489L394.385 35.8488L394.374 35.8417C393.833 35.4877 393.367 35.0311 393.003 34.4978L392.977 34.4596L392.944 34.4269C392.332 33.8134 391.923 33.0267 391.772 32.1732L391.772 32.1732L391.771 32.1679C391.691 31.7393 391.533 31.4178 391.248 31.213C391.116 31.1175 390.981 31.0667 390.873 31.0343C390.819 31.0183 390.726 30.9952 390.665 30.9803C390.64 30.9742 390.621 30.9695 390.612 30.9672C390.497 30.9362 390.447 30.9097 390.393 30.8401C390.32 30.7464 390.211 30.5289 390.134 30.0245C390.093 29.7559 390.039 29.5081 389.946 29.3351C389.904 29.2579 389.793 29.0769 389.563 29.0146C389.293 28.9416 389.092 29.0851 389.01 29.1638C388.925 29.2444 388.868 29.3402 388.831 29.409C388.791 29.4849 388.754 29.569 388.722 29.6527C388.656 29.8201 388.592 30.0217 388.531 30.2266C388.487 30.372 388.445 30.519 388.404 30.6638C388.323 30.9456 388.244 31.2193 388.163 31.4574C388.119 31.5852 388.08 31.6859 388.047 31.76H386.683C386.679 31.757 386.674 31.7535 386.669 31.7494C386.613 31.7039 386.531 31.6193 386.426 31.4813C386.216 31.2074 385.963 30.7892 385.678 30.2397C385.11 29.1456 384.451 27.5974 383.8 25.8091C383.631 25.3458 383.473 24.9829 383.322 24.7068C383.176 24.4395 383.017 24.2146 382.83 24.0679C382.623 23.9055 382.337 23.8124 382.041 23.9373C381.8 24.0392 381.659 24.2467 381.58 24.39C381.415 24.6913 381.322 25.0985 381.27 25.3839C381.264 25.4168 381.259 25.4489 381.253 25.48H365.29ZM508.666 24.3945C508.666 24.3949 508.663 24.395 508.658 24.3934C508.663 24.3932 508.666 24.394 508.666 24.3945ZM484.986 46.8673C484.986 46.867 484.987 46.8659 484.99 46.8641C484.987 46.8667 484.986 46.8676 484.986 46.8673ZM458.326 26.6408C458.326 26.6404 458.328 26.6362 458.334 26.6295C458.328 26.638 458.326 26.6413 458.326 26.6408ZM458.813 26.5904C458.817 26.5941 458.819 26.5965 458.819 26.5967C458.819 26.5969 458.817 26.5951 458.813 26.5904ZM436.117 43.122C436.117 43.1218 436.119 43.1203 436.122 43.118C436.119 43.121 436.117 43.1221 436.117 43.122ZM402.994 32.2323C402.994 32.2322 402.997 32.2325 403.001 32.2337C402.996 32.233 402.994 32.2324 402.994 32.2323ZM398.407 33.323C398.407 33.3227 398.409 33.3202 398.413 33.3161C398.409 33.3212 398.407 33.3233 398.407 33.323ZM395.098 36.5009C395.098 36.5009 395.098 36.5008 395.097 36.5004L395.098 36.5009ZM386.708 31.7768C386.708 31.7769 386.707 31.7764 386.705 31.775C386.707 31.776 386.708 31.7767 386.708 31.7768Z" stroke="black"/>
<path d="M413.488 104.217C415.135 104.217 416.453 103.379 417.109 101.832L415.732 101.27C415.287 102.383 414.555 102.805 413.488 102.805C411.713 102.805 410.957 101.545 410.957 99.8988C410.957 98.3636 411.713 97.1039 413.465 97.1039C414.543 97.1039 415.398 97.5258 415.709 98.6156L417.098 98.0648C416.43 96.5179 415.117 95.6859 413.477 95.6859C410.752 95.6859 409.48 97.6898 409.48 99.9574C409.48 102.231 410.764 104.217 413.488 104.217ZM421.785 104.217C424.521 104.217 425.781 102.213 425.781 99.9574C425.781 97.7015 424.521 95.6976 421.785 95.6976C419.049 95.6976 417.789 97.7015 417.789 99.9574C417.789 102.213 419.049 104.217 421.785 104.217ZM421.785 102.899C420.01 102.899 419.359 101.522 419.359 99.9574C419.359 98.3988 420.01 97.0219 421.785 97.0219C423.561 97.0219 424.211 98.3988 424.211 99.9574C424.211 101.522 423.561 102.899 421.785 102.899ZM432.285 95.8207V101.61L428.805 95.8207H427.328V104.1H428.758V98.2816L432.227 104.1H433.715V95.8207H432.285ZM437.494 104.1H438.982V97.1508H441.572V95.8207H434.898V97.1508H437.494V104.1ZM442.762 104.1H448.27V102.694H444.25V100.643H447.994V99.2777H444.25V97.1859H448.27V95.8207H442.762V104.1ZM449.178 104.1H450.953L452.957 100.953L454.984 104.1H456.76L453.988 99.9574L456.748 95.8207H454.973L452.969 99.014L450.965 95.8207H449.189L451.949 99.9574L449.178 104.1ZM459.654 104.1H461.143V97.1508H463.732V95.8207H457.059V97.1508H459.654V104.1ZM468.098 104.217C470.834 104.217 472.094 102.213 472.094 99.9574C472.094 97.7015 470.834 95.6976 468.098 95.6976C465.361 95.6976 464.102 97.7015 464.102 99.9574C464.102 102.213 465.361 104.217 468.098 104.217ZM468.098 102.899C466.322 102.899 465.672 101.522 465.672 99.9574C465.672 98.3988 466.322 97.0219 468.098 97.0219C469.873 97.0219 470.523 98.3988 470.523 99.9574C470.523 101.522 469.873 102.899 468.098 102.899Z" fill="black"/>
<path d="M420.043 119.217C422.264 119.217 423.213 117.899 423.213 115.813V110.821H421.725V115.702C421.725 117.037 421.379 117.782 420.043 117.782C418.713 117.782 418.361 117.037 418.361 115.702V110.821H416.879V115.871C416.879 117.899 417.822 119.217 420.043 119.217ZM425.152 119.1H426.641V115.561H427.156H427.637L429.676 119.1H431.381L429.078 115.414C430.016 115.092 430.695 114.301 430.695 113.258C430.695 111.705 429.377 110.821 427.83 110.821H425.152V119.1ZM426.652 114.348V112.151H427.842C428.691 112.151 429.225 112.596 429.225 113.282C429.225 113.903 428.756 114.313 427.965 114.348H426.652ZM432.582 119.1H435.811C437.217 119.1 438.512 118.239 438.512 116.698C438.512 115.871 437.938 114.969 437.182 114.67C437.65 114.418 438.102 113.809 438.102 113.053C438.102 111.395 436.713 110.821 435.453 110.821H432.582V119.1ZM434.07 114.155V112.162H435.477C436.186 112.162 436.736 112.491 436.736 113.135C436.736 113.95 436.174 114.155 435.594 114.155H434.07ZM434.07 117.682V115.438H435.775C436.555 115.438 437.047 115.942 437.047 116.534C437.047 117.313 436.602 117.682 435.834 117.682H434.07ZM438.84 119.1H440.463L441.131 117.301H444.301L444.963 119.1H446.568L443.27 110.821H442.156L438.84 119.1ZM441.6 116.03L442.719 113.006L443.832 116.03H441.6ZM452.668 110.821V116.61L449.188 110.821H447.711V119.1H449.141V113.282L452.609 119.1H454.098V110.821H452.668ZM459.641 119.217C462.377 119.217 463.637 117.213 463.637 114.957C463.637 112.702 462.377 110.698 459.641 110.698C456.904 110.698 455.645 112.702 455.645 114.957C455.645 117.213 456.904 119.217 459.641 119.217ZM459.641 117.899C457.865 117.899 457.215 116.522 457.215 114.957C457.215 113.399 457.865 112.022 459.641 112.022C461.416 112.022 462.066 113.399 462.066 114.957C462.066 116.522 461.416 117.899 459.641 117.899Z" fill="black"/>
<path d="M14.45 26.05H30.86C30.86 26.05 31.19 22.45 32.5 26.05C33.81 29.65 35.12 32.35 35.78 32.35H37.42C37.91 32.35 38.42 28.03 38.8 30.19C39.18 32.35 40.18 30.91 40.44 32.35C40.6125 33.3029 41.0691 34.1813 41.75 34.87C42.1608 35.4385 42.6726 35.9266 43.26 36.31C43.79 36.67 44.26 37.75 44.71 36.31C45.16 34.87 45.56 34.51 46.15 34.51C46.74 34.51 47.33 33.79 47.79 33.79C48.25 33.79 48.64 31.27 49.17 31.99C49.7 32.71 50.28 32.35 50.68 32.71C51.08 33.07 51.53 32.35 51.93 32.71C52.33 33.07 54.55 31.99 55.27 33.07C55.99 34.15 56.19 33.42 56.85 35.23C57.51 37.04 59.67 37.75 60.26 38.11C60.85 38.47 63.08 40.26 63.67 40.26H72.34C72.93 40.26 73.34 39.18 74.04 40.26C74.74 41.34 75.75 42.06 76.41 41.7C77.07 41.34 77.19 41.7 77.78 40.62C78.37 39.54 78.24 38.82 78.78 38.46C79.32 38.1 81.78 36.66 82.78 37.74C83.78 38.82 83.37 38.46 84.22 40.62C85.07 42.78 85.01 44.48 85.86 43.14C86.71 41.8 86.86 43.14 87.64 41.34C88.42 39.54 89.23 40.62 89.81 39.9C90.39 39.18 90.81 37.74 91.51 36.66C92.21 35.58 92.36 34.03 92.95 34.03H94.39C94.99 34.03 95.51 31.98 95.9 31.62C96.29 31.26 97.02 29.1 97.9 29.46C98.78 29.82 98.76 30.54 99.9 29.46C101.04 28.38 101.21 28.02 102 27.66C102.79 27.3 103.18 27.3 103.84 26.94C104.5 26.58 104.84 25.86 105.67 26.58C106.5 27.3 106.92 26.22 107.51 26.94C108.1 27.66 108.04 24.78 108.96 25.86C109.88 26.94 109.96 25.5 110.4 26.94C110.608 28.0787 111.007 29.1741 111.58 30.18C111.97 30.54 114.4 32.84 115.39 34.03C116.041 34.8302 116.743 35.5883 117.49 36.3C118.21 37.02 118.27 37.74 118.87 37.38C119.47 37.02 119.39 36.66 120.24 37.02C121.09 37.38 121.62 38.1 122.34 38.1C123.06 38.1 123.26 37.38 123.85 38.1C124.019 38.3709 124.266 38.5844 124.559 38.7129C124.852 38.8413 125.176 38.8786 125.49 38.82C126.28 38.82 125.82 37.38 127 38.1C128.18 38.82 128.32 38.46 129 38.1C129.68 37.74 130 36.3 130.38 38.1C130.76 39.9 131.04 39.18 131.56 40.62C132.08 42.06 133.14 45.3 133.79 46.74C134.44 48.18 134.45 46.74 135.24 46.74C136.03 46.74 136.16 44.94 137.01 44.22C137.86 43.5 138.13 41.7 139.01 41.34C139.89 40.98 140.12 41.34 141.17 40.98C141.985 40.782 142.748 40.414 143.41 39.9C144.41 39.18 144.41 38.82 145.31 38.1C146.076 37.497 146.721 36.7538 147.21 35.91C147.935 34.9303 148.512 33.8486 148.92 32.7C149.64 30.9 150.23 29.1 150.76 28.7C151.29 28.3 151.68 26.54 152.27 26.9C152.86 27.26 153.19 25.82 153.91 25.82C154.63 25.82 154.7 23.34 155.61 24.4C156.52 25.46 156.53 24.02 157.32 24.74C158.11 25.46 158.5 24.13 159.03 24.13H160.93C161.78 24.13 162.05 22.45 162.93 24.13C163.81 25.81 163.45 26.13 164.24 26.54C164.716 26.7616 165.098 27.1441 165.32 27.62V79.15H14.45V26.05Z" fill="#DAEBDF"/>
<path d="M14 48V80H166V48H14Z" fill="#087B27"/>
<path d="M14.45 26.05H30.86C30.86 26.05 31.19 22.45 32.5 26.05C33.81 29.65 35.12 32.35 35.78 32.35H37.42C37.91 32.35 38.42 28.03 38.8 30.19C39.18 32.35 40.18 30.91 40.44 32.35C40.6125 33.3029 41.0691 34.1813 41.75 34.87C42.1608 35.4385 42.6726 35.9266 43.26 36.31C43.79 36.67 44.26 37.75 44.71 36.31C45.16 34.87 45.56 34.51 46.15 34.51C46.74 34.51 47.33 33.79 47.79 33.79C48.25 33.79 48.64 31.27 49.17 31.99C49.7 32.71 50.28 32.35 50.68 32.71C51.08 33.07 51.53 32.35 51.93 32.71C52.33 33.07 54.55 31.99 55.27 33.07C55.99 34.15 56.19 33.42 56.85 35.23C57.51 37.04 59.67 37.75 60.26 38.11C60.85 38.47 63.08 40.26 63.67 40.26H72.34C72.93 40.26 73.34 39.18 74.04 40.26C74.74 41.34 75.75 42.06 76.41 41.7C77.07 41.34 77.19 41.7 77.78 40.62C78.37 39.54 78.24 38.82 78.78 38.46C79.32 38.1 81.78 36.66 82.78 37.74C83.78 38.82 83.37 38.46 84.22 40.62C85.07 42.78 85.01 44.48 85.86 43.14C86.71 41.8 86.86 43.14 87.64 41.34C88.42 39.54 89.23 40.62 89.81 39.9C90.39 39.18 90.81 37.74 91.51 36.66C92.21 35.58 92.36 34.03 92.95 34.03H94.39C94.99 34.03 95.51 31.98 95.9 31.62C96.29 31.26 97.02 29.1 97.9 29.46C98.78 29.82 98.76 30.54 99.9 29.46C101.04 28.38 101.21 28.02 102 27.66C102.79 27.3 103.18 27.3 103.84 26.94C104.5 26.58 104.84 25.86 105.67 26.58C106.5 27.3 106.92 26.22 107.51 26.94C108.1 27.66 108.04 24.78 108.96 25.86C109.88 26.94 109.96 25.5 110.4 26.94C110.608 28.0787 111.007 29.1741 111.58 30.18C111.97 30.54 114.4 32.84 115.39 34.03C116.041 34.8302 116.743 35.5883 117.49 36.3C118.21 37.02 118.27 37.74 118.87 37.38C119.47 37.02 119.39 36.66 120.24 37.02C121.09 37.38 121.62 38.1 122.34 38.1C123.06 38.1 123.26 37.38 123.85 38.1C124.019 38.3709 124.266 38.5844 124.559 38.7129C124.852 38.8413 125.176 38.8786 125.49 38.82C126.28 38.82 125.82 37.38 127 38.1C128.18 38.82 128.32 38.46 129 38.1C129.68 37.74 130 36.3 130.38 38.1C130.76 39.9 131.04 39.18 131.56 40.62C132.08 42.06 133.14 45.3 133.79 46.74C134.44 48.18 134.45 46.74 135.24 46.74C136.03 46.74 136.16 44.94 137.01 44.22C137.86 43.5 138.13 41.7 139.01 41.34C139.89 40.98 140.12 41.34 141.17 40.98C141.985 40.782 142.748 40.414 143.41 39.9C144.41 39.18 144.41 38.82 145.31 38.1C146.076 37.497 146.721 36.7538 147.21 35.91C147.935 34.9303 148.512 33.8486 148.92 32.7C149.64 30.9 150.23 29.1 150.76 28.7C151.29 28.3 151.68 26.54 152.27 26.9C152.86 27.26 153.19 25.82 153.91 25.82C154.63 25.82 154.7 23.34 155.61 24.4C156.52 25.46 156.53 24.02 157.32 24.74C158.11 25.46 158.5 24.13 159.03 24.13H160.93C161.78 24.13 162.05 22.45 162.93 24.13C163.81 25.81 163.45 26.13 164.24 26.54C164.716 26.7616 165.098 27.1441 165.32 27.62V79.15H14.45V26.05Z" stroke="black"/>
<path d="M61.4883 104.217C63.1348 104.217 64.4531 103.379 65.1094 101.832L63.7324 101.27C63.2871 102.383 62.5547 102.805 61.4883 102.805C59.7129 102.805 58.957 101.545 58.957 99.8988C58.957 98.3636 59.7129 97.1039 61.4648 97.1039C62.543 97.1039 63.3984 97.5258 63.709 98.6156L65.0977 98.0648C64.4297 96.5179 63.1172 95.6859 61.4766 95.6859C58.752 95.6859 57.4805 97.6898 57.4805 99.9574C57.4805 102.231 58.7637 104.217 61.4883 104.217ZM69.7852 104.217C72.5215 104.217 73.7812 102.213 73.7812 99.9574C73.7812 97.7015 72.5215 95.6976 69.7852 95.6976C67.0488 95.6976 65.7891 97.7015 65.7891 99.9574C65.7891 102.213 67.0488 104.217 69.7852 104.217ZM69.7852 102.899C68.0098 102.899 67.3594 101.522 67.3594 99.9574C67.3594 98.3988 68.0098 97.0219 69.7852 97.0219C71.5605 97.0219 72.2109 98.3988 72.2109 99.9574C72.2109 101.522 71.5605 102.899 69.7852 102.899ZM80.2852 95.8207V101.61L76.8047 95.8207H75.3281V104.1H76.7578V98.2816L80.2266 104.1H81.7148V95.8207H80.2852ZM83.8477 104.1H85.3359V100.643H89.2031V99.2777H85.3359V97.1859H89.7188V95.8207H83.8477V104.1ZM94.4414 104.217C97.1777 104.217 98.4375 102.213 98.4375 99.9574C98.4375 97.7015 97.1777 95.6976 94.4414 95.6976C91.7051 95.6976 90.4453 97.7015 90.4453 99.9574C90.4453 102.213 91.7051 104.217 94.4414 104.217ZM94.4414 102.899C92.666 102.899 92.0156 101.522 92.0156 99.9574C92.0156 98.3988 92.666 97.0219 94.4414 97.0219C96.2168 97.0219 96.8672 98.3988 96.8672 99.9574C96.8672 101.522 96.2168 102.899 94.4414 102.899ZM99.9844 104.1H101.473V100.561H101.988H102.469L104.508 104.1H106.213L103.91 100.414C104.848 100.092 105.527 99.3011 105.527 98.2582C105.527 96.7054 104.209 95.8207 102.662 95.8207H99.9844V104.1ZM101.484 99.348V97.1508H102.674C103.523 97.1508 104.057 97.5961 104.057 98.2816C104.057 98.9027 103.588 99.3129 102.797 99.348H101.484ZM109.061 104.1H110.549V97.1508H113.139V95.8207H106.465V97.1508H109.061V104.1ZM117.504 104.217C120.24 104.217 121.5 102.213 121.5 99.9574C121.5 97.7015 120.24 95.6976 117.504 95.6976C114.768 95.6976 113.508 97.7015 113.508 99.9574C113.508 102.213 114.768 104.217 117.504 104.217ZM117.504 102.899C115.729 102.899 115.078 101.522 115.078 99.9574C115.078 98.3988 115.729 97.0219 117.504 97.0219C119.279 97.0219 119.93 98.3988 119.93 99.9574C119.93 101.522 119.279 102.899 117.504 102.899Z" fill="black"/>
</g>
<defs>
<clipPath id="clip0">
<rect width="708" height="122" fill="white"/>
</clipPath>
</defs>
</svg>
