<svg width="1440" height="61" viewBox="0 0 1440 61" fill="none" xmlns="http://www.w3.org/2000/svg">
<g clip-path="url(#clip0)">
<path d="M1446.11 -4.5L1446.5 51.75C1446.5 51.75 1443.76 50.88 1436.23 50.44C1428.69 50 1431.83 52.38 1423.66 50.33C1415.5 48.28 1412.99 50.33 1404.82 50.33C1396.66 50.33 1386.63 42.51 1381.61 42.51C1376.58 42.51 1372.81 39.9 1365.28 39.02C1357.74 38.15 1357.74 39.89 1348.95 38.61C1340.16 37.32 1339.53 40.34 1332.62 40.34C1325.71 40.34 1322.57 42.09 1316.92 41.65C1311.26 41.21 1307.5 43.4 1302.47 43.84C1297.45 44.28 1291.79 46.46 1284.88 48.65C1277.98 50.84 1275.46 51.27 1268.55 52.55C1261.65 53.83 1259.13 54.34 1250.34 55.21C1241.55 56.08 1241.55 56.52 1232.13 57.4C1222.71 58.27 1220.82 58.27 1210.77 58.71C1200.72 59.15 1206.21 55.71 1198.05 56.15C1189.88 56.59 1185.37 48.77 1177.2 49.65C1169.04 50.52 1167.78 52.71 1160.25 52.71C1152.71 52.71 1152.71 54.46 1146.43 52.71C1140.15 50.96 1124.1 60.02 1119.07 58.27C1114.05 56.52 1111.54 57.4 1107.77 55.21C1104 53.02 1100.86 54.77 1094.58 55.21C1088.3 55.65 1087.04 56.08 1075.74 55.21C1064.43 54.34 1068.83 56.08 1061.29 56.08C1053.75 56.08 1051.24 56.08 1045.59 55.21C1039.94 54.34 1038.05 55.21 1031.14 55.21C1024.23 55.21 1019.21 54.34 1011.04 53.9C1002.88 53.46 1003.51 53.9 997.86 54.34C992.21 54.78 991.58 53.9 984.67 53.03C977.76 52.16 973.99 51.72 964.57 50.27C955.15 48.82 931.91 46.03 928.14 45.59C924.37 45.15 920.6 43.4 916.84 41.65C913.07 39.9 911.81 41.65 903.02 40.34C894.23 39.03 894.85 42.53 889.2 41.65C883.55 40.78 879.15 42.09 871.61 41.21C864.07 40.34 860.31 41.21 854.02 41.65C847.74 42.09 843.97 36.09 836.43 36.52C828.89 36.95 827.64 37.39 816.33 38.71C805.03 40.02 805.03 39.15 796.86 38.71C788.69 38.27 781.79 40.9 778.02 41.33C774.25 41.77 769.23 44.26 763.57 44.26C757.92 44.26 755.41 44.26 749.75 44.26C744.1 44.26 742.21 44.14 735.93 45.46C729.65 46.77 725.25 48.52 719.71 49.4C714.17 50.27 706.41 48.96 698.87 51.15C691.33 53.34 690.08 53.7 681.91 55.34C673.75 56.98 674.37 54.9 666.21 52.28C658.04 49.66 661.81 50.09 652.39 48.78C642.97 47.47 619.73 49.22 614.08 49.65C608.43 50.09 609.68 50.96 604.03 52.27C598.38 53.58 597.12 53.14 590.84 53.58C584.56 54.02 574.51 53.14 568.23 51.83C561.95 50.52 557.55 51.83 551.9 51.83C546.25 51.83 543.74 51.83 533.06 51.83C522.38 51.83 521.13 51.83 516.73 51.83C512.33 51.83 503.54 51.83 499.14 51.83C494.74 51.83 487.21 51.83 482.81 51.83C478.41 51.83 474.65 51.83 468.99 51.83C463.34 51.83 441.98 49.64 436.33 49.21C430.68 48.77 409.95 53.91 403.67 51.71C397.39 49.51 395.51 50.4 388.6 49.09C381.69 47.78 360.34 49.09 356.57 48.65C352.8 48.21 348.4 49.09 344.64 48.65C340.87 48.21 335.22 48.65 330.19 47.78C325.17 46.91 321.4 49.97 317 49.97C312.6 49.97 306.95 50.84 301.3 50.84C295.65 50.84 291.88 50.28 287.48 52.03C283.08 53.78 278.69 52.47 273.66 52.03C268.64 51.59 264.24 52.16 259.21 51.28C254.19 50.41 249.16 49.97 246.65 48.22C244.14 46.47 234.09 48.22 230.95 45.6C227.81 42.98 222.47 48.22 217.76 48.22C213.05 48.22 208.34 48.22 202.06 48.22C195.78 48.22 183.22 44.94 170.66 40.57C158.1 36.2 157.71 40.51 150.71 41.51C143.71 42.51 138.56 37.51 130.71 37.51C122.86 37.51 116.7 38.51 105.71 38.51C94.72 38.51 98.43 40.57 90.58 40.57C82.73 40.57 71.74 44.79 63.89 44.79C56.04 44.79 45.05 51.2 35.63 51.2C26.21 51.2 23.7 51.2 16.79 51.2C9.89001 51.19 -2.03999 49 -2.03999 49L-3.48999 -4.5H1446.11Z" fill="#F1DAD9"/>
<path fill-rule="evenodd" clip-rule="evenodd" d="M45.344 21.752V29C44.528 27.992 41.408 25.256 36.32 25.256C30.512 25.256 25.568 29.48 25.568 35.96C25.568 42.44 30.512 46.616 36.32 46.616C41.408 46.616 44.528 43.928 45.344 42.92V49.5633C42.1414 50.4649 38.9443 51.13 35.91 51.13H26.7089C21.6708 48.1511 18.32 42.5963 18.32 35.96C18.32 25.976 25.904 18.44 35.408 18.44C40.88 18.44 44.192 20.744 45.344 21.752ZM1414.36 49.5073L1403.33 18.92H1395.08L1386.2 43.5436C1387.62 44.1173 1389.18 44.8614 1390.83 45.6446C1391.43 45.9294 1392.04 46.2195 1392.66 46.5084L1392.77 46.184H1405.64L1407.11 50.2174C1409.13 50.1315 1410.78 49.9294 1412.32 49.7418C1413.01 49.6566 1413.69 49.5743 1414.36 49.5073ZM1180.01 49.5811L1175.18 41.432C1178.92 39.56 1181.61 35.864 1181.61 30.872C1181.61 23.432 1175.56 18.92 1169.13 18.92H1155.79V52.9211C1157 52.7685 1158.49 52.64 1160.53 52.64C1161.47 52.64 1162.31 52.6059 1163.08 52.5445V42.824H1167.88L1172.37 50.4427C1173.77 50.1082 1175.4 49.8014 1177.48 49.58C1178.36 49.4858 1179.21 49.4934 1180.01 49.5811ZM948.118 47.9353C951.023 44.8056 952.79 40.5969 952.79 35.96C952.79 26.216 945.062 18.44 935.366 18.44C925.622 18.44 917.894 26.216 917.894 35.96C917.894 38.2776 918.336 40.4883 919.141 42.5107C922.237 43.9136 925.332 45.1586 928.42 45.52C929.011 45.5889 930.079 45.7156 931.498 45.8857C927.61 44.3214 925.142 40.4243 925.142 35.96C925.142 30.104 929.318 25.256 935.366 25.256C941.366 25.256 945.542 30.104 945.542 35.96C945.542 41.3021 942.01 45.832 936.774 46.5244C940.136 46.9349 944.121 47.4278 948.118 47.9353ZM697.803 51.4711V42.776H703.659C710.283 42.776 716.331 38.36 716.331 30.872C716.331 23.336 710.283 18.92 703.659 18.92H690.507V53H692.384C693.912 52.5937 695.561 52.1212 697.803 51.4711ZM487.789 51.76V18.92H480.541V51.76H483.09H487.789ZM278.666 52.5306L266.547 18.92H258.291L247.604 48.559C249.285 49.4513 251.737 49.9546 254.471 50.4043L255.987 46.184H268.851L270.906 51.7943C271.898 51.8213 272.906 51.8695 273.94 51.96C275.131 52.0644 276.288 52.2179 277.418 52.3678C277.837 52.4234 278.253 52.4786 278.666 52.5306ZM262.419 28.28L258.435 39.32H266.403L262.419 28.28ZM697.803 35.96H703.659C706.779 35.96 709.083 34.136 709.083 30.872C709.083 27.608 706.779 25.736 703.659 25.736H697.803V35.96ZM1169.13 25.736H1163.08V36.008H1169.13C1172.06 36.008 1174.36 34.088 1174.36 30.872C1174.36 27.656 1172.06 25.736 1169.13 25.736ZM1399.2 28.28L1395.22 39.32H1403.19L1399.2 28.28Z" fill="black"/>
<path d="M1446.11 -4.5L1446.5 51.75C1446.5 51.75 1443.76 50.88 1436.23 50.44C1428.69 50 1431.83 52.38 1423.66 50.33C1415.5 48.28 1412.99 50.33 1404.82 50.33C1396.66 50.33 1386.63 42.51 1381.61 42.51C1376.58 42.51 1372.81 39.9 1365.28 39.02C1357.74 38.15 1357.74 39.89 1348.95 38.61C1340.16 37.32 1339.53 40.34 1332.62 40.34C1325.71 40.34 1322.57 42.09 1316.92 41.65C1311.26 41.21 1307.5 43.4 1302.47 43.84C1297.45 44.28 1291.79 46.46 1284.88 48.65C1277.98 50.84 1275.46 51.27 1268.55 52.55C1261.65 53.83 1259.13 54.34 1250.34 55.21C1241.55 56.08 1241.55 56.52 1232.13 57.4C1222.71 58.27 1220.82 58.27 1210.77 58.71C1200.72 59.15 1206.21 55.71 1198.05 56.15C1189.88 56.59 1185.37 48.77 1177.2 49.65C1169.04 50.52 1167.78 52.71 1160.25 52.71C1152.71 52.71 1152.71 54.46 1146.43 52.71C1140.15 50.96 1124.1 60.02 1119.07 58.27C1114.05 56.52 1111.54 57.4 1107.77 55.21C1104 53.02 1100.86 54.77 1094.58 55.21C1088.3 55.65 1087.04 56.08 1075.74 55.21C1064.43 54.34 1068.83 56.08 1061.29 56.08C1053.75 56.08 1051.24 56.08 1045.59 55.21C1039.94 54.34 1038.05 55.21 1031.14 55.21C1024.23 55.21 1019.21 54.34 1011.04 53.9C1002.88 53.46 1003.51 53.9 997.86 54.34C992.21 54.78 991.58 53.9 984.67 53.03C977.76 52.16 973.99 51.72 964.57 50.27C955.15 48.82 931.91 46.03 928.14 45.59C924.37 45.15 920.6 43.4 916.84 41.65C913.07 39.9 911.81 41.65 903.02 40.34C894.23 39.03 894.85 42.53 889.2 41.65C883.55 40.78 879.15 42.09 871.61 41.21C864.07 40.34 860.31 41.21 854.02 41.65C847.74 42.09 843.97 36.09 836.43 36.52C828.89 36.95 827.64 37.39 816.33 38.71C805.03 40.02 805.03 39.15 796.86 38.71C788.69 38.27 781.79 40.9 778.02 41.33C774.25 41.77 769.23 44.26 763.57 44.26C757.92 44.26 755.41 44.26 749.75 44.26C744.1 44.26 742.21 44.14 735.93 45.46C729.65 46.77 725.25 48.52 719.71 49.4C714.17 50.27 706.41 48.96 698.87 51.15C691.33 53.34 690.08 53.7 681.91 55.34C673.75 56.98 674.37 54.9 666.21 52.28C658.04 49.66 661.81 50.09 652.39 48.78C642.97 47.47 619.73 49.22 614.08 49.65C608.43 50.09 609.68 50.96 604.03 52.27C598.38 53.58 597.12 53.14 590.84 53.58C584.56 54.02 574.51 53.14 568.23 51.83C561.95 50.52 557.55 51.83 551.9 51.83C546.25 51.83 543.74 51.83 533.06 51.83C522.38 51.83 521.13 51.83 516.73 51.83C512.33 51.83 503.54 51.83 499.14 51.83C494.74 51.83 487.21 51.83 482.81 51.83C478.41 51.83 474.65 51.83 468.99 51.83C463.34 51.83 441.98 49.64 436.33 49.21C430.68 48.77 409.95 53.91 403.67 51.71C397.39 49.51 395.51 50.4 388.6 49.09C381.69 47.78 360.34 49.09 356.57 48.65C352.8 48.21 348.4 49.09 344.64 48.65C340.87 48.21 335.22 48.65 330.19 47.78C325.17 46.91 321.4 49.97 317 49.97C312.6 49.97 306.95 50.84 301.3 50.84C295.65 50.84 291.88 50.28 287.48 52.03C283.08 53.78 278.69 52.47 273.66 52.03C268.64 51.59 264.24 52.16 259.21 51.28C254.19 50.41 249.16 49.97 246.65 48.22C244.14 46.47 234.09 48.22 230.95 45.6C227.81 42.98 222.47 48.22 217.76 48.22C213.05 48.22 208.34 48.22 202.06 48.22C195.78 48.22 183.22 44.94 170.66 40.57C158.1 36.2 157.71 40.51 150.71 41.51C143.71 42.51 138.56 37.51 130.71 37.51C122.86 37.51 116.7 38.51 105.71 38.51C94.72 38.51 98.43 40.57 90.58 40.57C82.73 40.57 71.74 44.79 63.89 44.79C56.04 44.79 45.05 51.2 35.63 51.2C26.21 51.2 23.7 51.2 16.79 51.2C9.89001 51.19 -2.03999 49 -2.03999 49L-3.48999 -4.5H1446.11Z" stroke="black"/>
</g>
<defs>
<clipPath id="clip0">
<rect width="1440" height="61" fill="white"/>
</clipPath>
</defs>
</svg>
