<svg width="946" height="526" viewBox="0 0 946 526" fill="none" xmlns="http://www.w3.org/2000/svg">
<g clip-path="url(#clip0)">
<path d="M945.46 158.69C945.46 158.69 941.61 171.54 937.75 171.54C933.89 171.54 926.18 177.32 926.18 177.32C926.18 177.32 914.62 185.04 912.69 185.04C910.76 185.04 903.05 190.82 897.91 190.82C892.77 190.82 882.48 183.75 882.48 183.75C882.48 183.75 874.77 175.4 870.92 175.4H854.21C854.21 175.4 847.14 177.97 843.93 180.54C840.72 183.11 837.5 183.11 834.29 185.68C833.186 186.618 832.137 187.62 831.15 188.68C830.55 189.3 829.93 189.95 829.33 190.61C826.58 193.61 824 196.61 824 196.61C824 196.61 818.86 201.76 815 206.25C811.14 210.74 808.57 214.61 804.07 218.46C799.57 222.31 798.29 225.53 789.93 228.1C781.57 230.67 774.51 233.24 768.73 233.24C762.95 233.24 762.3 233.24 752.66 228.75C745.981 225.735 739.113 223.157 732.1 221.03C732.1 221.03 728.24 217.18 719.25 216.54C714.075 216.186 708.923 215.542 703.82 214.61C703.82 214.61 697.4 216.54 694.18 217.82C690.96 219.1 689.45 215.27 685.83 213.32C677.47 208.82 676.83 200.47 672.33 204.32L667.83 208.17C667.83 208.17 662.69 218.45 658.83 213.96C654.97 209.47 651.76 204.96 647.26 200.46C642.76 195.96 643.4 196.6 638.9 190.18C634.4 183.76 632.48 181.18 627.98 174.75C623.48 168.32 622.2 167.68 618.34 160.62C614.48 153.56 624.12 158.05 614.48 153.55C604.84 149.05 605.48 152.26 600.35 147.12C595.22 141.98 586.85 134.91 582.99 129.12C579.13 123.33 578.5 119.48 572.71 114.98C566.92 110.48 566.93 107.27 561.14 104.05C555.35 100.83 557.29 101.48 550.22 96.98C543.15 92.48 544.44 95.7 539.94 89.91C535.44 84.12 536.72 80.27 535.44 84.13C534.16 87.99 536.72 91.84 538.01 96.34C539.3 100.84 545.08 100.2 539.29 100.84C533.5 101.48 539.94 107.91 533.51 101.48C527.08 95.05 536.72 95.7 524.51 91.84C512.3 87.98 512.95 91.84 505.88 90.56C498.81 89.28 500.09 92.49 497.52 85.42C494.95 78.35 489.81 71.92 486.6 68.06C483.39 64.2 486.6 66.14 480.17 59.71C473.74 53.28 478.89 49.43 470.53 51.36C462.17 53.29 464.1 56.5 457.68 54.57C451.26 52.64 437.11 40.43 430.68 36.57C424.25 32.71 419.75 28.85 412.04 28.85C404.33 28.85 392.12 26.28 385.69 28.21C379.26 30.14 378.69 32.14 371.58 34.01C364.47 35.88 363.23 33.37 358.09 36.59C352.95 39.81 353.59 41.73 345.88 43.65C338.17 45.57 336.24 50.08 329.81 46.87C323.38 43.66 330.45 48.15 316.96 43.65C303.47 39.15 292.54 30.8 283.54 31.44C274.54 32.08 271.97 30.16 265.54 33.37C259.11 36.58 260.4 38.51 249.47 38.51C238.54 38.51 239.83 40.44 230.19 39.8C220.55 39.16 221.19 43.01 213.48 39.8C205.77 36.59 204.48 37.87 201.27 34.66C198.06 31.45 198.06 42.37 205.77 41.08C205.77 41.08 218.12 44.19 220.18 43.9C222.24 43.61 225.49 42.72 228.18 42.72C230.87 42.72 234.07 42.42 236.18 42.72C238.29 43.02 241.48 43.31 242.95 42.72C244.42 42.13 245.01 42.42 248.26 41.83C251.51 41.24 252.97 41.54 256.51 40.95C260.05 40.36 260.04 40.65 264.17 39.48C268.3 38.31 265.64 38.59 270.65 38.3C275.66 38.01 272.42 37.12 278.9 38.3C285.38 39.48 282.14 38.89 288.03 40.06C293.92 41.23 289.21 38 297.46 41.54C305.71 45.08 303.06 43.31 309.84 46.25C316.62 49.19 314.55 49.25 319.27 50.38C323.99 51.51 336.65 52.44 340.48 50.97C344.31 49.5 348.14 50.97 350.8 48.9C353.46 46.83 355.8 45.96 359.64 43.9C363.48 41.84 366.12 38.9 369.64 38.9C373.16 38.9 374.36 38.6 379.64 36.54C384.92 34.48 386.12 33.3 390.54 33.89C394.96 34.48 393.2 35.36 399.09 38.01C404.98 40.66 404.09 38.9 410.29 41.55C416.49 44.2 416.77 44.49 421.48 45.38C426.19 46.27 428.55 44.2 432.09 46.85C435.63 49.5 438.28 47.44 441.22 49.8C444.16 52.16 446.82 55.4 450.06 55.99C452.784 56.4312 455.462 57.1208 458.06 58.05C461.6 59.23 464.25 59.23 466.06 61.29C467.87 63.35 468.41 62.17 471.65 65.71C474.89 69.25 474.9 68.36 478.43 73.71C481.96 79.06 481.38 79.01 485.8 84.31C490.22 89.61 489.63 86.67 491.69 90.8C493.75 94.93 495.52 95.8 496.69 96.1C497.86 96.4 497.28 95.8 501.99 96.69C506.7 97.58 506.99 95.22 511.42 99.05C515.85 102.88 516.42 102.29 521.42 105.23C526.42 108.17 525.55 108.18 529.08 109.65C532.61 111.12 536.15 112.31 543.52 113.19C550.89 114.07 549.12 112.01 554.13 115.84C559.14 119.67 559.43 117.61 561.49 121.14C563.55 124.67 561.79 124.14 567.09 127.33C572.39 130.52 575.64 132.33 577.99 136.76C580.34 141.19 575.64 141.18 582.41 145.31C589.18 149.44 586.24 146.78 589.19 149.43C592.14 152.08 595.08 156.5 600.09 159.43C605.1 162.36 607.75 160.9 607.75 165.03V173.57C607.75 177.99 606.87 177.4 610.41 182.12C613.95 186.84 613.06 188.31 617.48 191.25C621.9 194.19 628.09 201.57 633.09 203.92C638.09 206.27 639.58 208.05 644.88 212.47C650.18 216.89 652.88 217.18 652.54 220.13C652.2 223.08 652.25 225.73 648.71 225.13C645.17 224.53 646.94 224.83 640.46 224.83C633.98 224.83 633.39 224.24 630.74 226.01C628.09 227.78 624.55 225.72 625.14 228.37C625.73 231.02 624.25 232.49 629.56 233.37C634.87 234.25 640.17 232.19 639.56 234.55C638.95 236.91 635.14 237.49 632.78 239.55C630.42 241.61 629.54 243.97 625.71 245.14C621.88 246.31 612.15 245.14 609.21 245.44C605.651 245.6 602.107 245.994 598.6 246.62C594.47 247.5 587.11 248.68 587.11 248.68C584.149 250.209 581.449 252.197 579.11 254.57C575.87 258.11 572.04 258.11 569.98 262.23C567.92 266.35 566.74 266.65 564.98 269.6C563.22 272.55 563.51 274.32 560.56 272.84C557.61 271.36 550.25 265.18 546.42 262.84C542.59 260.5 540.23 259.9 536.69 258.72C533.15 257.54 530.21 250.72 524.32 252.24C518.43 253.76 515.77 251.94 512.53 255.18C509.29 258.42 505.46 258.72 502.53 262.55C499.6 266.38 493.69 268.74 486.03 272.55C478.37 276.36 480.14 279.03 471.59 278.15C463.04 277.27 466 282.86 460.99 277.56C455.98 272.26 459.81 270.48 452.74 270.48C445.67 270.48 448.91 269.01 443.31 269.01C437.71 269.01 432.99 266.95 427.1 266.95C421.21 266.95 419.44 268.42 412.96 265.77C406.48 263.12 405.89 265.18 399.96 261.06C394.03 256.94 394.96 258.11 389.06 254.28C383.16 250.45 385.82 251.63 381.4 248.09C376.98 244.55 365.19 239.84 361.95 236.3C358.71 232.76 354.29 231.3 351.95 226.58C349.61 221.86 346.65 223.34 345.18 217.15C343.71 210.96 343.7 209.49 339.28 205.66C334.86 201.83 338.11 199.77 331.92 199.18C325.73 198.59 326.02 198.88 323.37 197.41C320.72 195.94 317.19 189.75 317.48 184.74C317.77 179.73 319.25 174.74 315.42 174.43C311.59 174.12 307.17 174.43 305.42 177.37C303.67 180.31 304.53 185.03 301.59 185.92C298.65 186.81 295.7 187.69 292.16 184.15C288.62 180.61 287.44 177.67 283.32 177.96C279.2 178.25 276.54 174.43 274.48 178.85C272.42 183.27 273.01 185.62 270.06 186.8C267.11 187.98 265.06 188.87 261.52 187.39C257.98 185.91 255.33 182.97 252.09 185.62C248.85 188.27 247.09 185.03 245.31 187.69C243.53 190.35 242.31 193.58 240.01 191.22C237.71 188.86 232.64 187.1 227.34 187.98C222.04 188.86 222.62 187.98 219.34 189.75C216.06 191.52 215.51 192.4 210.21 193.29C204.91 194.18 201.07 196.23 195.77 193.29C190.47 190.35 188.4 188.87 185.45 190.04C182.5 191.21 180.74 189.16 178.97 191.52C177.2 193.88 176.91 195.05 172.49 196.82C168.07 198.59 162.77 200.06 160.11 201.54C157.45 203.02 153.93 203.6 151.57 206.54C149.21 209.48 145.68 210.08 143.91 213.62C142.14 217.16 138.91 218.33 139.19 221.28C139.47 224.23 138.02 231.89 138.02 231.89C138.02 231.89 139.19 236.89 139.78 240.43C140.37 243.97 139.19 251.63 139.19 251.63C139.19 251.63 139.78 255.46 135.36 255.46C130.94 255.46 120.36 256.05 114.74 256.05C109.91 256.155 105.08 255.857 100.3 255.16C93.23 254.28 93.23 255.16 84.39 253.39C75.55 251.62 78.79 251.04 70.54 250.45C62.29 249.86 58.46 247.8 54.04 250.45C50.1531 252.985 46.4137 255.74 42.84 258.7C42.84 258.7 40.78 261.06 38.72 267.24C36.66 273.42 38.72 273.14 34.89 276.38C31.06 279.62 30.47 277.85 29.58 283.74C28.69 289.63 24.28 294.94 28.7 297.3C33.12 299.66 35.18 298.77 36.95 302.01C38.72 305.25 47.85 303.19 41.37 306.73C34.89 310.27 34 309.97 31.06 311.73C28.12 313.49 31.94 317.32 24.57 316.44C17.2 315.56 16.03 321.44 11.57 317.03C7.11004 312.62 7.44004 316.15 5.09004 312.03C2.74004 307.91 3.91004 310.26 1.26004 306.73C-1.38996 303.2 0.94004 314.87 0.94004 314.87C2.03633 316.352 3.01594 317.917 3.87004 319.55C5.04004 321.89 3.58004 324.23 6.80004 324.55C10.02 324.87 8.55004 326.3 11.8 325.13C15.05 323.96 13.85 324.84 18.24 323.38C22.63 321.92 22.33 322.5 25.24 321.04C28.15 319.58 27 320.16 31.39 318.7C35.78 317.24 35.48 315.77 39.87 314.01C44.26 312.25 46.02 312.55 48.07 308.75C50.12 304.95 55.07 303.75 50.99 301.75C46.91 299.75 43.68 300.88 41.34 298.24C39 295.6 37.24 297.66 37.53 292.68C37.82 287.7 36.36 288.29 38.99 283.9C41.62 279.51 40.75 279.22 44.55 276C48.35 272.78 49.82 271.32 51.28 268.4C52.74 265.48 52.45 266.93 53.62 263.71C54.79 260.49 54.8 259.91 58.62 259.32C62.44 258.73 65.06 257.86 68.62 258.45C72.18 259.04 77.98 258.15 82.37 259.91C85.5067 261.219 88.7354 262.295 92.03 263.13C93.49 263.42 96.71 265.47 100.81 265.76C104.91 266.05 105.49 267.23 110.75 265.76C116.01 264.29 119.24 264.3 121.87 262.84C124.5 261.38 127.73 261.67 131.24 261.67C134.75 261.67 136.5 263.67 140.31 260.49C144.12 257.31 144.41 259.03 145.58 254.64C146.75 250.25 147.58 252.59 146.75 244.69C145.92 236.79 144.11 235.62 144.7 231.23C145.29 226.84 142.94 226.23 146.16 222.16C149.38 218.09 148.79 213.97 152.6 211.92C156.41 209.87 160.79 208.12 163.43 206.65C166.07 205.18 169.57 203.43 173.08 203.73C176.59 204.03 176.59 203.73 179.81 202.26C183.03 200.79 184.2 199.63 187.42 199.34C190.64 199.05 202.34 199.63 205.86 199.63C209.38 199.63 210.86 199.92 213.76 198.17C216.554 196.343 219.613 194.96 222.83 194.07C226.92 192.9 228.39 191.73 231.9 192.9L239.8 195.53C242.43 196.41 243.6 195.83 246.8 194.07C250 192.31 251.48 190.27 254.41 191.44C257.34 192.61 262.31 191.14 264.65 191.14C266.99 191.14 269.65 193.49 272.84 191.14C276.03 188.79 275.19 187.63 278.7 186.76C282.21 185.89 281.04 182.95 284.84 186.17C288.64 189.39 288.65 188.51 291.57 190.85C294.49 193.19 293.91 193.78 298.3 194.36C302.69 194.94 302.4 192.02 304.45 196.12C306.5 200.22 303.86 199.92 308.54 201.39C313.22 202.86 311.76 201.39 315.86 203.14C319.96 204.89 320.86 205.19 323.76 207.53C326.66 209.87 338.98 213.09 338.68 216.89C338.38 220.69 341.61 223.89 343.68 226.89C345.75 229.89 347.48 230.7 350.41 235.38C353.34 240.06 354.21 242.11 358.89 245.38C363.57 248.65 365.62 251.23 370.89 252.99C376.16 254.75 375.89 253.28 380.55 257.08C385.21 260.88 385.81 259.72 389.03 261.77C392.25 263.82 399.27 266.45 403.66 268.5C408.05 270.55 408.93 270.84 413.66 271.42C418.39 272 417.47 272.88 423.32 272.59C429.17 272.3 430.05 272.01 435.02 273.18C439.99 274.35 439.71 273.47 443.22 275.52C446.73 277.57 448.22 276.4 449.65 279.03C451.08 281.66 452.87 279.03 451.12 281.66C449.37 284.29 447.02 286.66 444.68 287.52C442.34 288.38 441.17 288.1 437.36 289.27C433.55 290.44 431.22 291.03 430.63 293.37C430.04 295.71 425.07 294.83 427.71 296.59C430.35 298.35 434.71 298.93 434.71 298.93L441.44 299.22C441.44 299.22 448.76 297.46 447.88 300.98C447.428 302.873 446.84 304.731 446.12 306.54C445.059 308.044 444.084 309.606 443.2 311.22C442.32 312.97 437.05 325.56 435 327.31C434.372 327.86 433.8 328.469 433.29 329.13C432.61 330.172 431.811 331.132 430.91 331.99C429.203 333.399 427.632 334.966 426.22 336.67C425.35 337.85 424.76 339.6 423.3 340.77C421.84 341.94 439.39 326.14 440.56 322.92C441.73 319.7 444.37 317.65 445.83 313.56C447.29 309.47 448.17 305.95 451.1 303.02C454.03 300.09 454.02 300.1 457.24 296.59C460.46 293.08 461.05 291.03 464.24 291.03C467.43 291.03 468.63 291.32 470.98 290.15C473.33 288.98 472.98 290.15 476.53 286.05C480.08 281.95 481.22 280.79 484.14 279.05C487.06 277.31 489.41 277 493.51 274.37C497.61 271.74 498.19 269.1 502.58 268.52C506.97 267.94 508.43 265.3 512.82 266.17C517.21 267.04 517.5 265.59 523.06 266.76C528.62 267.93 527.45 265.88 533.3 267.93C539.15 269.98 540.03 269.98 544.42 272.61C548.667 275.424 552.769 278.451 556.71 281.68C556.71 281.68 562.27 283.73 564.61 281.39C566.95 279.05 569.61 277.29 572.51 274.39C575.105 271.785 577.948 269.441 581 267.39C585.39 264.17 586.85 261.83 590.07 261.24C593.29 260.65 595.34 256.85 598.56 256.56C601.78 256.27 601.77 254.22 607.04 255.09C612.31 255.96 612.6 253.92 617.58 254.51C622.56 255.1 623.14 255.97 626.94 255.09C630.74 254.21 631.04 255.09 633.38 252.17C635.72 249.25 641.86 241.34 646.84 238.42C651.82 235.5 654.45 231.98 657.37 232.86C660.29 233.74 666.44 229.05 666.44 229.05C666.44 229.05 673.17 221.74 676.1 223.79C679.03 225.84 680.2 224.96 681.66 227.3C683.12 229.64 685.75 231.1 690.14 229.3C694.53 227.5 696.87 226.09 700.68 225.79C704.49 225.49 703.31 224.33 708.58 225.5C713.85 226.67 715.02 226.96 718.82 227.55C722.62 228.14 723.82 225.79 729.06 228.43C734.3 231.07 734.91 231.06 738.72 233.11C742.53 235.16 742.82 234.28 746.33 236.91C749.84 239.54 748.33 238.38 752.76 240.72C757.19 243.06 754.52 241.59 759.2 243.64C763.88 245.69 765.93 245.98 768.85 243.94C774.076 240.591 779.556 237.655 785.24 235.16C790.24 233.16 794.6 231.06 798.41 230.77C802.66 230.523 806.648 228.633 809.53 225.5C813.33 221.7 815.09 222.57 818.31 218.77C821.53 214.97 824.45 212.04 826.5 209.11C828.55 206.18 829.13 204.11 832.64 200.34C836.15 196.57 836.74 193.9 839.08 191.56C841.42 189.22 841.72 188.05 845.81 186C849.9 183.95 849.32 182.19 854.01 181.9C858.7 181.61 860.15 178.97 862.2 181.61C864.25 184.25 866 182.78 867.47 186.29C868.94 189.8 866.3 188.05 870.68 191.56C875.06 195.07 875.95 194.78 877.68 195.95C879.41 197.12 882.68 196.82 880.6 198.58C879.6 199.46 878.92 200.41 878.04 201.1C877.498 201.524 876.875 201.831 876.209 202.004C875.543 202.176 874.849 202.208 874.17 202.1C871.31 201.88 870.76 202.49 868.82 202.55C867.967 202.574 867.113 202.52 866.27 202.39C863.293 202.119 860.292 202.519 857.49 203.56L853.1 209.42C852.729 211.335 852.139 213.201 851.34 214.98C849.88 218.49 853.1 213.81 855.44 210.29C857.78 206.77 857.78 205.91 860.71 205.29C863.64 204.67 883.53 199.44 887.63 198.85C891.73 198.26 891.43 200.32 896.41 197.68C901.39 195.04 900.79 195.05 906.06 193.59C911.33 192.13 913.67 192.71 918.94 190.37C924.21 188.03 926.25 187.15 930.64 183.37" fill="black"/>
<path d="M264.6 191.14C265.1 194.2 263.85 196.72 263.85 198.61C263.85 200.5 262.59 204.28 263.85 206.17C265.11 208.06 261.96 208.06 265.1 211.17C268.24 214.28 264.47 214.32 268.25 218.1C272.03 221.88 273.25 220.62 273.92 225.03C274.59 229.44 275.81 233.84 275.18 237.03C274.55 240.22 273.29 249.62 273.29 249.62C273.29 249.62 268.88 257.81 265.1 262.21C261.32 266.61 258.81 271.66 256.29 273.55C253.77 275.44 250.62 275.43 248.1 279.84C245.58 284.25 244.33 281.1 242.44 287.4C240.55 293.7 238.69 298.67 238.69 298.67L234.91 310.67C234.91 310.67 231.13 315.08 231.76 320.12C232.39 325.16 226.1 332.71 226.1 332.71L220.43 342.78C220.43 342.78 211.62 344.67 212.88 349.08L214.14 353.49L217.28 359.15L209.69 366.67L199.61 367.93C199.61 367.93 196.47 362.26 195.21 366.67C193.95 371.08 196.47 367.93 193.95 371.08C192.337 373.175 191.061 375.51 190.17 378C190.17 378 187.02 384.3 181.36 386.19C175.7 388.08 170.02 388.08 168.13 391.19C166.808 393.586 165.755 396.122 164.99 398.75L160.58 402.53L151.13 404.42L147.99 413.86L151.13 425.19L151.76 432.75C151.76 432.75 150.5 434.64 146.1 438.42C141.7 442.2 140.43 445.34 136.02 445.97C133.231 446.492 130.752 448.072 129.1 450.38C129.1 450.38 127.21 456.05 124.1 457.93C120.99 459.81 122.84 462.34 115.91 462.93C108.98 463.52 110.25 467.34 103.32 466.71C96.39 466.08 86.95 465.45 83.8 467.97C80.65 470.49 82.54 472.38 74.36 472.38H61.11C61.11 472.38 54.18 474.89 48.5201 474.26C42.8601 473.63 36.52 476.78 33.4 474.89C31.0445 473.63 28.4912 472.781 25.85 472.38L19.55 471.12L14.55 486.23M232.2 427.23C235.098 426.24 237.933 425.074 240.69 423.74C244.97 421.6 244.97 425.16 253.52 421.6C262.07 418.04 253.52 421.6 257.09 419.46C260.66 417.32 259.94 418.74 263.51 422.31C267.08 425.88 267.07 422.31 274.2 426.59C281.33 430.87 280.62 423.02 280.62 423.02L289.89 415.18L300.59 407.34L320.59 395.93C323.739 394.512 326.631 392.583 329.15 390.22C332.71 386.66 332.71 388.08 340.56 389.51C348.41 390.94 350.56 385.94 350.56 385.94L361.25 381.67L371.25 377.39L378.38 371.68C381.218 369.397 384.332 367.482 387.65 365.98C390.869 364.565 393.969 362.893 396.92 360.98C396.92 360.98 405.47 355.98 411.18 352.42C416.89 348.86 423.23 340.61 423.23 340.61L425.18 338.43L429.18 334.17L436.69 326.66L439.94 320.9L443.2 314.64" stroke="black" stroke-width="1.22" stroke-miterlimit="10"/>
<path d="M648.82 86.47C648.82 86.47 654.61 87.62 658.09 88.78C659.092 89.1101 660.016 89.6402 660.807 90.3381C661.597 91.036 662.238 91.8871 662.69 92.84L669.06 95.73C669.06 95.73 676.06 91.73 677.17 96.89C678.28 102.05 674.27 102.68 675.43 106.16C675.796 107.167 676.413 108.063 677.224 108.763C678.035 109.463 679.011 109.944 680.06 110.16C680.06 110.16 682.96 109 688.75 111.32C694.54 113.64 697.44 112.48 699.18 116.53C700.92 120.58 706.18 117.69 705.55 122.32C704.92 126.95 700.92 126.96 702.65 130.43C704.38 133.9 703.81 135.65 709.02 135.65C714.23 135.65 713.08 133.91 717.71 135.07C722.34 136.23 718.29 128.12 722.34 136.22C726.39 144.32 724.66 151.28 728.72 153.6C732.78 155.92 733.35 155.34 736.24 157.07C738.559 158.609 740.72 160.374 742.69 162.34C742.69 162.34 749.06 165.81 753.11 164.65C757.16 163.49 754.85 161.76 760.64 162.92C766.43 164.08 767.64 162.92 772.8 164.07C777.96 165.22 775.7 162.34 781.49 165.23C787.28 168.12 785.49 165.23 790.17 168.71C794.85 172.19 797.7 172.18 799.44 175.08C801.18 177.98 798.86 173.34 801.18 177.97C803.5 182.6 805.81 180.87 808.13 185.5C810.45 190.13 805.23 186.66 810.45 190.14C815.67 193.62 802.92 181.45 810.45 190.14C817.98 198.83 824.9 193.8 824.04 196.6C823.18 199.4 829.37 190.6 829.37 190.6L834.37 185.7C834.37 185.7 829.6 180.89 826.12 181.47C822.64 182.05 815.7 183.21 813.96 179.15C812.22 175.09 811.07 169.31 805.85 169.89C800.63 170.47 798.08 167.81 795.3 166.95C792.52 166.09 786.01 164.14 784.51 164.14C783.01 164.14 769.86 160.65 765.23 161.78C760.6 162.91 756.23 160.92 755.16 161.78C754.09 162.64 746.69 166.38 744.69 164.36C741.096 160.73 737.307 157.298 733.34 154.08C730.12 151.72 728.84 148.29 727.77 145.08C726.7 141.87 725.2 141.87 726.91 138.87C728.62 135.87 730.34 136.3 728.62 132.87C726.9 129.44 728.84 130.3 726.27 127.52C723.7 124.74 721.34 126.45 721.77 122.38C722.2 118.31 725.41 119.38 722.63 115.73C719.85 112.08 719.63 112.95 718.56 112.73C717.49 112.51 714.92 113.15 716.63 110.16C718.34 107.17 717.06 109.3 718.56 105.87C720.06 102.44 721.13 103.52 720.27 100.09C719.41 96.66 721.34 95.16 718.77 93.66C716.2 92.16 717.05 88.19 713 89.82C708.95 91.45 708.94 91.44 706.92 93.82C704.9 96.2 705.29 95.82 702.46 93.82C702.46 93.82 701.3 97.63 699.21 98.28C692.73 100.28 693.95 105.98 691.11 100.28C688.27 94.58 687.46 91.77 684.62 92.18C681.78 92.59 682.19 90.56 679.35 90.56C676.51 90.56 675.71 87.72 672.46 88.56C669.21 89.4 666.38 84.56 663.95 86.13C661.52 87.7 653.59 88.73 648.84 86.42L648.82 86.47Z" fill="black"/>
<path d="M758.6 238.58C758.6 238.58 754.54 254.85 752.1 261.35C750.627 265.515 750.071 269.95 750.47 274.35C750.285 277.837 749.162 281.209 747.22 284.11L743.97 288.99C743.97 288.99 743.15 296.31 742.34 301.99C741.53 307.67 740.71 306.06 741.53 313.38C742.35 320.7 742.34 326.38 742.34 326.38C742.34 326.38 740.71 327.19 739.09 335.33C737.47 343.47 735.02 342.65 736.65 348.33C737.094 350.031 737.103 351.816 736.676 353.522C736.25 355.227 735.402 356.798 734.21 358.09L728.51 362.16L716.31 365.41L709.8 373.55L706.55 379.24L708.18 384.93L717.94 387.37L716.31 397.14L725.31 410.14C725.31 410.14 726.12 406.89 731 406.89C735.88 406.89 735.88 406.89 739.14 410.95C742.4 415.01 743.2 417.46 749.71 421.53C756.22 425.6 753.77 418.27 756.21 425.6C757.614 429.526 758.437 433.636 758.65 437.8L757.03 449.18C757.03 449.18 752.96 468.71 757.84 472.77C762.72 476.83 761.91 484.98 766.79 490.67C771.67 496.36 769.23 495.55 772.48 502.06M752.69 228.74C752.69 228.74 735.04 245.9 731.78 250.74C728.52 255.58 726.09 251.55 724.46 257.25C722.83 262.95 717.14 265.38 717.14 265.38L710.64 271.89C710.64 271.89 703.31 269.45 699.25 275.14L695.18 280.84L690.3 291.41L684.61 297.92L672.4 306.87C672.4 306.87 666.69 310.14 662.62 310.14C659.078 310.036 655.535 310.308 652.05 310.95C647.17 311.77 650.26 315.06 647.34 320.41C644.42 325.76 642.47 327.72 640.03 329.67C637.59 331.62 635.16 333.08 632.73 336.48C630.3 339.88 627.86 343.79 627.86 343.79C626.651 344.333 625.633 345.227 624.937 346.356C624.242 347.484 623.902 348.796 623.96 350.12C623.96 354.99 624.45 357.91 621.52 358.89C618.59 359.87 621.04 361.81 614.22 359.38C607.4 356.95 609.35 356.94 602.53 357.91C595.71 358.88 595.22 358.4 590.84 361.32C586.46 364.24 584.02 364.73 578.66 367.65C573.3 370.57 566.98 370.58 564.54 373.5C562.1 376.42 558.21 380.32 558.21 380.32C558.21 380.32 557.21 383.73 552.85 387.62M586.94 260.04C583.54 264.91 584.02 268.32 585.48 270.76C586.472 272.58 587.148 274.554 587.48 276.6C587.883 277.568 588.003 278.631 587.826 279.665C587.649 280.699 587.182 281.661 586.48 282.44C584.04 285.37 585.48 286.83 581.12 288.78C576.76 290.73 572.35 294.13 569.43 296.08C566.51 298.03 565.05 299.49 560.18 302.41C555.31 305.33 553.85 303.87 550.92 306.8C548.985 308.915 547.495 311.397 546.54 314.1C546.54 314.1 548.49 317.51 545.54 319.95C543.388 321.523 540.874 322.528 538.23 322.87C538.23 322.87 533.36 325.3 531.9 329.69C530.44 334.08 524.59 336.02 524.59 336.02C524.59 336.02 522.16 338.45 514.85 338.94C507.54 339.43 505.11 338.94 503.16 342.35C501.21 345.76 512.91 344.78 501.22 345.76C489.53 346.74 486.61 343.81 486.61 349.65C486.61 355.49 486.12 356.96 487.61 359.88C489.1 362.8 491.02 364.27 489.61 367.67C489.61 367.67 490.17 377.17 486.43 381.85C483.584 385.22 480.46 388.345 477.09 391.19C473.449 392.974 469.702 394.533 465.87 395.86C460.27 397.73 446.25 401.47 446.25 401.47L429.43 397.73C429.43 397.73 427.56 399.6 419.15 395.86C410.74 392.12 407.94 390.26 404.2 392.12C400.46 393.98 388.32 394.93 388.32 394.93L375.23 401.47L360.23 405.21C360.23 405.21 355.56 411.75 354.63 419.21C354.082 423.645 353.142 428.022 351.82 432.29L346.22 443.51C346.22 443.51 344.35 452.85 338.74 452.85C333.13 452.85 340.61 451.92 329.4 452.85L318.19 453.79C318.19 453.79 320.99 452.85 308.84 450.05C296.69 447.25 300.43 439.77 296.69 447.24M296.69 447.24C292.95 454.71 306.97 437.9 296.69 447.24ZM296.69 447.24C286.41 456.58 285.48 459.39 280.81 459.39C276.14 459.39 270.53 462.2 270.53 462.2C270.53 462.2 261.19 465.93 252.78 465C244.37 464.07 240.63 460.33 238.78 466.87C236.93 473.41 236.91 472.47 232.24 474.34C227.57 476.21 227.15 475.21 222.9 477.15C212.62 481.82 204.21 484.62 198.6 484.62C192.99 484.62 201.4 482.75 192.99 484.62C184.58 486.49 184.58 481.82 179.91 488.36C175.24 494.9 176.17 496.77 168.7 497.7M751.07 270.76C751.07 270.76 741.33 277.09 739.39 278.06C737.45 279.03 735.49 279.06 731.59 282.93C727.69 286.8 727.21 285.37 724.29 289.75C721.37 294.13 720.39 289.26 718.93 295.59C717.47 301.92 717.93 303.87 713.57 304.36C709.21 304.85 709.68 303.87 705.29 305.82C700.9 307.77 699.94 304.82 697.5 310.2C695.06 315.58 694.58 314.59 692.63 318.97C690.78 322.69 688.664 326.273 686.3 329.69L678.51 337.97L670.23 346.73C670.23 346.73 664.87 351.12 661.95 354.04C659.03 356.96 657.08 357.93 657.08 362.32C657.08 366.71 655.13 360.86 657.08 366.7C658.238 369.98 658.735 373.457 658.54 376.93C658.54 376.93 655.13 381.8 657.54 383.26C659.95 384.72 660.95 385.69 662.9 388.62C664.85 391.55 661.9 402.25 665.82 407.12C669.74 411.99 669.72 412.48 671.67 417.84L675.56 428.55C675.56 428.55 677.03 436.35 675.08 438.78C673.13 441.21 673.13 439.78 670.69 445.11C669.101 448.735 667.801 452.48 666.8 456.31C666.8 456.31 669.23 460.21 671.67 463.62C674.11 467.03 676.54 468.49 674.59 472.39C673.201 475.374 672.06 478.468 671.18 481.64C671.18 481.64 665.82 488.46 661.93 492.36C658.04 496.26 650.24 495.76 654.62 498.69C659 501.62 662.9 499.69 664.36 504.04M523.84 258.2C523.84 258.2 533.05 246.34 524.49 244.37C515.93 242.4 517.91 238.44 510.69 239.14C503.47 239.84 506.69 235.14 498.84 239.14L490.93 243.09C490.93 243.09 489.62 250.99 480.4 249.02C471.18 247.05 469.87 249.68 462.62 244.41C455.37 239.14 462.62 239.8 452.09 237.82C441.56 235.84 441.55 238.48 434.97 231.9C428.39 225.32 430.36 228.61 426.41 220.05C422.46 211.49 425.09 215.44 419.82 204.9C414.55 194.36 421.82 200.29 414.56 194.37C407.3 188.45 409.95 185.81 404.02 178.57C398.09 171.33 400.73 181.86 398.1 171.32C395.47 160.78 395.46 159.47 394.8 153.55M261.45 187.44C261.45 187.44 260.46 184.51 261.78 178.58C263.1 172.65 261.78 178.56 266.39 173.97C271 169.38 273.63 171.33 279.56 167.38C285.49 163.43 283.49 163.43 285.49 160.14C287.203 157.53 289.17 155.095 291.36 152.87C291.36 152.87 295.97 148.24 299.26 144.31C302.55 140.38 313.09 138.38 313.09 138.38C314.41 141.67 315.04 144.3 317.04 146.94C319.04 149.58 319.72 149.62 321.04 154.84C322.36 160.06 320.38 158.84 324.99 164.06C329.6 169.28 330.25 167.36 332.89 173.28C335.53 179.2 332.23 179.2 336.18 183.81C340.13 188.42 341.45 187.11 346.06 193.69C350.67 200.27 347.38 198.3 354.62 205.54C361.86 212.78 358.56 214.1 365.81 218.71C373.06 223.32 370.43 225.3 377.01 228.59C383.59 231.88 382.28 232.54 389.52 235.17C396.76 237.8 396.77 235.82 402.69 242.41C408.61 249 406.64 249.66 413.22 252.29C419.8 254.92 417.83 254.27 424.41 255.58L431 256.9C440.87 258.87 442.18 254.26 444.82 259.53C447.46 264.8 449.5 260.5 450.75 264.14L454 272.5M178.94 191.57C182.11 186.48 185.4 183.19 188.7 181.21C192 179.23 191.99 177.21 195.94 177.21C199.89 177.21 201.21 175.21 206.47 173.92C211.73 172.63 213.72 173.26 218.98 172.6C224.24 171.94 226.23 169.31 230.84 167.99C235.45 166.67 236.1 169.31 241.37 165.36C246.64 161.41 244.66 160.75 250.59 160.75C256.52 160.75 261.12 158.75 265.07 158.75C269.02 158.75 270.34 160.07 275.61 158.75C280.88 157.43 282.85 166 285.49 160.07M346.06 193.65C350.17 192.87 351.76 192.87 356.52 193.65C361.28 194.43 363.67 192.85 365.26 196.82C366.85 200.79 370.81 200 370.02 205.56C369.23 211.12 365.81 218.65 365.81 218.65C361.29 227.79 364.15 232.04 361.92 236.26C359.69 240.48 357.15 237.18 358.82 245.19C360.49 253.2 365.26 254.78 358.91 258.75C352.56 262.72 351.76 263.51 346.2 265.1C340.64 266.69 339.06 263.51 335.09 269.1C331.12 274.69 331.91 272.28 328.74 278.63C325.57 284.98 326.35 281.8 324.74 288.95C323.13 296.1 325.53 298.48 319.97 307.21C314.41 315.94 317.59 315.15 314.42 320.71C311.25 326.27 316.8 317.53 311.24 326.26C305.68 334.99 301.71 337.38 300.12 346.91C298.53 356.44 300.12 347.7 298.54 356.43C296.96 365.16 298.54 364.37 292.98 369.14L287.42 373.9C284.115 377.972 279.705 381.003 274.72 382.63C269.722 384.178 264.925 386.312 260.43 388.99L251.69 392.14C251.69 392.14 244.55 396.14 238.99 399.29C233.43 402.44 234.99 405.64 229.46 405.64M467.42 56.53C463.376 59.283 459.572 62.3741 456.05 65.77C451.05 70.77 450.36 70.77 445.39 74.3C440.42 77.83 429.04 79.98 429.04 79.98C429.04 79.98 422.65 81.4 416.25 83.53C409.85 85.66 399.91 89.22 399.91 89.22L384.99 91.35L369.35 97.04C369.35 97.04 373.62 99.17 361.54 102.04C349.46 104.91 346.61 109.14 346.61 109.14M482.35 66.53C482.35 66.53 483.77 65.11 483.06 54.45C482.35 43.79 480.93 41.66 483.77 37.45C486.61 33.24 485.9 33.89 487.32 26.79C488.74 19.69 489.45 19.68 490.17 14M460.31 16.76C463.15 21.03 459.6 22.44 465.31 26.76C471.02 31.08 471 31.76 474.55 33.86C478.1 35.96 482.37 44.52 482.37 44.52M363.95 510.79C367.69 505.19 360.21 509.86 367.69 505.19C375.17 500.52 377.03 497.71 376.1 492.11C375.17 486.51 366.75 485.57 374.23 480.89C378.697 478.093 382.011 473.785 383.57 468.75C383.57 468.75 383.57 464.07 389.18 459.4C394.79 454.73 393.85 455.66 395.72 448.19C397.59 440.72 395.72 454.73 397.59 440.71C399.46 426.69 406 436.04 399.46 426.71C392.92 417.38 385.46 422.97 385.46 413.63C385.46 404.29 381.73 408.95 385.46 404.28C389.19 399.61 394.81 393.07 394.81 393.07" stroke="black" stroke-width="1.22" stroke-miterlimit="10"/>
<path d="M699.45 201.97C699.45 203.98 698.854 205.945 697.737 207.616C696.62 209.287 695.033 210.589 693.176 211.358C691.319 212.126 689.275 212.327 687.304 211.934C685.333 211.541 683.523 210.573 682.102 209.151C680.682 207.729 679.715 205.917 679.324 203.946C678.933 201.974 679.136 199.931 679.906 198.075C680.677 196.219 681.98 194.633 683.653 193.517C685.325 192.402 687.29 191.808 689.3 191.81C690.634 191.809 691.955 192.071 693.188 192.581C694.421 193.091 695.541 193.84 696.484 194.783C697.426 195.727 698.174 196.848 698.683 198.081C699.192 199.314 699.453 200.636 699.45 201.97V201.97Z" fill="#C30000"/>
<path d="M699.45 201.97C699.45 203.98 698.854 205.945 697.737 207.616C696.62 209.287 695.033 210.589 693.176 211.358C691.319 212.126 689.275 212.327 687.304 211.934C685.333 211.541 683.523 210.573 682.102 209.151C680.682 207.729 679.715 205.917 679.324 203.946C678.933 201.974 679.136 199.931 679.906 198.075C680.677 196.219 681.98 194.633 683.653 193.517C685.325 192.402 687.29 191.808 689.3 191.81C690.634 191.809 691.955 192.071 693.188 192.581C694.421 193.091 695.541 193.84 696.484 194.783C697.426 195.727 698.174 196.848 698.683 198.081C699.192 199.314 699.453 200.636 699.45 201.97V201.97Z" stroke="#C30000" stroke-width="3" stroke-miterlimit="10"/>
<path d="M699.45 137.5C699.45 139.51 698.854 141.475 697.737 143.146C696.62 144.817 695.033 146.119 693.176 146.888C691.319 147.656 689.275 147.857 687.304 147.464C685.333 147.071 683.523 146.103 682.102 144.681C680.682 143.259 679.715 141.447 679.324 139.476C678.933 137.504 679.136 135.461 679.906 133.605C680.677 131.749 681.98 130.163 683.653 129.047C685.325 127.932 687.29 127.338 689.3 127.34C690.634 127.34 691.954 127.603 693.186 128.114C694.418 128.624 695.538 129.373 696.481 130.316C697.423 131.26 698.171 132.38 698.68 133.613C699.19 134.845 699.451 136.166 699.45 137.5V137.5Z" fill="#C30000"/>
<path d="M699.45 137.5C699.45 139.51 698.854 141.475 697.737 143.146C696.62 144.817 695.033 146.119 693.176 146.888C691.319 147.656 689.275 147.857 687.304 147.464C685.333 147.071 683.523 146.103 682.102 144.681C680.682 143.259 679.715 141.447 679.324 139.476C678.933 137.504 679.136 135.461 679.906 133.605C680.677 131.749 681.98 130.163 683.653 129.047C685.325 127.932 687.29 127.338 689.3 127.34C690.634 127.34 691.954 127.603 693.186 128.114C694.418 128.624 695.538 129.373 696.481 130.316C697.423 131.26 698.171 132.38 698.68 133.613C699.19 134.845 699.451 136.166 699.45 137.5V137.5Z" stroke="#C30000" stroke-width="3" stroke-miterlimit="10"/>
<path d="M553.05 105.83C553.05 106.835 552.752 107.817 552.194 108.652C551.636 109.488 550.842 110.139 549.914 110.523C548.986 110.908 547.965 111.008 546.979 110.812C545.994 110.616 545.089 110.133 544.378 109.422C543.668 108.712 543.184 107.806 542.988 106.821C542.792 105.836 542.892 104.814 543.277 103.886C543.661 102.958 544.312 102.164 545.148 101.606C545.983 101.048 546.965 100.75 547.97 100.75C549.317 100.753 550.607 101.289 551.559 102.241C552.511 103.193 553.047 104.484 553.05 105.83Z" fill="#C30000"/>
<path d="M553.05 105.83C553.05 106.835 552.752 107.817 552.194 108.652C551.636 109.488 550.842 110.139 549.914 110.523C548.986 110.908 547.965 111.008 546.979 110.812C545.994 110.616 545.089 110.133 544.378 109.422C543.668 108.712 543.184 107.806 542.988 106.821C542.792 105.836 542.892 104.814 543.277 103.886C543.661 102.958 544.312 102.164 545.148 101.606C545.983 101.048 546.965 100.75 547.97 100.75C549.317 100.753 550.607 101.289 551.559 102.241C552.511 103.193 553.047 104.484 553.05 105.83Z" stroke="#C30000" stroke-width="3" stroke-miterlimit="10"/>
<path d="M719.672 193.402L716.095 199.054L712.519 193.402H710.746V203.64H712.519V196.603L715.735 201.737H716.456L719.672 196.603V203.64H721.46V193.402H719.672ZM731.448 203.64H733.294L729.603 193.402H727.584L723.892 203.64H725.738L726.546 201.39H730.641L731.448 203.64ZM727.151 199.703L728.593 195.709L730.035 199.703H727.151ZM742.403 193.402V200.655L737.212 193.402H735.439V203.64H737.212V196.387L742.403 203.64H744.177V193.402H742.403ZM753.977 203.64H755.823L752.132 193.402H750.113L746.421 203.64H748.267L749.075 201.39H753.17L753.977 203.64ZM749.68 199.703L751.122 195.709L752.564 199.703H749.68ZM765.608 199.256V193.402H763.834V199.256C763.834 201.362 762.983 202.111 761.498 202.111C760.013 202.111 759.147 201.362 759.147 199.256V193.402H757.374V199.256C757.374 202.385 758.931 203.784 761.498 203.784C764.05 203.784 765.608 202.385 765.608 199.256ZM767.984 200.54C768.027 202.227 769.296 203.784 771.445 203.784C773.233 203.784 774.689 202.804 774.689 201.073C774.689 199.516 773.55 198.636 771.604 197.584C770.565 197.036 769.974 196.733 769.974 195.954C769.974 195.334 770.551 194.93 771.229 194.93C772.007 194.93 772.541 195.478 772.584 196.387H774.358C774.314 194.642 773.089 193.258 771.229 193.258C769.541 193.258 768.2 194.325 768.2 195.882C768.2 197.252 768.907 197.987 770.969 199.17C772.137 199.804 772.916 200.194 772.916 201.016C772.916 201.621 772.397 202.111 771.445 202.111C770.58 202.111 769.815 201.607 769.758 200.54H767.984Z" fill="black"/>
<path d="M744.149 117.402H740.443V127.64H742.216V124.381H744.149C746.139 124.381 747.884 123.127 747.884 120.891C747.884 118.656 746.139 117.402 744.149 117.402ZM744.149 122.708H742.216V119.075H744.149C745.273 119.075 746.11 119.695 746.11 120.891C746.11 122.088 745.273 122.708 744.149 122.708ZM755.71 127.64H757.714L755.551 124.107C756.733 123.602 757.613 122.478 757.613 120.92C757.613 118.728 755.883 117.402 754.022 117.402H750.172V127.64H751.946V124.424H753.749L755.71 127.64ZM751.946 119.075H754.022C755.017 119.075 755.839 119.767 755.839 120.92C755.839 122.059 755.017 122.752 754.022 122.752H751.946V119.075ZM766.021 119.075V117.402H760.282V127.64H766.021V125.967H762.056V123.256H765.171V121.584H762.056V119.075H766.021ZM767.78 124.54C767.824 126.227 769.093 127.784 771.241 127.784C773.029 127.784 774.486 126.804 774.486 125.073C774.486 123.516 773.347 122.636 771.4 121.584C770.362 121.036 769.77 120.733 769.77 119.954C769.77 119.334 770.347 118.93 771.025 118.93C771.804 118.93 772.337 119.478 772.38 120.387H774.154C774.111 118.642 772.885 117.258 771.025 117.258C769.338 117.258 767.997 118.325 767.997 119.882C767.997 121.252 768.703 121.987 770.765 123.17C771.933 123.804 772.712 124.194 772.712 125.016C772.712 125.621 772.193 126.111 771.241 126.111C770.376 126.111 769.612 125.607 769.554 124.54H767.78ZM776.857 127.64H778.63V117.402H776.857V127.64ZM784.625 117.402H781.106V127.64H784.625C787.537 127.64 789.556 125.39 789.556 122.521C789.556 119.651 787.537 117.402 784.625 117.402ZM784.625 125.967H782.88V119.075H784.625C786.398 119.075 787.783 120.3 787.783 122.521C787.783 124.742 786.398 125.967 784.625 125.967ZM797.546 119.075V117.402H791.807V127.64H797.546V125.967H793.581V123.256H796.696V121.584H793.581V119.075H797.546ZM807.096 117.402V124.655L801.905 117.402H800.131V127.64H801.905V120.387L807.096 127.64H808.87V117.402H807.096ZM817.701 117.402H811.082V119.075H813.505V127.64H815.279V119.075H817.701V117.402ZM825.651 119.075V117.402H819.912V127.64H825.651V125.967H821.685V123.256H824.8V121.584H821.685V119.075H825.651Z" fill="black"/>
<path d="M746.139 136.375V134.702H740.4V144.94H742.173V140.628H745.576V138.956H742.173V136.375H746.139ZM748.527 144.94H750.301V134.702H748.527V144.94ZM757.369 139.259V140.931H761.06C760.685 142.431 759.503 143.411 757.801 143.411C755.855 143.411 754.514 141.825 754.514 139.821C754.514 137.817 755.956 136.23 758.003 136.23C759.272 136.23 760.137 136.908 760.685 137.687L762.026 136.649C761.104 135.394 759.762 134.558 758.003 134.558C754.888 134.558 752.74 136.951 752.74 139.821C752.74 142.69 754.888 145.084 757.801 145.084C760.858 145.084 762.978 142.921 762.978 139.259H757.369ZM773.5 140.556V134.702H771.726V140.556C771.726 142.662 770.875 143.411 769.39 143.411C767.905 143.411 767.04 142.662 767.04 140.556V134.702H765.266V140.556C765.266 143.685 766.823 145.084 769.39 145.084C771.942 145.084 773.5 143.685 773.5 140.556ZM781.72 136.375V134.702H775.981V144.94H781.72V143.267H777.755V140.556H780.87V138.884H777.755V136.375H781.72ZM784.305 144.94H786.079V134.702H784.305V144.94ZM794.092 144.94H796.096L793.933 141.407C795.115 140.902 795.995 139.778 795.995 138.22C795.995 136.028 794.265 134.702 792.404 134.702H788.554V144.94H790.328V141.724H792.13L794.092 144.94ZM790.328 136.375H792.404C793.399 136.375 794.221 137.067 794.221 138.22C794.221 139.359 793.399 140.052 792.404 140.052H790.328V136.375ZM804.403 136.375V134.702H798.664V144.94H804.403V143.267H800.438V140.556H803.552V138.884H800.438V136.375H804.403ZM810.405 134.702H806.887V144.94H810.405C813.318 144.94 815.337 142.69 815.337 139.821C815.337 136.951 813.318 134.702 810.405 134.702ZM810.405 143.267H808.661V136.375H810.405C812.179 136.375 813.563 137.6 813.563 139.821C813.563 142.042 812.179 143.267 810.405 143.267ZM822.433 145.084C825.361 145.084 827.653 142.734 827.653 139.821C827.653 136.908 825.361 134.558 822.433 134.558C819.52 134.558 817.228 136.908 817.228 139.821C817.228 142.734 819.52 145.084 822.433 145.084ZM822.433 143.411C820.443 143.411 819.001 141.782 819.001 139.821C819.001 137.86 820.443 136.23 822.433 136.23C824.423 136.23 825.865 137.86 825.865 139.821C825.865 141.782 824.423 143.411 822.433 143.411Z" fill="black"/>
<path d="M571.018 83.4018H564.4V85.0745H566.822V93.64H568.596V85.0745H571.018V83.4018ZM581.505 89.2563V83.4018H579.731V89.2563C579.731 91.3617 578.88 92.1115 577.395 92.1115C575.91 92.1115 575.045 91.3617 575.045 89.2563V83.4018H573.271V89.2563C573.271 92.3855 574.828 93.7842 577.395 93.7842C579.948 93.7842 581.505 92.3855 581.505 89.2563ZM593.215 83.4018L589.639 89.0545L586.063 83.4018H584.289V93.64H586.063V86.6031L589.279 91.7366H590L593.215 86.6031V93.64H595.003V83.4018H593.215ZM603.311 88.1748C603.931 87.699 604.335 86.9924 604.335 86.156C604.335 84.541 603.167 83.4018 601.033 83.4018H597.875V93.64H601.278C603.455 93.64 604.912 92.5874 604.912 90.6839C604.912 89.5592 604.22 88.694 603.311 88.1748ZM599.649 85.0745H601.033C601.985 85.0745 602.561 85.4783 602.561 86.257C602.561 87.0789 601.985 87.4394 601.033 87.4394H599.649V85.0745ZM601.278 91.9673H599.649V89.1121H601.321C602.489 89.1121 603.138 89.7178 603.138 90.583C603.138 91.4482 602.489 91.9673 601.278 91.9673ZM607.25 93.64H609.024V83.4018H607.25V93.64ZM617.037 93.64H619.041L616.878 90.1071C618.06 89.6024 618.94 88.4777 618.94 86.9203C618.94 84.7285 617.21 83.4018 615.349 83.4018H611.499V93.64H613.273V90.4244H615.075L617.037 93.64ZM613.273 85.0745H615.349C616.344 85.0745 617.166 85.7667 617.166 86.9203C617.166 88.0595 616.344 88.7516 615.349 88.7516H613.273V85.0745ZM628.449 93.64H630.295L626.604 83.4018H624.585L620.893 93.64H622.739L623.547 91.3905H627.642L628.449 93.64ZM624.152 89.7034L625.594 85.709L627.036 89.7034H624.152Z" fill="black"/>
</g>
<defs>
<clipPath id="clip0">
<rect width="945.46" height="525.14" fill="white"/>
</clipPath>
</defs>
</svg>
