<svg width="378" height="32" viewBox="0 0 378 32" fill="none" xmlns="http://www.w3.org/2000/svg">
<g clip-path="url(#clip0)">
<path d="M4.91 29.02C3.11 29.02 0 28.45 0 28.45V0H377.27V31.17C377.27 31.17 376.55 30.94 374.59 30.83C372.63 30.71 373.45 31.33 371.32 30.8C369.19 30.27 368.54 30.8 366.41 30.8C364.28 30.8 361.67 28.76 360.36 28.76C359.06 28.76 358.07 28.08 356.11 27.85C354.15 27.62 354.15 28.08 351.86 27.74C349.57 27.41 349.41 26.19 347.61 26.19C345.81 26.19 344.99 26.64 343.52 26.53C342.05 26.42 341.07 26.99 339.76 27.1C338.45 27.21 336.98 27.78 335.18 28.35C333.38 28.92 332.73 29.04 330.93 29.37L330.654 29.4206C329.057 29.714 328.359 29.8421 326.19 30.06C323.9 30.29 323.9 30.4 321.45 30.63C319 30.86 318.51 30.86 315.89 30.97C313.28 31.08 314.71 30.19 312.58 30.3C310.45 30.42 309.28 28.38 307.15 28.61C305.02 28.84 304.69 29.41 302.73 29.41C300.77 29.41 300.77 29.87 299.13 29.41C297.5 28.96 293.32 31.32 292.01 30.86C290.71 30.4 290.05 30.63 289.07 30.06C288.09 29.49 287.28 29.95 285.64 30.06C284 30.17 283.67 30.29 280.73 30.06C277.79 29.83 278.93 30.29 276.97 30.29C275.01 30.29 274.35 30.29 272.88 30.06C271.41 29.83 270.92 30.06 269.12 30.06C267.32 30.06 266.02 29.83 263.89 29.72C261.76 29.6 261.92 29.72 260.45 29.83C258.98 29.95 258.82 29.72 257.02 29.49C255.21 29.26 254.23 29.15 251.78 28.77C249.32 28.39 243.27 27.66 242.29 27.55C241.31 27.43 240.33 26.98 239.35 26.52C238.37 26.07 238.04 26.52 235.75 26.18C233.46 25.84 233.62 26.75 232.15 26.52C230.68 26.3 229.53 26.64 227.57 26.41C225.61 26.18 224.63 26.41 222.99 26.52C221.35 26.64 220.37 25.08 218.41 25.19C216.45 25.3 216.12 25.42 213.18 25.76C210.24 26.1 210.24 25.87 208.11 25.76C205.98 25.64 204.18 26.33 203.2 26.44C202.22 26.55 200.91 27.2 199.44 27.2H195.84C194.37 27.2 193.88 27.17 192.24 27.51C190.61 27.86 189.46 28.31 188.02 28.54C186.57 28.77 184.55 28.43 182.59 29C180.62 29.57 180.3 29.66 178.17 30.09C176.04 30.51 176.21 29.97 174.08 29.29C171.95 28.61 172.94 28.72 170.48 28.38C168.052 28.0444 162.127 28.4882 160.56 28.6055L160.5 28.61C159.02 28.72 159.35 28.95 157.88 29.29C156.4 29.63 156.08 29.52 154.44 29.63C152.8 29.74 150.19 29.51 148.55 29.17C146.92 28.83 145.78 29.17 144.3 29.17H139.39H135.14H130.56H126.31H122.71C121.23 29.17 115.67 28.6 114.2 28.49C112.72 28.37 107.33 29.71 105.69 29.14C104.05 28.57 103.56 28.8 101.76 28.46C99.96 28.12 94.4 28.46 93.42 28.35C92.44 28.24 91.29 28.46 90.31 28.35C89.33 28.23 87.86 28.35 86.55 28.12C85.24 27.89 84.26 28.69 83.11 28.69C81.96 28.69 80.49 28.92 79.02 28.92C77.55 28.92 76.57 28.77 75.42 29.23C74.27 29.69 73.13 29.34 71.82 29.23C70.51 29.11 69.37 29.26 68.06 29.03C66.75 28.8 65.44 28.69 64.79 28.23C64.14 27.78 61.52 28.23 60.7 27.55C59.88 26.86 58.49 28.23 57.26 28.23H53.17C51.53 28.23 48.26 27.38 44.99 26.24C41.72 25.1 41.61 26.23 39.79 26.49C37.97 26.75 36.62 25.45 34.58 25.45C32.54 25.45 30.93 25.71 28.07 25.71C25.21 25.71 26.17 26.25 24.13 26.25C22.09 26.25 19.22 27.35 17.18 27.35C15.14 27.35 12.27 29.02 9.82 29.02H4.91Z" fill="#D9DDE8"/>
<path d="M0 28.45C0 28.45 3.11 29.02 4.91 29.02C6.71 29.02 7.36 29.02 9.82 29.02C12.27 29.02 15.14 27.35 17.18 27.35C19.22 27.35 22.09 26.25 24.13 26.25C26.17 26.25 25.21 25.71 28.07 25.71C30.93 25.71 32.54 25.45 34.58 25.45C36.62 25.45 37.97 26.75 39.79 26.49C41.61 26.23 41.72 25.1 44.99 26.24C48.26 27.38 51.53 28.23 53.17 28.23C54.81 28.23 56.03 28.23 57.26 28.23C58.49 28.23 59.88 26.86 60.7 27.55C61.52 28.23 64.14 27.78 64.79 28.23C65.44 28.69 66.75 28.8 68.06 29.03C69.37 29.26 70.51 29.11 71.82 29.23C73.13 29.34 74.27 29.69 75.42 29.23C76.57 28.77 77.55 28.92 79.02 28.92C80.49 28.92 81.96 28.69 83.11 28.69C84.26 28.69 85.24 27.89 86.55 28.12C87.86 28.35 89.33 28.23 90.31 28.35C91.29 28.46 92.44 28.24 93.42 28.35C94.4 28.46 99.96 28.12 101.76 28.46C103.56 28.8 104.05 28.57 105.69 29.14C107.33 29.71 112.72 28.37 114.2 28.49C115.67 28.6 121.23 29.17 122.71 29.17C124.19 29.17 125.16 29.17 126.31 29.17C127.46 29.17 129.42 29.17 130.56 29.17C131.71 29.17 133.99 29.17 135.14 29.17C136.29 29.17 136.61 29.17 139.39 29.17C142.17 29.17 142.82 29.17 144.3 29.17C145.78 29.17 146.92 28.83 148.55 29.17C150.19 29.51 152.8 29.74 154.44 29.63C156.08 29.52 156.4 29.63 157.88 29.29C159.35 28.95 159.02 28.72 160.5 28.61C161.97 28.5 168.02 28.04 170.48 28.38C172.94 28.72 171.95 28.61 174.08 29.29C176.21 29.97 176.04 30.51 178.17 30.09C180.3 29.66 180.62 29.57 182.59 29C184.55 28.43 186.57 28.77 188.02 28.54C189.46 28.31 190.61 27.86 192.24 27.51C193.88 27.17 194.37 27.2 195.84 27.2C197.31 27.2 197.97 27.2 199.44 27.2C200.91 27.2 202.22 26.55 203.2 26.44C204.18 26.33 205.98 25.64 208.11 25.76C210.24 25.87 210.24 26.1 213.18 25.76C216.12 25.42 216.45 25.3 218.41 25.19C220.37 25.08 221.35 26.64 222.99 26.52C224.63 26.41 225.61 26.18 227.57 26.41C229.53 26.64 230.68 26.3 232.15 26.52C233.62 26.75 233.46 25.84 235.75 26.18C238.04 26.52 238.37 26.07 239.35 26.52C240.33 26.98 241.31 27.43 242.29 27.55C243.27 27.66 249.32 28.39 251.78 28.77C254.23 29.15 255.21 29.26 257.02 29.49C258.82 29.72 258.98 29.95 260.45 29.83C261.92 29.72 261.76 29.6 263.89 29.72C266.02 29.83 267.32 30.06 269.12 30.06C270.92 30.06 271.41 29.83 272.88 30.06C274.35 30.29 275.01 30.29 276.97 30.29C278.93 30.29 277.79 29.83 280.73 30.06C283.67 30.29 284 30.17 285.64 30.06C287.28 29.95 288.09 29.49 289.07 30.06C290.05 30.63 290.71 30.4 292.01 30.86C293.32 31.32 297.5 28.96 299.13 29.41C300.77 29.87 300.77 29.41 302.73 29.41C304.69 29.41 305.02 28.84 307.15 28.61C309.28 28.38 310.45 30.42 312.58 30.3C314.71 30.19 313.28 31.08 315.89 30.97C318.51 30.86 319 30.86 321.45 30.63C323.9 30.4 323.9 30.29 326.19 30.06C328.48 29.83 329.13 29.7 330.93 29.37C332.73 29.04 333.38 28.92 335.18 28.35C336.98 27.78 338.45 27.21 339.76 27.1C341.07 26.99 342.05 26.42 343.52 26.53C344.99 26.64 345.81 26.19 347.61 26.19C349.41 26.19 349.57 27.41 351.86 27.74C354.15 28.08 354.15 27.62 356.11 27.85C358.07 28.08 359.06 28.76 360.36 28.76C361.67 28.76 364.28 30.8 366.41 30.8C368.54 30.8 369.19 30.27 371.32 30.8C373.45 31.33 372.63 30.71 374.59 30.83C376.55 30.94 377.27 31.17 377.27 31.17" stroke="black" stroke-width="0.4"/>
<path fill-rule="evenodd" clip-rule="evenodd" d="M22.0462 19.9999V16.6779C21.5182 16.2159 20.0002 15.1599 17.4922 15.1599C13.1362 15.1599 9.66016 18.6139 9.66016 23.1899C9.66016 25.3859 10.4606 27.3234 11.7747 28.7449C12.4604 28.5754 13.153 28.3488 13.8292 28.1277C14.4595 27.9215 15.0754 27.72 15.6582 27.5738C14.0861 26.8215 12.9822 25.2629 12.9822 23.1899C12.9822 20.2199 15.2482 18.2839 17.9102 18.2839C20.2422 18.2839 21.6722 19.5379 22.0462 19.9999ZM21.9146 26.5271C21.9585 26.5183 22.0024 26.5095 22.0462 26.501V26.3799C22.0114 26.4229 21.9675 26.4725 21.9146 26.5271ZM70.6038 29.1764C70.4863 29.1751 70.3692 29.1743 70.2525 29.1736C69.5345 29.169 68.8265 29.1645 68.0602 29.0299C67.7891 28.9823 67.5179 28.9399 67.2527 28.8984L72.1269 15.3799H75.9109L80.7638 28.839C80.1962 28.8831 79.6082 28.9199 79.0202 28.9199C78.7146 28.9199 78.4301 28.9135 78.1608 28.9073C77.8724 28.9007 77.6016 28.8946 77.3409 28.8972L76.9669 27.8759H71.0709L70.6038 29.1764ZM129.794 29.1699H126.472V15.3799H129.794V29.1699ZM178.53 30.0171C178.416 30.0403 178.296 30.0645 178.17 30.0899C176.699 30.38 176.325 30.2122 175.533 29.8565C175.426 29.8086 175.312 29.7572 175.186 29.7031V15.3799H181.214C184.25 15.3799 187.022 17.4039 187.022 20.8579C187.022 24.2899 184.25 26.3139 181.214 26.3139H178.53V30.0171ZM246.276 28.0332C247.284 26.688 247.879 25.011 247.879 23.1899C247.879 18.7239 244.337 15.1599 239.893 15.1599C235.427 15.1599 231.885 18.7239 231.885 23.1899C231.885 24.3935 232.145 25.5341 232.612 26.5577C232.986 26.5552 233.237 26.4609 233.508 26.3588C233.966 26.1864 234.483 25.9918 235.75 26.1799C235.904 26.2027 236.048 26.2219 236.185 26.2381C235.561 25.3979 235.207 24.3346 235.207 23.1899C235.207 20.5059 237.121 18.2839 239.893 18.2839C242.643 18.2839 244.557 20.5059 244.557 23.1899C244.557 25.0549 243.618 26.7039 242.109 27.5241C242.17 27.5339 242.23 27.5426 242.29 27.5499C242.763 27.603 244.416 27.8004 246.276 28.0332ZM296.743 29.7201C296.286 29.8568 295.81 30.0172 295.341 30.1755C294.654 30.4074 293.98 30.6346 293.399 30.7758V15.3799H299.515C302.463 15.3799 305.235 17.4479 305.235 20.8579C305.235 23.1459 304.003 24.8399 302.287 25.6979L304.382 29.2288C303.936 29.3351 303.44 29.4099 302.73 29.4099C301.959 29.4099 301.492 29.4811 301.108 29.5395C301.02 29.5529 300.936 29.5657 300.854 29.5767L298.943 26.3359H296.743V29.7201ZM356.314 27.8759C356.247 27.8667 356.179 27.8581 356.11 27.8499C355.203 27.7435 354.716 27.7848 354.227 27.8263C353.66 27.8744 353.091 27.9226 351.86 27.7399C351.597 27.702 351.362 27.6523 351.149 27.594L355.553 15.3799H359.337L364.786 30.4933C364.073 30.2552 363.356 29.9132 362.69 29.5958C361.948 29.242 361.269 28.9188 360.733 28.8041L360.393 27.8759H356.314ZM72.1929 24.7299L74.0189 19.6699L75.8449 24.7299H72.1929ZM181.214 23.1899H178.53V18.5039H181.214C182.644 18.5039 183.7 19.3619 183.7 20.8579C183.7 22.3539 182.644 23.1899 181.214 23.1899ZM296.743 18.5039H299.515C300.857 18.5039 301.913 19.3839 301.913 20.8579C301.913 22.3319 300.857 23.2119 299.515 23.2119H296.743V18.5039ZM357.445 19.6699L355.619 24.7299H359.271L357.445 19.6699Z" fill="black"/>
<path d="M22.0462 16.6779H22.2462V16.5872L22.1779 16.5274L22.0462 16.6779ZM22.0462 19.9999L21.8907 20.1258L22.2462 20.5648V19.9999H22.0462ZM11.7747 28.7449L11.6278 28.8806L11.708 28.9674L11.8227 28.939L11.7747 28.7449ZM13.8292 28.1277L13.767 27.9376L13.767 27.9376L13.8292 28.1277ZM15.6582 27.5738L15.7069 27.7678L16.2448 27.6328L15.7445 27.3934L15.6582 27.5738ZM22.0462 26.501L22.0847 26.6972L22.2462 26.6655V26.501H22.0462ZM21.9146 26.5271L21.7709 26.388L21.3234 26.8503L21.9541 26.7232L21.9146 26.5271ZM22.0462 26.3799H22.2462V25.815L21.8907 26.2541L22.0462 26.3799ZM70.6038 29.1764L70.6016 29.3764L70.744 29.378L70.7921 29.244L70.6038 29.1764ZM70.2525 29.1736L70.2537 28.9736L70.2537 28.9736L70.2525 29.1736ZM68.0602 29.0299L68.0257 29.2269L68.0257 29.2269L68.0602 29.0299ZM67.2527 28.8984L67.0645 28.8305L66.9823 29.0585L67.2217 29.096L67.2527 28.8984ZM72.1269 15.3799V15.1799H71.9864L71.9388 15.3121L72.1269 15.3799ZM75.9109 15.3799L76.0991 15.3121L76.0514 15.1799H75.9109V15.3799ZM80.7638 28.839L80.7793 29.0384L81.0409 29.018L80.9519 28.7712L80.7638 28.839ZM78.1608 28.9073L78.1654 28.7074L78.1654 28.7074L78.1608 28.9073ZM77.3409 28.8972L77.1531 28.966L77.2017 29.0986L77.3429 29.0972L77.3409 28.8972ZM76.9669 27.8759L77.1547 27.8071L77.1067 27.6759H76.9669V27.8759ZM71.0709 27.8759V27.6759H70.9302L70.8827 27.8083L71.0709 27.8759ZM129.794 29.1699V29.3699H129.994V29.1699H129.794ZM126.472 29.1699H126.272V29.3699H126.472V29.1699ZM126.472 15.3799V15.1799H126.272V15.3799H126.472ZM129.794 15.3799H129.994V15.1799H129.794V15.3799ZM178.53 30.0171L178.57 30.2131L178.73 30.1805V30.0171H178.53ZM178.17 30.0899L178.209 30.2862L178.21 30.286L178.17 30.0899ZM175.533 29.8565L175.451 30.039L175.451 30.039L175.533 29.8565ZM175.186 29.7031H174.986V29.8348L175.107 29.8868L175.186 29.7031ZM175.186 15.3799V15.1799H174.986V15.3799H175.186ZM178.53 26.3139V26.1139H178.33V26.3139H178.53ZM246.276 28.0332L246.252 28.2316L246.367 28.246L246.436 28.1531L246.276 28.0332ZM232.612 26.5577L232.431 26.6408L232.484 26.7585L232.614 26.7577L232.612 26.5577ZM233.508 26.3588L233.579 26.546L233.579 26.546L233.508 26.3588ZM235.75 26.1799L235.721 26.3778L235.721 26.3778L235.75 26.1799ZM236.185 26.2381L236.161 26.4368L236.622 26.4914L236.345 26.1189L236.185 26.2381ZM242.109 27.5241L242.014 27.3484L241.5 27.6277L242.077 27.7216L242.109 27.5241ZM242.29 27.5499L242.266 27.7485L242.268 27.7487L242.29 27.5499ZM296.743 29.7201L296.8 29.9117L296.943 29.869V29.7201H296.743ZM295.341 30.1755L295.277 29.986L295.277 29.986L295.341 30.1755ZM293.399 30.7758H293.199V31.0302L293.446 30.9702L293.399 30.7758ZM293.399 15.3799V15.1799H293.199V15.3799H293.399ZM302.287 25.6979L302.197 25.519L302.005 25.6151L302.115 25.8L302.287 25.6979ZM304.382 29.2288L304.428 29.4233L304.692 29.3602L304.554 29.1267L304.382 29.2288ZM301.108 29.5395L301.138 29.7372L301.138 29.7372L301.108 29.5395ZM300.854 29.5767L300.681 29.6783L300.749 29.7927L300.88 29.775L300.854 29.5767ZM298.943 26.3359L299.115 26.2343L299.057 26.1359H298.943V26.3359ZM296.743 26.3359V26.1359H296.543V26.3359H296.743ZM356.314 27.8759L356.287 28.074L356.3 28.0759H356.314V27.8759ZM356.11 27.8499L356.134 27.6513L356.134 27.6513L356.11 27.8499ZM354.227 27.8263L354.21 27.627L354.21 27.627L354.227 27.8263ZM351.86 27.7399L351.89 27.5421L351.889 27.542L351.86 27.7399ZM351.149 27.594L350.961 27.5262L350.888 27.7298L351.096 27.7869L351.149 27.594ZM355.553 15.3799V15.1799H355.413L355.365 15.3121L355.553 15.3799ZM359.337 15.3799L359.525 15.3121L359.478 15.1799H359.337V15.3799ZM364.786 30.4933L364.723 30.683L365.115 30.8137L364.975 30.4254L364.786 30.4933ZM362.69 29.5958L362.604 29.7764L362.604 29.7764L362.69 29.5958ZM360.733 28.8041L360.545 28.8729L360.583 28.9766L360.691 28.9997L360.733 28.8041ZM360.393 27.8759L360.581 27.8071L360.533 27.6759H360.393V27.8759ZM74.0189 19.6699L74.207 19.602L74.0189 19.0807L73.8308 19.602L74.0189 19.6699ZM72.1929 24.7299L72.0048 24.662L71.9081 24.9299H72.1929V24.7299ZM75.8449 24.7299V24.9299H76.1297L76.033 24.662L75.8449 24.7299ZM178.53 23.1899H178.33V23.3899H178.53V23.1899ZM178.53 18.5039V18.3039H178.33V18.5039H178.53ZM296.743 18.5039V18.3039H296.543V18.5039H296.743ZM296.743 23.2119H296.543V23.4119H296.743V23.2119ZM355.619 24.7299L355.431 24.662L355.334 24.9299H355.619V24.7299ZM357.445 19.6699L357.633 19.602L357.445 19.0807L357.257 19.602L357.445 19.6699ZM359.271 24.7299V24.9299H359.556L359.459 24.662L359.271 24.7299ZM21.8462 16.6779V19.9999H22.2462V16.6779H21.8462ZM17.4922 15.3599C19.9405 15.3599 21.4135 16.3901 21.9145 16.8284L22.1779 16.5274C21.6228 16.0417 20.0598 14.9599 17.4922 14.9599V15.3599ZM9.86016 23.1899C9.86016 18.7214 13.2495 15.3599 17.4922 15.3599V14.9599C13.0228 14.9599 9.46016 18.5064 9.46016 23.1899H9.86016ZM11.9216 28.6091C10.6421 27.225 9.86016 25.3361 9.86016 23.1899H9.46016C9.46016 25.4356 10.2792 27.4218 11.6278 28.8806L11.9216 28.6091ZM13.767 27.9376C13.0895 28.1592 12.404 28.3833 11.7267 28.5507L11.8227 28.939C12.5168 28.7675 13.2165 28.5385 13.8914 28.3178L13.767 27.9376ZM15.6095 27.3798C15.0187 27.5281 14.3958 27.7319 13.767 27.9376L13.8914 28.3178C14.5232 28.1111 15.1322 27.912 15.7069 27.7678L15.6095 27.3798ZM12.7822 23.1899C12.7822 25.3413 13.9316 26.9693 15.5719 27.7542L15.7445 27.3934C14.2407 26.6738 13.1822 25.1846 13.1822 23.1899H12.7822ZM17.9102 18.0839C15.1473 18.0839 12.7822 20.1001 12.7822 23.1899H13.1822C13.1822 20.3397 15.349 18.4839 17.9102 18.4839V18.0839ZM22.2016 19.8741C21.7984 19.376 20.3152 18.0839 17.9102 18.0839V18.4839C20.1691 18.4839 21.5459 19.6998 21.8907 20.1258L22.2016 19.8741ZM22.0076 26.3047C21.9635 26.3134 21.9193 26.3222 21.8751 26.3311L21.9541 26.7232C21.9977 26.7144 22.0413 26.7057 22.0847 26.6972L22.0076 26.3047ZM21.8462 26.3799V26.501H22.2462V26.3799H21.8462ZM22.0583 26.6662C22.1147 26.608 22.1626 26.554 22.2016 26.5058L21.8907 26.2541C21.8602 26.2918 21.8203 26.337 21.7709 26.388L22.0583 26.6662ZM70.6061 28.9764C70.4879 28.9751 70.3704 28.9743 70.2537 28.9736L70.2512 29.3736C70.368 29.3743 70.4846 29.3751 70.6016 29.3764L70.6061 28.9764ZM70.2537 28.9736C69.5341 28.969 68.8422 28.9642 68.0948 28.833L68.0257 29.2269C68.8108 29.3648 69.535 29.369 70.2512 29.3736L70.2537 28.9736ZM68.0948 28.833C67.8216 28.785 67.5486 28.7422 67.2836 28.7008L67.2217 29.096C67.4873 29.1375 67.7566 29.1797 68.0257 29.2269L68.0948 28.833ZM67.4408 28.9662L72.3151 15.4477L71.9388 15.3121L67.0645 28.8305L67.4408 28.9662ZM72.1269 15.5799H75.9109V15.1799H72.1269V15.5799ZM75.7228 15.4477L80.5756 28.9068L80.9519 28.7712L76.0991 15.3121L75.7228 15.4477ZM80.7482 28.6396C80.1823 28.6836 79.6004 28.7199 79.0202 28.7199V29.1199C79.6161 29.1199 80.2102 29.0827 80.7793 29.0384L80.7482 28.6396ZM79.0202 28.7199C78.7172 28.7199 78.4348 28.7135 78.1654 28.7074L78.1563 29.1073C78.4253 29.1134 78.712 29.1199 79.0202 29.1199V28.7199ZM78.1654 28.7074C77.8777 28.7008 77.6034 28.6945 77.3389 28.6972L77.3429 29.0972C77.5997 29.0946 77.8672 29.1007 78.1563 29.1073L78.1654 28.7074ZM77.5287 28.8284L77.1547 27.8071L76.7791 27.9447L77.1531 28.966L77.5287 28.8284ZM76.9669 27.6759H71.0709V28.0759H76.9669V27.6759ZM70.8827 27.8083L70.4156 29.1088L70.7921 29.244L71.2591 27.9435L70.8827 27.8083ZM129.794 28.9699H126.472V29.3699H129.794V28.9699ZM126.272 15.3799V29.1699H126.672V15.3799H126.272ZM129.794 15.1799H126.472V15.5799H129.794V15.1799ZM129.994 29.1699V15.3799H129.594V29.1699H129.994ZM178.49 29.8211C178.376 29.8443 178.257 29.8685 178.131 29.8939L178.21 30.286C178.336 30.2606 178.456 30.2363 178.57 30.2131L178.49 29.8211ZM178.132 29.8937C177.404 30.0372 176.968 30.063 176.623 30.0171C176.28 29.9714 176.014 29.8535 175.615 29.6741L175.451 30.039C175.844 30.2152 176.161 30.359 176.571 30.4136C176.979 30.4681 177.466 30.4327 178.209 30.2862L178.132 29.8937ZM175.615 29.6741C175.508 29.6262 175.392 29.5742 175.265 29.5194L175.107 29.8868C175.231 29.9402 175.344 29.991 175.451 30.039L175.615 29.6741ZM175.386 29.7031V15.3799H174.986V29.7031H175.386ZM175.186 15.5799H181.214V15.1799H175.186V15.5799ZM181.214 15.5799C184.165 15.5799 186.822 17.5387 186.822 20.8579H187.222C187.222 17.2691 184.334 15.1799 181.214 15.1799V15.5799ZM186.822 20.8579C186.822 24.1546 184.166 26.1139 181.214 26.1139V26.5139C184.334 26.5139 187.222 24.4253 187.222 20.8579H186.822ZM181.214 26.1139H178.53V26.5139H181.214V26.1139ZM178.33 26.3139V30.0171H178.73V26.3139H178.33ZM246.436 28.1531C247.47 26.7741 248.079 25.0552 248.079 23.1899H247.679C247.679 24.9667 247.099 26.6018 246.116 27.9132L246.436 28.1531ZM248.079 23.1899C248.079 18.6145 244.449 14.9599 239.893 14.9599V15.3599C244.226 15.3599 247.679 18.8333 247.679 23.1899H248.079ZM239.893 14.9599C235.316 14.9599 231.685 18.6142 231.685 23.1899H232.085C232.085 18.8337 235.538 15.3599 239.893 15.3599V14.9599ZM231.685 23.1899C231.685 24.4225 231.951 25.5915 232.431 26.6408L232.794 26.4745C232.339 25.4768 232.085 24.3645 232.085 23.1899H231.685ZM233.438 26.1716C233.168 26.273 232.946 26.3555 232.611 26.3577L232.614 26.7577C233.026 26.755 233.305 26.6488 233.579 26.546L233.438 26.1716ZM235.78 25.9821C235.132 25.886 234.667 25.8862 234.299 25.936C233.93 25.9859 233.668 26.0849 233.438 26.1716L233.579 26.546C233.806 26.4603 234.032 26.3758 234.353 26.3324C234.675 26.2888 235.101 26.2858 235.721 26.3778L235.78 25.9821ZM236.208 26.0395C236.074 26.0236 235.931 26.0046 235.78 25.9821L235.721 26.3778C235.876 26.4008 236.023 26.4203 236.161 26.4368L236.208 26.0395ZM236.345 26.1189C235.748 25.3145 235.407 24.2934 235.407 23.1899H235.007C235.007 24.3758 235.374 25.4813 236.024 26.3574L236.345 26.1189ZM235.407 23.1899C235.407 20.6016 237.246 18.4839 239.893 18.4839V18.0839C236.996 18.0839 235.007 20.4102 235.007 23.1899H235.407ZM239.893 18.4839C242.518 18.4839 244.357 20.6009 244.357 23.1899H244.757C244.757 20.4109 242.768 18.0839 239.893 18.0839V18.4839ZM244.357 23.1899C244.357 24.9883 243.452 26.5663 242.014 27.3484L242.205 27.6998C243.783 26.8415 244.757 25.1214 244.757 23.1899H244.357ZM242.315 27.3514C242.257 27.3444 242.199 27.3361 242.142 27.3267L242.077 27.7216C242.14 27.7318 242.203 27.7408 242.266 27.7485L242.315 27.3514ZM246.301 27.8347C244.441 27.6019 242.787 27.4044 242.313 27.3512L242.268 27.7487C242.739 27.8016 244.391 27.9989 246.252 28.2316L246.301 27.8347ZM296.685 29.5285C296.225 29.6663 295.746 29.8279 295.277 29.986L295.405 30.365C295.875 30.2065 296.347 30.0472 296.8 29.9117L296.685 29.5285ZM295.277 29.986C294.587 30.2187 293.923 30.4428 293.352 30.5815L293.446 30.9702C294.038 30.8265 294.72 30.596 295.405 30.365L295.277 29.986ZM293.599 30.7758V15.3799H293.199V30.7758H293.599ZM293.399 15.5799H299.515V15.1799H293.399V15.5799ZM299.515 15.5799C302.375 15.5799 305.035 17.5799 305.035 20.8579H305.435C305.435 17.3159 302.55 15.1799 299.515 15.1799V15.5799ZM305.035 20.8579C305.035 23.0653 303.85 24.6927 302.197 25.519L302.376 25.8768C304.156 24.9871 305.435 23.2265 305.435 20.8579H305.035ZM302.115 25.8L304.21 29.3308L304.554 29.1267L302.459 25.5959L302.115 25.8ZM304.335 29.0342C303.905 29.137 303.424 29.2099 302.73 29.2099V29.6099C303.456 29.6099 303.968 29.5332 304.428 29.4233L304.335 29.0342ZM302.73 29.2099C301.945 29.2099 301.465 29.2828 301.078 29.3417L301.138 29.7372C301.518 29.6794 301.974 29.6099 302.73 29.6099V29.2099ZM301.078 29.3417C300.989 29.3552 300.907 29.3677 300.827 29.3785L300.88 29.775C300.964 29.7636 301.05 29.7506 301.138 29.7372L301.078 29.3417ZM301.026 29.4752L299.115 26.2343L298.77 26.4375L300.681 29.6783L301.026 29.4752ZM298.943 26.1359H296.743V26.5359H298.943V26.1359ZM296.543 26.3359V29.7201H296.943V26.3359H296.543ZM356.341 27.6778C356.273 27.6684 356.204 27.6596 356.134 27.6513L356.087 28.0486C356.155 28.0565 356.221 28.065 356.287 28.074L356.341 27.6778ZM356.134 27.6513C355.208 27.5427 354.706 27.585 354.21 27.627L354.244 28.0255C354.727 27.9847 355.199 27.9444 356.087 28.0486L356.134 27.6513ZM354.21 27.627C353.653 27.6742 353.1 27.7219 351.89 27.5421L351.831 27.9378C353.081 28.1234 353.667 28.0745 354.244 28.0255L354.21 27.627ZM351.889 27.542C351.633 27.5052 351.406 27.4571 351.202 27.4011L351.096 27.7869C351.317 27.8475 351.561 27.8988 351.832 27.9379L351.889 27.542ZM355.365 15.3121L350.961 27.5262L351.337 27.6619L355.741 15.4477L355.365 15.3121ZM359.337 15.1799H355.553V15.5799H359.337V15.1799ZM364.975 30.4254L359.525 15.3121L359.149 15.4477L364.598 30.5611L364.975 30.4254ZM364.85 30.3036C364.15 30.07 363.444 29.7337 362.776 29.4153L362.604 29.7764C363.268 30.0927 363.996 30.4403 364.723 30.683L364.85 30.3036ZM362.776 29.4153C362.043 29.0657 361.34 28.7293 360.775 28.6085L360.691 28.9997C361.199 29.1083 361.853 29.4184 362.604 29.7764L362.776 29.4153ZM360.205 27.9447L360.545 28.8729L360.921 28.7353L360.581 27.8071L360.205 27.9447ZM356.314 28.0759H360.393V27.6759H356.314V28.0759ZM73.8308 19.602L72.0048 24.662L72.381 24.7978L74.207 19.7378L73.8308 19.602ZM76.033 24.662L74.207 19.602L73.8308 19.7378L75.6568 24.7978L76.033 24.662ZM72.1929 24.9299H75.8449V24.5299H72.1929V24.9299ZM178.53 23.3899H181.214V22.9899H178.53V23.3899ZM178.33 18.5039V23.1899H178.73V18.5039H178.33ZM181.214 18.3039H178.53V18.7039H181.214V18.3039ZM183.9 20.8579C183.9 20.06 183.617 19.4153 183.127 18.9718C182.641 18.5304 181.968 18.3039 181.214 18.3039V18.7039C181.89 18.7039 182.46 18.9064 182.859 19.2681C183.255 19.6275 183.5 20.1598 183.5 20.8579H183.9ZM181.214 23.3899C181.967 23.3899 182.639 23.1696 183.126 22.734C183.616 22.2957 183.9 21.656 183.9 20.8579H183.5C183.5 21.5558 183.255 22.0821 182.86 22.4358C182.461 22.7922 181.891 22.9899 181.214 22.9899V23.3899ZM299.515 18.3039H296.743V18.7039H299.515V18.3039ZM302.113 20.8579C302.113 20.0705 301.829 19.4275 301.354 18.9822C300.88 18.5385 300.229 18.3039 299.515 18.3039V18.7039C300.142 18.7039 300.691 18.9093 301.08 19.2742C301.468 19.6374 301.713 20.1713 301.713 20.8579H302.113ZM299.515 23.4119C300.229 23.4119 300.88 23.1773 301.354 22.7337C301.829 22.2884 302.113 21.6453 302.113 20.8579H301.713C301.713 21.5445 301.468 22.0785 301.08 22.4417C300.691 22.8065 300.142 23.0119 299.515 23.0119V23.4119ZM296.743 23.4119H299.515V23.0119H296.743V23.4119ZM296.543 18.5039V23.2119H296.943V18.5039H296.543ZM355.807 24.7978L357.633 19.7378L357.257 19.602L355.431 24.662L355.807 24.7978ZM359.271 24.5299H355.619V24.9299H359.271V24.5299ZM357.257 19.7378L359.083 24.7978L359.459 24.662L357.633 19.602L357.257 19.7378Z" fill="black"/>
</g>
<defs>
<clipPath id="clip0">
<rect width="377.27" height="31.27" fill="white"/>
</clipPath>
</defs>
</svg>
