<svg width="351" height="55" viewBox="0 0 351 55" fill="none" xmlns="http://www.w3.org/2000/svg">
<g clip-path="url(#clip0)">
<mask id="path-1-inside-1" fill="white">
<path d="M0 34.4301C0 34.4301 0.61 34.4301 1.07 34.4301C1.53 34.4301 1.53 34.9901 1.91 34.4301C2.29 33.8801 2.52 33.6001 2.98 33.7401C3.44 33.8801 3.51 34.1901 3.9 34.1901C4.29 34.1901 4.81 34.7101 5.12 34.9201C5.43 35.1301 5.73 35.4701 6.19 35.5401C6.65 35.6101 7.18 35.9601 7.49 35.8901C7.79 35.8201 8.25 35.7501 8.63 35.5401C9.01 35.3301 9.32 35.4501 9.77 35.1301C10.23 34.8001 10.91 35.0301 11.22 34.8001C11.52 34.5701 10.53 34.3601 11.91 34.2301C13.28 34.0901 13.43 34.3401 13.82 34.5701C14.2 34.8001 13.82 34.8001 14.51 34.8001C15.2 34.8001 14.89 34.8001 15.58 34.8001C16.27 34.8001 16.34 34.7801 16.8 34.5001C17.26 34.2301 17.41 34.0901 17.79 34.0901C18.17 34.0901 18.32 34.0901 18.71 34.0901C19.1 34.0901 19.17 34.1601 19.55 34.0901C19.93 34.0201 19.93 33.9501 20.31 34.0901C20.69 34.2301 20.69 34.0201 21.23 34.1601C21.76 34.3001 21.53 33.9301 22.22 34.3601C22.91 34.8001 22.68 34.3401 23.06 34.8001C23.44 35.2601 23.29 35.5401 23.89 35.4001C24.5 35.2601 24.2 35.2001 24.73 35.2001C25.27 35.2001 25.11 34.8501 25.65 35.0601C26.18 35.2601 26.49 35.5901 26.87 35.2001C27.25 34.8001 27.32 34.8001 27.7 34.8001C28.09 34.8001 28.24 34.8001 28.85 34.8001C29.46 34.8001 29.46 34.8001 29.99 34.8001C30.52 34.8001 30.75 34.8001 31.29 34.8001C31.82 34.8001 32.28 34.6101 32.89 34.1601C33.5 33.7101 33.34 33.7101 33.73 33.7101C34.11 33.7101 34.49 33.0801 35.1 33.3901C35.71 33.7101 35.78 33.3101 36.47 33.3101C37.15 33.3101 36.85 32.7901 37.46 33.0501C38.07 33.3101 37.31 32.9801 38.68 32.9801C40.05 32.9801 40.36 32.4901 41.04 32.2201C41.73 31.9401 41.88 32.1501 42.57 31.8701C43.25 31.5901 43.4 31.6601 44.09 31.3901C44.78 31.1101 45.16 31.1101 45.46 30.6201C45.77 30.1401 46 29.9301 46.45 29.9301C46.91 29.9301 47.06 29.9301 47.75 29.9301C48.43 29.9301 48.51 29.5201 49.04 29.3801C49.58 29.2401 49.65 29.3101 50.42 29.0301C51.18 28.7501 51.48 28.3401 52.02 28.3401C52.55 28.3401 53.01 28.1301 53.62 27.8501C54.23 27.5801 54.23 27.3001 54.76 27.3701C55.29 27.4401 55.75 27.0701 56.36 27.3601C56.97 27.6501 57.2 27.2301 57.73 27.6501C58.26 28.0601 58.49 28.2701 59.18 28.5501C59.87 28.8201 60.32 29.0301 60.63 29.3801C60.93 29.7201 61.24 29.7901 61.92 30.1401C62.61 30.4901 62.84 30.8301 63.37 30.8301C63.9 30.8301 63.83 30.7601 64.36 30.4901C64.9 30.2101 65.96 28.9601 66.57 28.6801C67.18 28.4101 67.18 28.9601 67.79 28.4801C68.4 27.9901 68.55 28.4601 69.09 27.8501C69.62 27.2501 69.7 27.0201 70.38 26.9501C71.07 26.8801 71.6 26.5401 72.14 26.6101C72.67 26.6801 72.82 26.6001 73.43 26.6001C74.04 26.6001 74.19 26.6101 74.8 26.2601C75.41 25.9101 75.41 25.2901 76.02 25.6401C76.63 25.9801 76.71 25.9901 77.24 25.5401C77.77 25.0801 77.7 24.6701 78.23 24.6001C78.77 24.5301 78.92 24.6001 79.76 24.6001C80.59 24.6001 80.67 24.0801 81.43 24.3201C82.2 24.5701 82.58 23.9101 83.57 24.2601C84.56 24.6001 84.48 24.3201 85.01 24.6701C85.55 25.0101 85.85 25.2201 86.46 25.1501C87.07 25.0801 87.07 24.1501 87.83 24.1501C88.6 24.1501 90.27 23.1001 91.04 23.6301C91.8 24.1501 91.65 24.3201 92.48 24.0401C93.32 23.7701 92.79 24.1801 94.01 23.7001C95.23 23.2101 95.68 23.2101 96.52 23.2101C97.36 23.2101 97.44 22.2401 98.66 22.2401C99.88 22.2401 99.95 21.9001 100.71 21.7601C101.48 21.6201 101.4 22.1001 102.54 21.7601C103.69 21.4101 103.69 21.5501 104.37 21.1401C105.06 20.7201 106.89 19.9601 107.65 19.8201C108.41 19.6801 108.72 19.6101 109.63 19.4001C110.55 19.2001 110.16 18.7801 111.08 18.9201C111.99 19.0601 112.07 18.8501 112.83 19.2001C113.59 19.5401 113.06 19.8201 114.13 19.8201C115.19 19.8201 114.89 19.8201 115.8 19.7501C116.72 19.6801 116.95 20.1701 117.56 19.6801C118.17 19.2001 118.01 19.0601 118.47 19.2001C118.93 19.3301 118.55 18.8901 119.31 18.8901C120.07 18.8901 120.07 18.8901 120.61 18.8901C121.14 18.8901 120.83 19.6301 121.67 18.8901C122.51 18.1601 122.43 17.9501 122.97 17.9501C123.5 17.9501 123.5 17.8101 123.88 17.4601C124.26 17.1201 123.88 17.0501 124.34 17.0501C124.8 17.0501 124.8 16.7701 125.25 16.7001C125.71 16.6301 125.79 16.6301 126.32 16.2901C126.85 15.9401 126.78 15.7301 127.16 15.8001C127.54 15.8701 127.54 15.7301 128.07 15.3801C128.61 15.0301 128.68 15.0301 129.14 14.8301C129.6 14.6201 129.67 14.4801 130.06 14.4101C130.44 14.3401 131.2 13.8601 131.73 13.2301C132.27 12.6101 131.81 12.5401 132.34 12.6801C132.88 12.8201 132.72 13.4601 133.1 12.6201C133.48 11.7801 133.18 11.5701 133.56 11.7101C133.94 11.8501 133.56 11.9801 134.32 11.6701C135.09 11.3601 134.93 11.0901 135.31 11.0901C135.7 11.0901 135.39 11.0201 135.92 10.6701C136.46 10.3201 136 10.0501 136.53 10.0501C137.07 10.0501 136.84 10.4001 137.3 10.0501C137.75 9.70005 137.45 9.22005 137.83 9.36005C138.21 9.50005 138.13 9.33005 138.36 9.33005C138.59 9.33005 138.44 8.27005 138.67 8.80005C138.9 9.33005 138.74 9.63005 139.12 9.28005C139.51 8.93005 139.2 8.65005 139.89 8.65005C140.57 8.65005 140.57 8.80005 141.03 8.38005C141.49 7.96005 141.33 7.96005 141.87 7.55005C142.4 7.13005 141.94 7.00005 142.63 6.65005C143.32 6.30005 143.09 6.30005 143.39 5.96005C143.7 5.61005 143.77 5.54005 144.23 5.54005C144.69 5.54005 144.69 5.68005 145.15 5.19005C145.6 4.70005 145.45 4.43005 145.83 4.64005C146.21 4.85005 146.59 4.92005 147.43 4.57005C148.27 4.22005 147.66 4.02005 148.65 4.02005C149.64 4.02005 150.25 3.47005 150.48 3.74005C150.71 4.02005 150.71 3.45005 151.62 3.66005C152.54 3.88005 152.61 3.14005 153.15 3.61005C153.68 4.08005 153.83 4.03005 154.37 3.74005C154.9 3.45005 154.82 3.45005 155.28 3.45005C155.74 3.45005 156.2 3.23005 156.35 3.45005C156.5 3.67005 156.27 3.85005 157.03 3.60005C157.8 3.35005 157.72 3.66005 158.33 3.35005C158.94 3.04005 159.02 3.11005 159.78 2.97005C160.54 2.83005 160.62 2.97005 161.3 2.69005C161.99 2.41005 161.45 2.21005 162.37 2.28005C163.28 2.35005 163.28 2.42005 163.89 2.00005C164.5 1.58005 164.58 1.58005 165.04 1.58005C165.49 1.58005 165.72 1.72005 166.1 1.30005C166.48 0.880054 166.33 0.880054 166.94 0.750054C167.55 0.610054 168.01 0.0600539 168.47 0.130054C168.92 0.200054 168.77 -0.229946 169.3 0.120054C169.84 0.470054 169.91 0.260054 170.52 0.610054C171.13 0.960054 172.96 1.58005 173.8 1.58005C174.64 1.58005 174.87 1.65005 175.48 1.93005C176.09 2.21005 175.93 2.00005 176.77 2.35005C177.61 2.70005 177.53 2.97005 178.07 3.04005C178.6 3.11005 178.68 3.11005 179.29 3.18005C179.9 3.25005 180.05 3.04005 180.74 3.32005C181.42 3.60005 181.19 3.32005 181.8 3.53005C182.41 3.74005 182.56 3.39005 183.1 3.81005C183.63 4.23005 183.56 4.16005 184.17 4.29005C184.77 4.43005 184.7 4.36005 185.23 4.57005C185.77 4.78005 185.69 4.71005 186.22 4.92005C186.76 5.13005 186.83 5.06005 187.37 5.27005C187.9 5.48005 188.05 5.62005 188.66 5.69005C189.27 5.76005 188.97 5.90005 189.65 5.69005C190.34 5.48005 190.26 5.55005 190.8 5.20005C191.33 4.85005 191.02 4.51005 191.63 4.51005C192.24 4.51005 192.4 4.16005 192.93 4.51005C193.46 4.86005 193.23 5.06005 193.92 5.13005C194.61 5.20005 194.83 5.34005 195.14 5.75005C195.44 6.17005 195.98 6.24005 196.44 6.72005C196.89 7.20005 197.12 7.14005 197.5 7.55005C197.88 7.97005 198.04 8.10005 198.57 8.10005C199.1 8.10005 199.64 8.38005 200.17 8.24005C200.7 8.10005 202.61 8.10005 203.45 8.10005C204.28 8.10005 204.82 7.89005 205.2 8.45005C205.58 9.00005 205.73 8.94005 206.72 9.28005C207.71 9.63005 208.1 9.49005 208.55 10.0401C209.01 10.5901 208.86 10.8001 209.62 11.0101C210.38 11.2201 210.76 11.3601 211.37 11.7701C211.98 12.1901 212.29 12.4601 213.05 12.8101C213.81 13.1601 214.04 13.7101 214.95 13.3601C215.87 13.0101 216.71 13.0801 217.47 12.7401C218.23 12.3901 218.46 11.8401 218.99 11.3601C219.53 10.8701 219.37 10.2501 219.98 10.4601C220.59 10.6701 220.97 10.4601 221.51 10.6001C222.04 10.7401 222.27 10.8801 222.8 10.6001C223.34 10.3201 223.49 10.0501 224.1 10.3201C224.71 10.6001 224.71 9.63005 225.32 9.90005C225.93 10.1801 226.31 9.90005 226.61 10.3801C226.92 10.8701 227.68 11.0001 228.37 10.8001C229.05 10.5901 229.28 10.8701 229.89 10.5901C230.5 10.3101 230.12 10.2401 230.96 10.3101C231.8 10.3801 231.87 10.1701 232.71 10.2401C233.55 10.3101 234.46 10.3101 235.07 10.5201C235.68 10.7301 236.14 11.2801 236.75 11.0701C237.36 10.8601 237.36 11.0001 238.05 11.0001C238.73 11.0001 239.27 10.8601 239.95 11.0701C240.64 11.2801 241.32 11.3501 242.09 11.4901C242.85 11.6301 242.47 11.8401 243.23 11.7001C243.99 11.5601 243.84 11.6301 244.45 11.7701C245.06 11.9101 244.9 11.4901 245.67 11.7701C246.43 12.0501 246.2 11.9101 246.96 11.9801C247.72 12.0501 248.79 12.9501 249.25 13.0201C249.71 13.0901 249.94 13.5101 250.39 13.5701C250.85 13.6401 252.6 14.5401 253.21 14.6101C253.82 14.6801 253.82 14.1901 254.36 14.8201C254.89 15.4401 254.89 15.2401 255.8 15.4401C256.72 15.6501 256.18 15.9301 257.18 15.6501C258.17 15.3701 257.94 15.4401 259.08 15.5101C260.22 15.5801 260.22 15.6501 261.14 15.6501C262.05 15.6501 262.2 15.6501 263.12 15.6501C264.03 15.6501 264.49 15.2301 264.72 15.6501C264.95 16.0701 265.33 16.0001 265.79 16.3501C266.24 16.6901 265.86 16.5501 266.78 17.0401C267.69 17.5201 267.77 18.2201 268.45 17.9401C269.14 17.6601 268.84 17.3801 269.44 17.6601C270.05 17.9401 270.44 18.4201 271.12 17.9401C271.81 17.4501 271.5 17.0401 272.26 17.2501C273.03 17.4501 273.48 17.2501 274.02 17.5901C274.55 17.9401 275.08 17.2501 275.69 17.5901C276.3 17.9401 276.61 17.7301 277.22 17.6601C277.83 17.5901 277.75 17.8001 278.59 17.6601C279.43 17.5201 279.66 17.6601 280.34 17.3201C281.03 16.9701 281.11 16.9701 281.79 16.7601C282.48 16.5501 282.4 16.4201 283.01 16.5501C283.62 16.6901 283.62 16.5501 284.38 16.5501C285.14 16.5501 285.14 16.2101 285.75 16.4201C286.36 16.6201 287.58 16.8301 288.19 17.2501C288.8 17.6601 289.11 17.6601 289.64 17.9401C290.17 18.2201 289.95 18.2201 290.4 18.6301C290.86 19.0501 290.78 19.1201 291.24 19.6701C291.7 20.2201 291.55 20.0901 292.38 20.7101C293.22 21.3301 293.3 21.2601 293.76 21.4701C294.21 21.6801 294.29 20.9901 294.67 21.3301C295.05 21.6801 295.13 21.5401 295.74 21.8901C296.35 22.2301 296.58 21.6801 296.88 21.9601C297.19 22.2301 297.11 22.0901 297.57 22.5101C298.02 22.9301 297.95 23.1301 298.63 23.2001C299.32 23.2701 299.85 23.1301 300.39 23.3401C300.92 23.5501 301.38 23.4801 302.37 23.5501C303.36 23.6201 303.89 23.9701 304.5 24.0301C305.11 24.1001 305.87 24.5901 306.64 24.3801C307.4 24.1701 307.47 23.6901 308.31 23.6901C309.15 23.6901 311.97 23.0001 313.19 23.0001C314.41 23.0001 314.79 23.0601 316.01 23.2701C317.23 23.4801 317.69 23.2001 318.98 23.3401C320.28 23.4801 321.42 24.0301 322.34 23.8301C323.25 23.6201 323.86 23.3401 324.47 22.7901C325.08 22.2301 325 22.2301 325.76 22.2301C326.53 22.2301 326.83 21.6801 327.29 21.4001C327.75 21.1301 327.9 21.0601 328.51 21.0601C329.12 21.0601 329.65 20.8501 330.34 20.6401C331.02 20.4301 330.95 20.3601 331.56 20.3601C332.17 20.3601 332.78 20.2201 333.31 20.3601C333.84 20.5001 334.3 20.4301 335.06 20.7801C335.82 21.1301 336.36 21.2601 337.2 21.0601C338.03 20.8501 338.42 20.7101 339.18 20.5701C339.94 20.4301 340.32 20.4301 340.7 20.0201C341.08 19.6001 341.16 19.3201 341.85 19.3201C342.53 19.3201 343.06 19.1901 343.45 19.3901C343.83 19.6001 344.44 18.8401 345.12 19.3201C345.81 19.8101 345.66 19.1901 346.65 19.8801C347.64 20.5701 347.26 20.5701 348.25 21.1301C349.24 21.6801 348.93 21.7501 349.77 22.2301C350.61 22.7201 350.3 23.0001 350.3 23.0001V29.6401V41.0001V55.0001H0V34.4301Z"/>
</mask>
<path d="M0 34.4301C0 34.4301 0.61 34.4301 1.07 34.4301C1.53 34.4301 1.53 34.9901 1.91 34.4301C2.29 33.8801 2.52 33.6001 2.98 33.7401C3.44 33.8801 3.51 34.1901 3.9 34.1901C4.29 34.1901 4.81 34.7101 5.12 34.9201C5.43 35.1301 5.73 35.4701 6.19 35.5401C6.65 35.6101 7.18 35.9601 7.49 35.8901C7.79 35.8201 8.25 35.7501 8.63 35.5401C9.01 35.3301 9.32 35.4501 9.77 35.1301C10.23 34.8001 10.91 35.0301 11.22 34.8001C11.52 34.5701 10.53 34.3601 11.91 34.2301C13.28 34.0901 13.43 34.3401 13.82 34.5701C14.2 34.8001 13.82 34.8001 14.51 34.8001C15.2 34.8001 14.89 34.8001 15.58 34.8001C16.27 34.8001 16.34 34.7801 16.8 34.5001C17.26 34.2301 17.41 34.0901 17.79 34.0901C18.17 34.0901 18.32 34.0901 18.71 34.0901C19.1 34.0901 19.17 34.1601 19.55 34.0901C19.93 34.0201 19.93 33.9501 20.31 34.0901C20.69 34.2301 20.69 34.0201 21.23 34.1601C21.76 34.3001 21.53 33.9301 22.22 34.3601C22.91 34.8001 22.68 34.3401 23.06 34.8001C23.44 35.2601 23.29 35.5401 23.89 35.4001C24.5 35.2601 24.2 35.2001 24.73 35.2001C25.27 35.2001 25.11 34.8501 25.65 35.0601C26.18 35.2601 26.49 35.5901 26.87 35.2001C27.25 34.8001 27.32 34.8001 27.7 34.8001C28.09 34.8001 28.24 34.8001 28.85 34.8001C29.46 34.8001 29.46 34.8001 29.99 34.8001C30.52 34.8001 30.75 34.8001 31.29 34.8001C31.82 34.8001 32.28 34.6101 32.89 34.1601C33.5 33.7101 33.34 33.7101 33.73 33.7101C34.11 33.7101 34.49 33.0801 35.1 33.3901C35.71 33.7101 35.78 33.3101 36.47 33.3101C37.15 33.3101 36.85 32.7901 37.46 33.0501C38.07 33.3101 37.31 32.9801 38.68 32.9801C40.05 32.9801 40.36 32.4901 41.04 32.2201C41.73 31.9401 41.88 32.1501 42.57 31.8701C43.25 31.5901 43.4 31.6601 44.09 31.3901C44.78 31.1101 45.16 31.1101 45.46 30.6201C45.77 30.1401 46 29.9301 46.45 29.9301C46.91 29.9301 47.06 29.9301 47.75 29.9301C48.43 29.9301 48.51 29.5201 49.04 29.3801C49.58 29.2401 49.65 29.3101 50.42 29.0301C51.18 28.7501 51.48 28.3401 52.02 28.3401C52.55 28.3401 53.01 28.1301 53.62 27.8501C54.23 27.5801 54.23 27.3001 54.76 27.3701C55.29 27.4401 55.75 27.0701 56.36 27.3601C56.97 27.6501 57.2 27.2301 57.73 27.6501C58.26 28.0601 58.49 28.2701 59.18 28.5501C59.87 28.8201 60.32 29.0301 60.63 29.3801C60.93 29.7201 61.24 29.7901 61.92 30.1401C62.61 30.4901 62.84 30.8301 63.37 30.8301C63.9 30.8301 63.83 30.7601 64.36 30.4901C64.9 30.2101 65.96 28.9601 66.57 28.6801C67.18 28.4101 67.18 28.9601 67.79 28.4801C68.4 27.9901 68.55 28.4601 69.09 27.8501C69.62 27.2501 69.7 27.0201 70.38 26.9501C71.07 26.8801 71.6 26.5401 72.14 26.6101C72.67 26.6801 72.82 26.6001 73.43 26.6001C74.04 26.6001 74.19 26.6101 74.8 26.2601C75.41 25.9101 75.41 25.2901 76.02 25.6401C76.63 25.9801 76.71 25.9901 77.24 25.5401C77.77 25.0801 77.7 24.6701 78.23 24.6001C78.77 24.5301 78.92 24.6001 79.76 24.6001C80.59 24.6001 80.67 24.0801 81.43 24.3201C82.2 24.5701 82.58 23.9101 83.57 24.2601C84.56 24.6001 84.48 24.3201 85.01 24.6701C85.55 25.0101 85.85 25.2201 86.46 25.1501C87.07 25.0801 87.07 24.1501 87.83 24.1501C88.6 24.1501 90.27 23.1001 91.04 23.6301C91.8 24.1501 91.65 24.3201 92.48 24.0401C93.32 23.7701 92.79 24.1801 94.01 23.7001C95.23 23.2101 95.68 23.2101 96.52 23.2101C97.36 23.2101 97.44 22.2401 98.66 22.2401C99.88 22.2401 99.95 21.9001 100.71 21.7601C101.48 21.6201 101.4 22.1001 102.54 21.7601C103.69 21.4101 103.69 21.5501 104.37 21.1401C105.06 20.7201 106.89 19.9601 107.65 19.8201C108.41 19.6801 108.72 19.6101 109.63 19.4001C110.55 19.2001 110.16 18.7801 111.08 18.9201C111.99 19.0601 112.07 18.8501 112.83 19.2001C113.59 19.5401 113.06 19.8201 114.13 19.8201C115.19 19.8201 114.89 19.8201 115.8 19.7501C116.72 19.6801 116.95 20.1701 117.56 19.6801C118.17 19.2001 118.01 19.0601 118.47 19.2001C118.93 19.3301 118.55 18.8901 119.31 18.8901C120.07 18.8901 120.07 18.8901 120.61 18.8901C121.14 18.8901 120.83 19.6301 121.67 18.8901C122.51 18.1601 122.43 17.9501 122.97 17.9501C123.5 17.9501 123.5 17.8101 123.88 17.4601C124.26 17.1201 123.88 17.0501 124.34 17.0501C124.8 17.0501 124.8 16.7701 125.25 16.7001C125.71 16.6301 125.79 16.6301 126.32 16.2901C126.85 15.9401 126.78 15.7301 127.16 15.8001C127.54 15.8701 127.54 15.7301 128.07 15.3801C128.61 15.0301 128.68 15.0301 129.14 14.8301C129.6 14.6201 129.67 14.4801 130.06 14.4101C130.44 14.3401 131.2 13.8601 131.73 13.2301C132.27 12.6101 131.81 12.5401 132.34 12.6801C132.88 12.8201 132.72 13.4601 133.1 12.6201C133.48 11.7801 133.18 11.5701 133.56 11.7101C133.94 11.8501 133.56 11.9801 134.32 11.6701C135.09 11.3601 134.93 11.0901 135.31 11.0901C135.7 11.0901 135.39 11.0201 135.92 10.6701C136.46 10.3201 136 10.0501 136.53 10.0501C137.07 10.0501 136.84 10.4001 137.3 10.0501C137.75 9.70005 137.45 9.22005 137.83 9.36005C138.21 9.50005 138.13 9.33005 138.36 9.33005C138.59 9.33005 138.44 8.27005 138.67 8.80005C138.9 9.33005 138.74 9.63005 139.12 9.28005C139.51 8.93005 139.2 8.65005 139.89 8.65005C140.57 8.65005 140.57 8.80005 141.03 8.38005C141.49 7.96005 141.33 7.96005 141.87 7.55005C142.4 7.13005 141.94 7.00005 142.63 6.65005C143.32 6.30005 143.09 6.30005 143.39 5.96005C143.7 5.61005 143.77 5.54005 144.23 5.54005C144.69 5.54005 144.69 5.68005 145.15 5.19005C145.6 4.70005 145.45 4.43005 145.83 4.64005C146.21 4.85005 146.59 4.92005 147.43 4.57005C148.27 4.22005 147.66 4.02005 148.65 4.02005C149.64 4.02005 150.25 3.47005 150.48 3.74005C150.71 4.02005 150.71 3.45005 151.62 3.66005C152.54 3.88005 152.61 3.14005 153.15 3.61005C153.68 4.08005 153.83 4.03005 154.37 3.74005C154.9 3.45005 154.82 3.45005 155.28 3.45005C155.74 3.45005 156.2 3.23005 156.35 3.45005C156.5 3.67005 156.27 3.85005 157.03 3.60005C157.8 3.35005 157.72 3.66005 158.33 3.35005C158.94 3.04005 159.02 3.11005 159.78 2.97005C160.54 2.83005 160.62 2.97005 161.3 2.69005C161.99 2.41005 161.45 2.21005 162.37 2.28005C163.28 2.35005 163.28 2.42005 163.89 2.00005C164.5 1.58005 164.58 1.58005 165.04 1.58005C165.49 1.58005 165.72 1.72005 166.1 1.30005C166.48 0.880054 166.33 0.880054 166.94 0.750054C167.55 0.610054 168.01 0.0600539 168.47 0.130054C168.92 0.200054 168.77 -0.229946 169.3 0.120054C169.84 0.470054 169.91 0.260054 170.52 0.610054C171.13 0.960054 172.96 1.58005 173.8 1.58005C174.64 1.58005 174.87 1.65005 175.48 1.93005C176.09 2.21005 175.93 2.00005 176.77 2.35005C177.61 2.70005 177.53 2.97005 178.07 3.04005C178.6 3.11005 178.68 3.11005 179.29 3.18005C179.9 3.25005 180.05 3.04005 180.74 3.32005C181.42 3.60005 181.19 3.32005 181.8 3.53005C182.41 3.74005 182.56 3.39005 183.1 3.81005C183.63 4.23005 183.56 4.16005 184.17 4.29005C184.77 4.43005 184.7 4.36005 185.23 4.57005C185.77 4.78005 185.69 4.71005 186.22 4.92005C186.76 5.13005 186.83 5.06005 187.37 5.27005C187.9 5.48005 188.05 5.62005 188.66 5.69005C189.27 5.76005 188.97 5.90005 189.65 5.69005C190.34 5.48005 190.26 5.55005 190.8 5.20005C191.33 4.85005 191.02 4.51005 191.63 4.51005C192.24 4.51005 192.4 4.16005 192.93 4.51005C193.46 4.86005 193.23 5.06005 193.92 5.13005C194.61 5.20005 194.83 5.34005 195.14 5.75005C195.44 6.17005 195.98 6.24005 196.44 6.72005C196.89 7.20005 197.12 7.14005 197.5 7.55005C197.88 7.97005 198.04 8.10005 198.57 8.10005C199.1 8.10005 199.64 8.38005 200.17 8.24005C200.7 8.10005 202.61 8.10005 203.45 8.10005C204.28 8.10005 204.82 7.89005 205.2 8.45005C205.58 9.00005 205.73 8.94005 206.72 9.28005C207.71 9.63005 208.1 9.49005 208.55 10.0401C209.01 10.5901 208.86 10.8001 209.62 11.0101C210.38 11.2201 210.76 11.3601 211.37 11.7701C211.98 12.1901 212.29 12.4601 213.05 12.8101C213.81 13.1601 214.04 13.7101 214.95 13.3601C215.87 13.0101 216.71 13.0801 217.47 12.7401C218.23 12.3901 218.46 11.8401 218.99 11.3601C219.53 10.8701 219.37 10.2501 219.98 10.4601C220.59 10.6701 220.97 10.4601 221.51 10.6001C222.04 10.7401 222.27 10.8801 222.8 10.6001C223.34 10.3201 223.49 10.0501 224.1 10.3201C224.71 10.6001 224.71 9.63005 225.32 9.90005C225.93 10.1801 226.31 9.90005 226.61 10.3801C226.92 10.8701 227.68 11.0001 228.37 10.8001C229.05 10.5901 229.28 10.8701 229.89 10.5901C230.5 10.3101 230.12 10.2401 230.96 10.3101C231.8 10.3801 231.87 10.1701 232.71 10.2401C233.55 10.3101 234.46 10.3101 235.07 10.5201C235.68 10.7301 236.14 11.2801 236.75 11.0701C237.36 10.8601 237.36 11.0001 238.05 11.0001C238.73 11.0001 239.27 10.8601 239.95 11.0701C240.64 11.2801 241.32 11.3501 242.09 11.4901C242.85 11.6301 242.47 11.8401 243.23 11.7001C243.99 11.5601 243.84 11.6301 244.45 11.7701C245.06 11.9101 244.9 11.4901 245.67 11.7701C246.43 12.0501 246.2 11.9101 246.96 11.9801C247.72 12.0501 248.79 12.9501 249.25 13.0201C249.71 13.0901 249.94 13.5101 250.39 13.5701C250.85 13.6401 252.6 14.5401 253.21 14.6101C253.82 14.6801 253.82 14.1901 254.36 14.8201C254.89 15.4401 254.89 15.2401 255.8 15.4401C256.72 15.6501 256.18 15.9301 257.18 15.6501C258.17 15.3701 257.94 15.4401 259.08 15.5101C260.22 15.5801 260.22 15.6501 261.14 15.6501C262.05 15.6501 262.2 15.6501 263.12 15.6501C264.03 15.6501 264.49 15.2301 264.72 15.6501C264.95 16.0701 265.33 16.0001 265.79 16.3501C266.24 16.6901 265.86 16.5501 266.78 17.0401C267.69 17.5201 267.77 18.2201 268.45 17.9401C269.14 17.6601 268.84 17.3801 269.44 17.6601C270.05 17.9401 270.44 18.4201 271.12 17.9401C271.81 17.4501 271.5 17.0401 272.26 17.2501C273.03 17.4501 273.48 17.2501 274.02 17.5901C274.55 17.9401 275.08 17.2501 275.69 17.5901C276.3 17.9401 276.61 17.7301 277.22 17.6601C277.83 17.5901 277.75 17.8001 278.59 17.6601C279.43 17.5201 279.66 17.6601 280.34 17.3201C281.03 16.9701 281.11 16.9701 281.79 16.7601C282.48 16.5501 282.4 16.4201 283.01 16.5501C283.62 16.6901 283.62 16.5501 284.38 16.5501C285.14 16.5501 285.14 16.2101 285.75 16.4201C286.36 16.6201 287.58 16.8301 288.19 17.2501C288.8 17.6601 289.11 17.6601 289.64 17.9401C290.17 18.2201 289.95 18.2201 290.4 18.6301C290.86 19.0501 290.78 19.1201 291.24 19.6701C291.7 20.2201 291.55 20.0901 292.38 20.7101C293.22 21.3301 293.3 21.2601 293.76 21.4701C294.21 21.6801 294.29 20.9901 294.67 21.3301C295.05 21.6801 295.13 21.5401 295.74 21.8901C296.35 22.2301 296.58 21.6801 296.88 21.9601C297.19 22.2301 297.11 22.0901 297.57 22.5101C298.02 22.9301 297.95 23.1301 298.63 23.2001C299.32 23.2701 299.85 23.1301 300.39 23.3401C300.92 23.5501 301.38 23.4801 302.37 23.5501C303.36 23.6201 303.89 23.9701 304.5 24.0301C305.11 24.1001 305.87 24.5901 306.64 24.3801C307.4 24.1701 307.47 23.6901 308.31 23.6901C309.15 23.6901 311.97 23.0001 313.19 23.0001C314.41 23.0001 314.79 23.0601 316.01 23.2701C317.23 23.4801 317.69 23.2001 318.98 23.3401C320.28 23.4801 321.42 24.0301 322.34 23.8301C323.25 23.6201 323.86 23.3401 324.47 22.7901C325.08 22.2301 325 22.2301 325.76 22.2301C326.53 22.2301 326.83 21.6801 327.29 21.4001C327.75 21.1301 327.9 21.0601 328.51 21.0601C329.12 21.0601 329.65 20.8501 330.34 20.6401C331.02 20.4301 330.95 20.3601 331.56 20.3601C332.17 20.3601 332.78 20.2201 333.31 20.3601C333.84 20.5001 334.3 20.4301 335.06 20.7801C335.82 21.1301 336.36 21.2601 337.2 21.0601C338.03 20.8501 338.42 20.7101 339.18 20.5701C339.94 20.4301 340.32 20.4301 340.7 20.0201C341.08 19.6001 341.16 19.3201 341.85 19.3201C342.53 19.3201 343.06 19.1901 343.45 19.3901C343.83 19.6001 344.44 18.8401 345.12 19.3201C345.81 19.8101 345.66 19.1901 346.65 19.8801C347.64 20.5701 347.26 20.5701 348.25 21.1301C349.24 21.6801 348.93 21.7501 349.77 22.2301C350.61 22.7201 350.3 23.0001 350.3 23.0001V29.6401V41.0001V55.0001H0V34.4301Z" fill="#D9DDE8" stroke="black" stroke-width="2" mask="url(#path-1-inside-1)"/>
</g>
<defs>
<clipPath id="clip0">
<rect width="350.32" height="55" fill="white"/>
</clipPath>
</defs>
</svg>
