<svg width="626" height="208" viewBox="0 0 626 208" fill="none" xmlns="http://www.w3.org/2000/svg">
<path d="M601.2 152.464C604.8 154.064 604.5 157.864 607.6 159.764C611.1 165.664 615.1 172.464 611.9 179.964C614.1 190.264 604.8 194.164 600.7 202.064C598.2 203.064 596.6 206.564 593.1 205.064C591.1 206.664 588.2 206.964 585.9 206.464C585 208.164 582.9 206.564 581.7 207.564C566.5 208.864 557.2 195.764 547.1 186.364C545.6 184.564 543.5 184.464 541.8 182.464C539.3 182.364 537.5 179.364 534.8 180.964C532.8 182.164 530.8 183.564 528.4 183.664C527.9 185.364 525.5 183.964 525.8 186.064C521.1 186.964 523.1 194.264 517.3 192.464C515.1 193.264 514.5 190.564 512.8 190.264C513.2 187.964 512.3 186.764 513.4 184.864C516.8 183.164 520.2 180.364 523.2 178.564C523.7 176.864 526.4 176.864 527.9 175.764L529.6 174.564C534.5 175.164 540.1 173.964 544.1 176.364C548.9 178.064 553.7 182.964 557.5 185.964C561 190.764 565.7 196.964 571.2 198.164C572.5 201.564 577.6 200.064 580.7 200.964C581.4 200.864 582.3 199.864 582.8 200.664C584.7 199.964 587.5 200.664 588.7 198.764C591.1 198.964 592.7 196.864 595 196.464C595.5 195.964 595.6 194.764 596.7 195.264C599.1 192.764 603.2 190.364 603.3 186.364C605.4 184.664 603.1 182.464 603.9 180.164C605.9 173.064 602.8 166.864 599.6 161.264C596.8 159.764 593.9 157.264 590.6 155.964C584.2 155.564 576.4 155.164 573.4 159.964C573.2 163.664 568.1 162.764 569.8 167.364C568.9 172.564 573.6 174.164 576.1 177.564C580.1 176.364 581.6 180.464 585.6 179.164C587.9 178.064 589 175.764 590.3 173.864C589.7 172.264 588.8 170.764 589.2 168.764C591.3 168.664 590.1 166.064 592.2 165.964C594.3 165.764 593.3 168.164 594.6 168.964C596.5 171.064 596.3 175.164 595.5 178.164C594.1 178.664 594.8 180.064 594.6 181.064C592.1 184.364 588.7 186.864 584.8 187.364C577.1 186.564 571 183.864 566.4 177.164C564.3 174.464 561.8 170.564 563.4 166.664L564.3 166.264C562.6 164.564 565.9 163.564 564.9 162.164C567 156.964 570.9 151.764 576.6 150.064C580.3 151.464 583.1 147.964 587 148.764C591.8 149.764 596.6 150.864 601.2 152.464Z" fill="black"/>
<path d="M508.2 193.564C512.7 197.664 519.9 198.064 525.7 196.464C530.7 195.064 533.3 190.464 537.8 187.764C539.3 187.764 540.1 189.364 541.5 189.464C537.1 194.664 533.9 200.264 527.3 202.364C522.7 203.164 517.3 204.464 512.7 202.764C508.8 202.564 506.9 200.264 503.5 198.664V197.864C500.6 195.064 498.7 192.764 496.8 189.964C495.1 188.764 495.1 187.464 493.5 186.664C492.8 183.864 489.8 181.764 487.7 179.964C485.2 177.364 480.8 177.964 476.9 177.864C469.7 177.664 467.1 186.564 461.1 188.264C460.3 189.864 458.1 189.664 458.2 191.664C464.9 194.564 467.3 186.664 472.4 185.364C478.6 184.364 483.6 187.864 486.5 192.864C487.9 195.164 491.5 197.264 490.7 200.764C489.8 201.464 488.6 201.664 487.3 201.564C483.5 198.864 479.7 195.364 476.5 191.964C473.8 191.764 472.1 193.764 469.4 193.664C466.3 195.264 465 198.864 461.1 198.664C457.5 198.664 454.5 197.164 451.1 196.564C450.2 195.064 448.4 196.064 447 195.764C444.4 192.264 443.1 187.464 441.2 183.264C439.9 182.164 440.4 180.464 438.7 179.564C436.8 178.564 434.4 180.664 434.1 177.464C427.4 177.164 423.3 182.164 420.8 187.464C420.7 190.964 421.2 194.964 424.5 196.164C426.3 198.464 430.1 197.264 430.7 200.364C432.6 199.564 435.2 200.264 436.5 198.264C436.9 195.264 436.1 192.764 434 190.764C430.6 188.664 428.8 192.764 425.7 192.364C425.2 193.264 424.3 193.264 423.6 192.764C421.7 192.264 423.9 190.864 423.2 189.464C425.9 184.564 432.1 184.964 436.9 185.664C441.5 187.064 441.3 192.964 444.4 195.664C445.6 200.764 440.8 203.064 438.2 206.064C433.4 210.264 428.5 205.164 423.2 205.664C420.4 205.164 418.2 203.464 416.1 201.064C413 195.864 412.9 188.064 414.8 182.364C415.9 182.264 416.1 181.164 416.1 180.264C421.5 174.964 429.2 170.464 437.8 172.364C446.3 175.064 446.5 184.764 451.5 190.664C452 191.164 452.4 191.764 453.2 191.464C454 191.264 452.3 189.164 454 189.764C455.3 186.864 456.5 183.364 459.4 181.464C459.5 179.764 461.4 178.964 462.3 177.664C464.2 177.564 465 174.064 467.7 174.764C469.6 170.964 474.4 172.864 477.3 170.664C493.2 168.364 499.3 184.364 508.2 193.564Z" fill="black"/>
<path d="M524.3 14.1638C525 19.0638 528.2 23.3638 526.4 28.6638C525.2 29.3638 525.3 30.9638 524.7 31.5638C523.6 33.7638 523.8 36.4638 521.4 38.1638C520.3 41.1638 516.7 42.7638 515.1 44.8638C508.9 49.8638 500.4 51.4638 492.2 49.4638C488.5 49.3638 487.6 48.5638 485.2 46.7638C484 45.1638 481.6 42.8638 480.8 42.0638C479.6 40.9638 479.8 38.4638 479.3 36.0638C478.2 33.2638 479.3 31.0638 479.3 28.5638C477.4 26.0638 476.2 23.2638 475.6 20.2638C477.1 15.4638 481.8 13.7638 485.4 10.5638C492.2 4.66383 502.1 -2.33617 512.2 2.76383C517.5 5.36383 520.6 9.46382 524.3 14.1638Z" fill="black"/>
<path d="M552.7 10.0638C555.2 12.6638 557.5 15.6638 559.8 18.7638C562.1 19.2638 563.2 16.6638 565.2 16.2638C567 14.5638 569.1 11.8638 571.9 11.6638C574.6 12.1638 575.5 14.2638 577.7 15.8638C577.8 17.7638 579.5 19.3638 580.6 20.4638C585.2 19.4638 589.7 17.0638 594.5 16.6638C597.3 20.3638 594.4 25.4638 593.5 29.1638C592.2 33.7638 589.6 36.8638 587.7 41.2638C587.8 43.6638 585.8 45.1638 584.8 47.0638C584.2 50.1638 582.9 52.7638 581 54.5638C581.4 56.8638 578.6 56.9638 578.9 59.0638C573.6 63.8638 573.1 70.5638 567.7 75.3638C565.6 79.0638 562.1 81.4638 559.4 84.5638C557 88.4638 552.7 88.5638 549.8 92.8638C547.9 93.0638 546.9 95.4638 545.2 96.1638C542.1 100.264 545.8 104.564 545.2 109.064C548.2 113.664 545 118.764 544.8 123.664C543.9 125.864 542.4 126.764 541.5 129.064C541.7 134.564 548.9 138.264 551.8 138.964C552.9 139.164 553.2 139.364 553.6 140.064C553.6 140.964 550.2 142.164 548.5 144.864C549.1 147.364 553.3 148.164 553.9 149.764C552.5 151.764 548.5 152.064 547.7 153.764C549.2 155.664 553.9 155.864 555.5 157.464C555.7 159.664 552.8 159.064 551.8 160.264C543.2 161.964 533.9 161.964 526 158.964C519.6 158.064 513.5 160.364 507.2 161.064C504.5 160.564 504.4 162.464 501.9 161.164C501.4 161.164 501 160.764 500.2 161.064C499 162.664 495.5 157.664 495.6 155.264C496.9 153.364 494.5 149.664 497.7 148.964C499.5 146.164 501.3 142.264 499.4 138.964C494.1 134.264 495.9 126.664 492.8 121.064C493.3 116.264 492.1 111.164 494.9 106.464C494.6 105.664 495.5 104.964 495.8 104.764C498.5 97.4638 505.7 91.3638 504.1 82.7638C503 80.6638 504.1 80.1638 503.6 78.6638C503.1 76.1638 501.9 75.1638 503.3 72.2638C505.4 62.7638 516.3 61.3638 523.3 56.0638C531.2 54.3638 535.1 45.4638 539.1 39.3638C538.9 38.7638 539.2 37.2638 539.9 36.4638C544.1 32.9638 543.4 25.9638 547 21.4638C546.6 19.8638 547.6 18.8638 548.2 17.7638C548.4 14.8638 549.5 11.2638 550.6 8.66382C551.5 8.56382 552.2 9.06383 552.7 10.0638Z" fill="black"/>
<path d="M439.7 23.9638C446 30.6638 449.1 41.7638 456.8 46.8638C459.4 51.0638 464.1 53.6638 468.9 54.3638C471.5 57.6638 476.7 56.2638 479.7 59.3638C483.4 58.2638 483.8 62.6638 487.2 62.2638C488.7 64.4638 490.9 66.0638 491.8 68.9638C493.1 77.3638 486.3 82.2638 486.4 90.1638C482.2 98.8638 487.3 107.664 486.8 116.764C487 119.164 486.6 121.164 485.6 123.064C485.5 130.864 480.3 136.064 475.6 141.364C473.9 146.764 477.7 154.264 472.7 158.464C470.4 158.464 468.8 160.164 466.5 160.164C462.6 161.464 457.4 161.064 453.2 160.564C451.8 158.564 448.5 161.064 447.4 158.464C445.4 157.064 442 157.664 439.9 157.664C434.7 157.164 430.1 157.864 424.3 157.164C422.4 157.564 420.9 157.364 420.6 157.264C418.8 156.264 421.1 154.064 422.4 153.264C424.6 152.064 424.4 152.164 425.3 151.364C425.8 149.064 420.8 149.464 421.4 147.164C423 146.064 427.1 144.864 426.6 142.364C425.7 139.364 421.3 138.864 420.8 136.464C424.7 133.164 430.8 132.064 436.3 131.864C436.9 130.164 439.3 131.064 439.2 129.464C439.8 127.764 441.8 126.064 440.4 123.964C439.7 122.964 440.7 122.064 439.5 121.064C440 119.264 440.1 117.764 439.9 116.064C441.5 114.264 439.2 112.364 441.2 110.664C440.8 106.764 443.5 103.364 443.7 100.664C443.4 98.8638 444.5 99.5638 445.4 97.1638C446.3 94.6638 447.5 94.3638 447.9 92.8638C448.3 91.3638 447.6 84.0638 443.3 81.8638C438.7 80.0638 436.8 75.2638 433.3 72.6638C429.8 67.6638 428.3 60.4638 423.3 56.4638C422.8 52.1638 420.9 51.7638 420.2 47.0638C418.8 45.0638 417.8 41.2638 417.3 39.7638C420 37.3638 425.2 42.5638 426.8 39.6638C426.7 37.8638 426 33.2638 427.8 32.5638C430.9 32.6638 434.5 34.3638 436.5 33.2638C438.8 31.3638 436.1 23.9638 439.7 23.9638Z" fill="black"/>
<path d="M50.2001 35.3638H38.3V31.0638H67.4V35.3638H55.4V70.3638H50.2001V35.3638Z" fill="black"/>
<path d="M77.3001 31.0638V54.3638C77.3001 63.1638 81.2001 66.8638 86.5001 66.8638C92.3001 66.8638 96.1001 62.9638 96.1001 54.3638V31.0638H101.2V53.9638C101.2 66.0638 94.8001 70.9638 86.3001 70.9638C78.2001 70.9638 72.2001 66.3638 72.2001 54.1638V30.9638H77.3001V31.0638Z" fill="black"/>
<path d="M110.5 31.5638C113.1 31.0638 116.7 30.7638 120.2 30.7638C125.6 30.7638 129.1 31.7638 131.6 33.9638C133.6 35.7638 134.7 38.3638 134.7 41.4638C134.7 46.6638 131.4 50.0638 127.3 51.4638V51.6638C130.3 52.7638 132.1 55.5638 133.1 59.5638C134.4 65.0638 135.3 68.8638 136.1 70.3638H130.8C130.1 69.1638 129.3 65.8638 128.2 60.9638C127 55.5638 124.9 53.4638 120.3 53.3638H115.5V70.3638H110.4V31.5638H110.5ZM115.5 49.4638H120.7C126.1 49.4638 129.6 46.4638 129.6 41.9638C129.6 36.8638 125.9 34.6638 120.5 34.6638C118 34.6638 116.3 34.8638 115.5 35.1638V49.4638V49.4638Z" fill="black"/>
<path d="M147.4 31.0638H142.3V70.3638H147.4V31.0638Z" fill="black"/>
<path d="M156 64.1638C158.3 65.5638 161.6 66.7638 165.1 66.7638C170.3 66.7638 173.3 64.0638 173.3 60.0638C173.3 56.3638 171.2 54.2638 165.9 52.2638C159.5 49.9638 155.5 46.6638 155.5 41.1638C155.5 35.0638 160.6 30.4638 168.2 30.4638C172.2 30.4638 175.1 31.3638 176.9 32.3638L175.5 36.4638C174.2 35.7638 171.6 34.5638 168 34.5638C162.6 34.5638 160.6 37.7638 160.6 40.4638C160.6 44.1638 163 45.9638 168.4 48.0638C175.1 50.6638 178.4 53.8638 178.4 59.6638C178.4 65.7638 173.9 71.0638 164.6 71.0638C160.8 71.0638 156.7 69.8638 154.6 68.4638L156 64.1638Z" fill="black"/>
<path d="M219.1 53.1638C218.8 47.6638 218.5 41.0638 218.5 36.1638H218.3C217 40.7638 215.3 45.6638 213.3 51.0638L206.4 70.1638H202.5L196.1 51.4638C194.2 45.8638 192.7 40.8638 191.6 36.1638H191.5C191.4 41.0638 191.1 47.6638 190.7 53.5638L189.7 70.4638H184.8L187.6 31.1638H194.1L200.8 50.1638C202.4 54.9638 203.8 59.3638 204.8 63.3638H205C206 59.4638 207.4 55.0638 209.1 50.1638L216.1 31.1638H222.6L225.1 70.4638H220.1L219.1 53.1638Z" fill="black"/>
<path d="M267 50.3638C267 63.8638 258.8 71.0638 248.7 71.0638C238.3 71.0638 231 63.0638 231 51.0638C231 38.5638 238.8 30.3638 249.3 30.3638C260 30.4638 267 38.6638 267 50.3638ZM236.5 50.9638C236.5 59.3638 241 66.8638 249 66.8638C257 66.8638 261.6 59.4638 261.6 50.5638C261.6 42.7638 257.5 34.5638 249.1 34.5638C240.7 34.5638 236.5 42.3638 236.5 50.9638Z" fill="black"/>
<path d="M286.9 31.5638C290 31.0638 293.7 30.7638 297.7 30.7638C305 30.7638 310.2 32.4638 313.6 35.6638C317.1 38.8638 319.1 43.4638 319.1 49.7638C319.1 56.1638 317.1 61.4638 313.4 65.0638C309.7 68.7638 303.7 70.7638 296 70.7638C292.4 70.7638 289.3 70.5638 286.8 70.2638V31.5638H286.9ZM292 66.3638C293.3 66.5638 295.1 66.6638 297.1 66.6638C307.9 66.6638 313.8 60.5638 313.8 49.9638C313.9 40.6638 308.6 34.7638 297.9 34.7638C295.3 34.7638 293.3 34.9638 291.9 35.2638V66.3638H292Z" fill="black"/>
<path d="M346.6 51.9638H331.3V66.1638H348.3V70.3638H326.2V31.0638H347.5V35.3638H331.3V47.7638H346.6V51.9638Z" fill="black"/>
<path d="M13 104.864C16.6 104.264 21.7 103.764 28.9 103.764C36.2 103.764 41.3 105.164 44.8 107.964C48.1 110.564 50.4 114.864 50.4 119.964C50.4 125.064 48.7 129.364 45.6 132.364C41.6 136.164 35.6 137.864 28.7 137.864C27.2 137.864 25.8 137.764 24.7 137.664V156.264H13V104.864ZM24.7 128.564C25.7 128.764 26.9 128.864 28.6 128.864C34.8 128.864 38.7 125.664 38.7 120.364C38.7 115.564 35.4 112.664 29.5 112.664C27.1 112.664 25.5 112.864 24.6 113.164V128.564H24.7Z" fill="black"/>
<path d="M105.9 129.664C105.9 146.764 95.6 157.064 80.4 157.064C65 157.064 55.9 145.364 55.9 130.564C55.9 114.964 65.9 103.264 81.2 103.264C97.2 103.364 105.9 115.364 105.9 129.664ZM68.3 130.364C68.3 140.564 73.1 147.764 81 147.764C89 147.764 93.5 140.164 93.5 130.064C93.5 120.764 89 112.664 80.9 112.664C72.9 112.664 68.3 120.264 68.3 130.364Z" fill="black"/>
<path d="M114 104.964C117.8 104.364 123.4 103.864 129.7 103.864C137.4 103.864 142.8 105.064 146.5 107.964C149.6 110.464 151.3 114.064 151.3 118.864C151.3 125.464 146.6 130.064 142.1 131.664V131.864C145.7 133.364 147.7 136.764 149 141.564C150.6 147.464 152.2 154.264 153.2 156.264H141.2C140.3 154.664 139.1 150.564 137.6 144.164C136.2 137.664 134 135.864 129.2 135.864H125.7V156.364H114V104.964V104.964ZM125.6 127.264H130.2C136.1 127.264 139.5 124.364 139.5 119.764C139.5 114.964 136.3 112.564 130.8 112.464C128 112.464 126.3 112.664 125.5 112.864V127.264H125.6Z" fill="black"/>
<path d="M170.2 114.064H156.2V104.264H196.2V114.064H182V156.264H170.2V114.064Z" fill="black"/>
<path d="M214.6 104.264V134.264C214.6 143.264 218 147.764 224 147.764C230.2 147.764 233.6 143.464 233.6 134.264V104.264H245.3V133.464C245.3 149.564 237.2 157.164 223.6 157.164C210.5 157.164 202.7 149.864 202.7 133.264V104.264H214.6Z" fill="black"/>
<path d="M299.3 153.864C295.7 155.064 288.8 156.764 281.9 156.764C272.4 156.764 265.5 154.364 260.7 149.764C255.9 145.264 253.3 138.464 253.4 130.864C253.5 113.564 266.1 103.664 283.1 103.664C289.8 103.664 295 104.964 297.5 106.264L295 115.664C292.2 114.464 288.6 113.464 282.9 113.464C273.1 113.464 265.7 119.064 265.7 130.264C265.7 140.964 272.4 147.364 282.1 147.364C284.8 147.364 287 147.064 287.9 146.564V135.664H279.9V126.464H299.3V153.864V153.864Z" fill="black"/>
<path d="M321 142.864L317.3 156.164H305.1L321 104.164H336.4L352.5 156.164H339.8L335.8 142.864H321ZM334.2 134.064L331 123.064C330.1 119.964 329.2 116.164 328.4 113.064H328.2C327.4 116.164 326.7 120.064 325.8 123.064L322.7 134.064H334.2Z" fill="black"/>
<path d="M359.9 104.264H371.7V146.364H392.4V156.264H359.9V104.264Z" fill="black"/>
</svg>
